<?xml version="1.0" encoding="UTF-8" standalone="no"?>
<svg
   viewBox="0 0 118.89556 87.522957"
   height="87.522957"
   width="118.89556"
   xml:space="preserve"
   id="svg2"
   version="1.1"
   sodipodi:docname="crab.svg"
   inkscape:version="1.1.2 (b8e25be8, 2022-02-05)"
   xmlns:inkscape="http://www.inkscape.org/namespaces/inkscape"
   xmlns:sodipodi="http://sodipodi.sourceforge.net/DTD/sodipodi-0.dtd"
   xmlns="http://www.w3.org/2000/svg"
   xmlns:svg="http://www.w3.org/2000/svg"
   xmlns:rdf="http://www.w3.org/1999/02/22-rdf-syntax-ns#"
   xmlns:cc="http://creativecommons.org/ns#"
   xmlns:dc="http://purl.org/dc/elements/1.1/"><sodipodi:namedview
     id="namedview836"
     pagecolor="#ffffff"
     bordercolor="#666666"
     borderopacity="1.0"
     inkscape:pageshadow="2"
     inkscape:pageopacity="0.0"
     inkscape:pagecheckerboard="0"
     showgrid="false"
     inkscape:zoom="1.6764075"
     inkscape:cx="-104.68815"
     inkscape:cy="35.790821"
     inkscape:window-width="2560"
     inkscape:window-height="1314"
     inkscape:window-x="0"
     inkscape:window-y="25"
     inkscape:window-maximized="1"
     inkscape:current-layer="svg2"
     fit-margin-top="0"
     fit-margin-left="0"
     fit-margin-right="0"
     fit-margin-bottom="0" /><metadata
     id="metadata8"><rdf:RDF><cc:Work
         rdf:about=""><dc:format>image/svg+xml</dc:format><dc:type
           rdf:resource="http://purl.org/dc/dcmitype/StillImage" /></cc:Work></rdf:RDF></metadata><defs
     id="defs6" /><path
     id="path14"
     style="fill:#6f42c1;fill-opacity:1;fill-rule:nonzero;stroke:none;stroke-width:0.133333"
     d="m 29.629953,27.875159 c 0,0 0.002,0 0.0025,0 0.05,0.0147 0.0964,0.0333 0.1412,0.048 -0.0584,0.008 -0.104666,-0.0107 -0.143733,-0.048 z m 89.255737,13.54267 c -0.003,-0.02 -0.008,-0.0413 -0.012,-0.0627 -0.004,-0.0213 -0.01,-0.0467 -0.0156,-0.068 -0.007,-0.0267 -0.0152,-0.0493 -0.0251,-0.0773 -0.007,-0.0173 -0.0131,-0.0333 -0.0208,-0.0493 -0.0115,-0.0267 -0.0235,-0.0507 -0.0375,-0.0773 -0.009,-0.012 -0.0204,-0.0253 -0.0303,-0.04 -0.012,-0.0173 -0.0229,-0.0387 -0.0369,-0.052 0,0 10e-4,0.004 10e-4,0.007 -0.0765,-0.084 -0.18013,-0.12934 -0.3104,-0.10934 0.002,0 0.002,-0.003 0.002,-0.003 -0.0109,0 -0.0245,0 -0.0391,0.007 -0.038,0.009 -0.0755,0.0227 -0.11093,0.0413 -5.3e-4,10e-4 -0.002,0.003 -0.003,0.003 -0.0145,0.008 -0.0276,0.0173 -0.04,0.024 -0.0125,0.009 -0.0256,0.0147 -0.0376,0.024 -0.014,0.0107 -0.0301,0.0173 -0.0447,0.0307 -0.0256,0.0173 -0.0496,0.044 -0.0751,0.0667 -0.009,0.008 -0.0188,0.016 -0.0287,0.0267 -0.14627,0.14667 -0.27293,0.34667 -0.38493,0.54534 -9.4e-4,0 -0.002,0.004 -0.004,0.007 -0.0473,0.084 -0.0937,0.168 -0.13587,0.248 -0.004,0.007 -0.007,0.0147 -0.012,0.02 -0.0219,0.0413 -0.0432,0.0813 -0.0647,0.11734 -0.0281,0.0533 -0.0577,0.10133 -0.0839,0.144 -0.34427,0.544 -0.63907,1.11466 -0.94627,1.67999 -0.30947,0.564 -0.538,1.18934 -0.90213,1.724 -0.2948,0.43467 -0.69587,0.81467 -0.80827,1.34134 -0.0308,0.13333 -0.0104,0.33866 0.04,0.48133 0.005,0.0147 0.009,0.0333 0.0152,0.0467 -0.0459,0.028 -0.1052,0.0667 -0.16933,0.10666 -0.005,0.004 -0.0109,0.007 -0.0187,0.008 -0.0147,0.0107 -0.0308,0.0253 -0.0423,0.0293 l -0.0187,0.0133 c -0.003,0 -0.007,0 -0.009,-0.003 -0.052,-0.024 -0.10466,-0.0427 -0.16253,-0.0533 -0.5588,-0.10533 -1.00053,0.20933 -1.4604,0.472 -0.56973,0.32267 -1.09373,0.71467 -1.6844,0.99867 -0.65,0.31866 -1.33907,0.55066 -1.9796,0.88133 -0.50107,0.25733 -1.02133,0.5 -1.5032,0.792 -0.002,-0.0147 -0.004,-0.0253 -0.008,-0.0413 -0.0984,-0.38134 -0.6292,-0.30267 -0.9032,-0.28134 -0.62133,0.04 -1.22333,0.19734 -1.84,0.288 -1.32973,0.204 -2.65373,0.48267 -3.9532,0.84 -0.17813,0.0507 -0.35,0.108 -0.51773,0.17334 -0.05,0.016 -0.10053,0.0387 -0.14893,0.0573 -0.16254,0.0653 -0.321339,0.136 -0.474405,0.216 -0.0136,0.009 -0.02813,0.016 -0.04333,0.0253 -0.149466,0.08 -0.2932,0.16667 -0.433333,0.26 -0.02853,0.0187 -0.05827,0.0373 -0.08747,0.0573 -0.152533,0.104 -0.301066,0.21466 -0.445333,0.33466 -0.0224,-0.005 -0.0432,-0.0107 -0.0656,-0.0173 -0.05573,-0.0173 -0.1104,-0.0333 -0.165067,-0.052 -0.0224,-0.009 -0.0448,-0.016 -0.0672,-0.0253 -0.224533,-0.0853 -0.443733,-0.19067 -0.663066,-0.29467 -0.228667,-0.0933 -0.451467,-0.20667 -0.675467,-0.32667 -0.938,-0.47333 -1.8308,-0.99866 -2.821333,-1.37866 -0.1652,-0.0627 -0.330267,-0.11467 -0.495867,-0.16 -0.0208,-0.005 -0.0412,-0.012 -0.06093,-0.016 -0.140667,-0.0373 -0.2828,-0.0693 -0.424,-0.096 -0.0156,-0.004 -0.03067,-0.008 -0.0468,-0.009 0.0025,0 0.0067,10e-4 0.0083,0.003 -0.2896,-0.0533 -0.583866,-0.0867 -0.8776,-0.10533 -0.0041,-10e-4 -0.0093,-10e-4 -0.014,-10e-4 -0.0057,0 -0.0104,0 -0.01573,0 -0.0984,-0.007 -0.197333,-0.0133 -0.296267,-0.0147 0.05733,-0.0307 0.112934,-0.0653 0.169734,-0.096 0.0756,-0.04 0.150533,-0.08 0.227066,-0.12 0.219867,-0.116 0.442267,-0.228 0.666134,-0.33734 0.06467,-0.0307 0.126666,-0.064 0.190133,-0.0933 0.286,-0.13733 0.575067,-0.27067 0.8656,-0.40267 0,0 -0.0015,0 -0.002,0 0.754667,-0.33733 1.518667,-0.65466 2.276,-0.964 0.474,-0.11866 0.959333,-0.19866 1.415067,-0.23066 0.312,-0.0253 1.098533,-0.0213 0.838133,-0.54667 -0.09427,-0.192 -0.471467,-0.24933 -0.648,-0.27867 -0.367733,-0.0587 -0.7344,-0.0973 -1.1016,-0.14533 -0.128,-0.0133 -0.2536,-0.0213 -0.383733,-0.024 -0.0324,-0.003 -0.06413,-0.007 -0.09427,-0.0133 -0.572,-0.0733 -1.148,-0.0987 -1.7204,-0.17467 -0.430667,-0.0533 -0.859333,-0.11467 -1.286933,-0.18133 0.552,-0.264 1.113066,-0.51334 1.671866,-0.76267 1.325467,-0.58133 2.574,-1.32267 3.838534,-2.024 0.367733,-0.20667 0.7552,-0.38666 1.138007,-0.56933 0.24013,-0.11867 0.50893,-0.244 0.74066,-0.388 0.14534,-0.096 0.2812,-0.17333 0.36094,-0.34667 0.008,-0.0187 0.009,-0.0333 0.0156,-0.0507 0.36506,0.104 0.7896,-0.048 1.1308,-0.144 0.0317,-0.008 0.0645,-0.0187 0.0947,-0.0293 h -4e-4 c 1.03334,-0.29333 2.0416,-0.69466 3.03947,-1.09466 0.0172,-0.005 0.0355,-0.0133 0.0527,-0.0187 0.0339,0.0373 0.0979,0.056 0.12493,-0.007 0.006,-0.0147 0.008,-0.0293 0.0115,-0.0453 0.34173,-0.12933 0.7172,-0.264 0.9844,-0.50133 0.33386,-0.29067 0.35213,-0.57067 0.4292,-0.97734 0.026,-0.14 0.0599,-0.31866 0.0885,-0.516 0.114,0.188 0.24533,0.34267 0.40573,0.38134 0.0604,0.0133 0.1208,0.0227 0.18174,0.0227 0.0141,0 0.0256,0 0.0385,0 0.0495,-0.003 0.0995,-0.004 0.15053,-0.0133 0.0104,0 0.0213,-0.004 0.0319,-0.007 0.0515,-0.009 0.1056,-0.0227 0.1588,-0.0373 0.007,-0.001 0.0131,-0.004 0.0203,-0.007 0.0568,-0.0173 0.11413,-0.0387 0.17093,-0.0613 0.002,0 0.004,-0.003 0.007,-0.003 0.13186,-0.0547 0.26,-0.11866 0.38493,-0.18266 0.11147,-0.056 0.21933,-0.11067 0.32133,-0.15467 0.6432,-0.28667 1.31934,-0.5 1.9552,-0.80133 1.174,-0.55467 2.38187,-1.20934 3.16667,-2.26934 0.43653,-0.588 0.65893,-1.26533 1.0308,-1.88 0.1448,-0.23466 0.31667,-0.48266 0.46507,-0.744 0.0636,-0.0787 0.12133,-0.16266 0.1864,-0.23866 0.57506,-0.69067 1.34226,-1.41334 1.5584,-2.316 0.024,-0.0933 0.0292,-0.18667 0.0271,-0.28 -5.3e-4,-0.024 -0.003,-0.0453 -0.005,-0.0667 -0.006,-0.076 -0.0167,-0.14933 -0.0364,-0.22133 -0.006,-0.0213 -0.01,-0.044 -0.0163,-0.064 -0.0271,-0.0853 -0.0577,-0.168 -0.0979,-0.25067 -0.004,-0.008 -0.005,-0.0133 -0.008,-0.02 -0.0443,-0.0853 -0.0932,-0.17067 -0.1484,-0.25467 0.0667,-0.0107 0.1344,-0.0213 0.2032,-0.0307 0.0416,-0.007 0.088,-0.016 0.13534,-0.0293 0.0161,-0.004 0.0328,-0.007 0.0495,-0.012 0.0412,-0.012 0.0808,-0.0267 0.12147,-0.0413 0.01,-0.003 0.0187,-0.007 0.028,-0.008 0.0516,-0.0227 0.10053,-0.048 0.1464,-0.0773 0.003,-0.001 0.008,-0.005 0.0109,-0.008 0.0448,-0.0293 0.0855,-0.064 0.11774,-0.104 0.002,0 0.002,-0.001 0.003,-0.001 v 0 c 0.0573,-0.0707 0.0964,-0.15066 0.0953,-0.25466 -0.008,-0.67734 0.0167,-1.35334 0.0647,-2.03334 0.0479,-0.71333 0.0567,-1.42266 0.16507,-2.13333 0.0459,-0.30533 0.0803,-0.612 0.10986,-0.91867 0.0276,-0.296 0.124,-0.64933 0.0704,-0.944 -0.1048,-0.58533 -0.41053,-1.18533 -0.636,-1.72933 -0.0151,-0.0373 -0.0323,-0.0827 -0.0531,-0.13333 -0.005,-0.012 -0.0105,-0.028 -0.0163,-0.0413 -0.0187,-0.0467 -0.0375,-0.0933 -0.0583,-0.148 0,-0.004 -0.003,-0.008 -0.003,-0.0107 -0.14227,-0.36534 -0.3428,-0.90534 -0.53867,-1.44267 -0.252,-0.69333 -0.49213,-1.38533 -0.57187,-1.688 -0.12386,-0.472 -0.3104,-1.116 -0.76146,-1.384 -0.0364,-0.02 -0.0687,-0.0307 -0.102,-0.036 -0.0104,-0.001 -0.0208,-0.007 -0.0313,-0.007 -4e-4,0 -0.003,-10e-4 -0.005,-10e-4 -0.003,10e-4 -0.006,0 -0.009,0 -0.002,0 -0.004,0 -0.005,0 -0.003,0 -0.006,10e-4 -0.009,0 -0.0109,10e-4 -0.0308,10e-4 -0.0443,0.008 -0.003,0 -0.005,0 -0.007,0 -0.0131,0.005 -0.024,0.0133 -0.0365,0.0173 -0.008,0.005 -0.0151,0.007 -0.0213,0.0107 0,0 0,0.001 5.3e-4,0.001 -0.008,0.003 -0.0161,0.009 -0.024,0.016 -0.0113,0.0107 -0.0244,0.0213 -0.0369,0.0347 -0.0115,0.009 -0.0208,0.0253 -0.0307,0.0387 -0.009,0.0133 -0.0188,0.024 -0.0271,0.0387 -0.0172,0.0253 -0.0319,0.052 -0.0439,0.08 -0.006,0.012 -0.0115,0.024 -0.0167,0.0373 -0.0104,0.0253 -0.0192,0.048 -0.0276,0.0733 -0.005,0.0133 -0.008,0.0227 -0.0115,0.0347 -0.008,0.0253 -0.0156,0.048 -0.0208,0.0747 -0.002,0.007 -0.005,0.0147 -0.007,0.0213 -0.007,0.0307 -0.0145,0.0587 -0.0187,0.0853 -0.13907,0.64133 -0.33707,1.30533 -0.3964,1.964 -0.0615,0.74533 -0.17494,1.48667 -0.27347,2.23067 -0.0927,0.70133 0.2652,1.284 0.0308,1.992 -0.3256,0.97333 -0.49893,1.948 -0.49893,2.97866 9.3e-4,0.13467 0.009,0.25867 0.0219,0.384 0.003,0.0333 0.007,0.068 0.012,0.10134 0.0109,0.0893 0.0271,0.17333 0.0457,0.25866 0.009,0.0373 0.0147,0.0773 0.0245,0.11334 0.0265,0.096 0.0573,0.18533 0.0927,0.27066 0.002,0.005 0.004,0.008 0.006,0.009 0.0125,0.0333 0.026,0.0627 0.0423,0.092 0.005,0.016 0.0113,0.0293 0.0187,0.0427 -0.012,-0.001 -0.0235,0.005 -0.0333,0.005 -0.0292,0.001 -0.0573,0.003 -0.0833,0.0107 -0.026,0.005 -0.0511,0.012 -0.0749,0.0187 -0.024,0.009 -0.048,0.0187 -0.0709,0.0307 -0.0265,0.0133 -0.05,0.0267 -0.0749,0.0453 -0.0193,0.0107 -0.0391,0.024 -0.0579,0.0387 -0.0287,0.0227 -0.0552,0.0467 -0.0823,0.0733 -0.012,0.0107 -0.0249,0.0213 -0.0375,0.036 -0.036,0.036 -0.0699,0.076 -0.10414,0.116 0,0 -0.002,0.003 -0.003,0.004 -0.11254,0.14267 -0.21094,0.29733 -0.2968,0.42533 -0.45,0.65867 -0.77347,1.396 -1.2792,2.02267 -0.47294,0.58133 -0.93907,1.17067 -1.39587,1.76933 -0.99067,1.30934 -2.03693,2.46134 -3.43907,3.34534 -0.15786,0.0987 -0.34893,0.204 -0.53226,0.32266 -0.01,0.007 -0.0183,0.0133 -0.0281,0.0173 -0.0448,0.0293 -0.0869,0.064 -0.1308,0.092 -0.0208,0.016 -0.0432,0.0307 -0.064,0.0467 -0.0369,0.0307 -0.0713,0.0587 -0.10626,0.092 -0.0224,0.0187 -0.0464,0.0387 -0.0687,0.0613 -0.0308,0.0307 -0.0579,0.0613 -0.086,0.0947 -0.0213,0.0253 -0.0421,0.048 -0.0625,0.0773 -0.0213,0.0293 -0.0421,0.0627 -0.0615,0.1 -0.0161,0.028 -0.0339,0.06 -0.0463,0.0893 -0.0157,0.036 -0.0256,0.0707 -0.0371,0.108 -0.005,0.0213 -0.0161,0.0413 -0.0203,0.064 -0.005,0.0307 -0.01,0.0627 -0.0145,0.096 -0.004,0.0613 0,0.116 0.007,0.168 5.3e-4,0.004 0.002,0.008 0.002,0.008 0.008,0.0547 0.0213,0.1 0.038,0.14533 -0.008,0 -0.0167,0 -0.0249,-0.003 -0.0433,-0.007 -0.0876,-0.007 -0.13187,-0.008 -0.0552,-0.003 -0.1088,-0.004 -0.16347,-0.003 -0.0423,0.003 -0.0839,0.004 -0.12613,0.008 -0.0661,0.005 -0.13067,0.0133 -0.1968,0.0267 -0.0292,0.001 -0.0584,0.007 -0.0865,0.012 -0.0989,0.0213 -0.1952,0.0453 -0.29214,0.076 -0.012,0.003 -0.0235,0.008 -0.036,0.009 -0.0885,0.0307 -0.17653,0.06 -0.26293,0.0947 -0.0167,0.008 -0.0333,0.0147 -0.0495,0.0187 -0.086,0.0373 -0.17093,0.072 -0.25466,0.11067 -0.01,0.005 -0.0188,0.009 -0.0287,0.0133 -0.0943,0.044 -0.186,0.092 -0.274,0.136 -0.99947,0.52134 -2.114,1.18134 -3.02347,1.76267 -0.3468,0.21467 -0.70253,0.50133 -1.01506,0.76533 -0.0443,0.0373 -0.0989,0.0773 -0.1568,0.12 -0.0968,0.0747 -0.205207,0.15334 -0.301074,0.24267 -5.33e-4,0 0,0 -5.33e-4,0 -0.0061,0.009 -0.01507,0.016 -0.0224,0.0227 -0.01707,0.0187 -0.0348,0.0347 -0.0504,0.052 -0.0048,0.004 -0.01,0.0107 -0.01307,0.0133 l -0.0041,0.007 c -0.0095,0.012 -0.01667,0.024 -0.0256,0.0373 -0.01453,0.0173 -0.02813,0.0347 -0.04053,0.052 -0.0048,0.009 -0.0079,0.0147 -0.01147,0.024 -0.01987,0.0267 -0.03547,0.056 -0.04333,0.0867 0,0 0,0.004 0,0.005 -0.0047,0.0133 -0.0031,0.0267 -0.0061,0.04 0,0 -5.33e-4,-10e-4 -0.0016,-10e-4 -0.0093,0.0253 -0.01093,0.0507 -0.0093,0.0733 0,0.0907 0.0031,0.18933 0.0093,0.28133 -0.03707,-0.003 -0.07507,-0.004 -0.113067,-0.009 h -0.0011 c -0.04427,-0.005 -0.08747,-0.008 -0.1328,-0.012 -0.07867,-0.007 -0.157734,-0.0133 -0.233334,-0.032 -0.118666,-0.0253 -0.2416,-0.0613 -0.3552,-0.10267 -0.0448,-0.004 -0.0896,-0.0107 -0.135866,-0.0173 -0.1704,-0.0253 -0.301067,-0.084 -0.424534,-0.14 -0.138533,-0.0293 -0.280133,-0.0373 -0.4328,-0.02 -0.457866,0.068 -0.8932,0.22133 -1.318266,0.39467 -0.389067,0.15333 -0.880667,0.36266 -1.345734,0.372 -1.014666,0.256 -2.0412,0.484 -3.063066,0.72533 -1.773467,0.42133 -3.530267,0.888 -5.171334,1.656 v 0 c -0.0027,10e-4 -0.0047,10e-4 -0.0063,0.003 -0.136534,0.064 -0.2708,0.13067 -0.407333,0.19734 -0.0464,0.0253 -0.09373,0.048 -0.140667,0.0733 -0.108267,0.0573 -0.2176,0.116 -0.326533,0.17467 -0.04627,0.0267 -0.09267,0.0507 -0.139067,0.0747 -0.285333,-0.15733 -0.568133,-0.324 -0.844267,-0.50666 -0.731733,-0.48933 -1.4416,-1.01067 -2.1844,-1.48267 -0.266666,-0.172 -0.539466,-0.336 -0.813466,-0.5 0.1224,0.024 0.247333,0.044 0.3724,0.052 0.07347,0.007 0.1516,0.007 0.226533,0.005 0.01973,0 0.04213,0 0.06507,-0.003 0.0292,0 0.05947,-0.003 0.0876,-0.003 0.0224,-0.003 0.0452,-0.003 0.06867,-0.003 0.0021,0 0.0027,0 0.0052,0 0.02133,-0.003 0.04853,-0.004 0.0704,-0.007 0.05613,-0.003 0.1036,-0.009 0.159334,-0.0173 0.0208,0 0.04373,-0.003 0.06347,-0.004 0.0568,-0.007 0.118267,-0.016 0.177734,-0.0227 0.01093,-0.004 0.01813,-0.007 0.028,-0.007 0.06933,-0.0107 0.136533,-0.0213 0.2048,-0.032 0.111466,-0.0187 0.2228,-0.036 0.3328,-0.0507 0.125466,-0.0213 0.250533,-0.0427 0.372933,-0.0547 0.207733,-0.028 0.413467,-0.0973 0.6052,-0.18267 0.3348,-0.15333 0.700933,-0.23733 1.032267,-0.39066 0.573466,-0.26667 1.158266,-0.51334 1.673466,-0.884 0.5228,-0.37067 1.016667,-0.78534 1.540533,-1.152 0.2516,-0.17467 0.476667,-0.36534 0.712534,-0.55867 0.389066,-0.32133 0.723466,-0.41333 1.219333,-0.43733 0.102533,-10e-4 0.2504,-0.004 0.404133,-0.02 0.01667,-0.003 0.03333,-0.003 0.05053,-0.004 0.03173,-0.004 0.06347,-0.009 0.0968,-0.0133 0.02613,-0.005 0.05267,-0.009 0.07867,-0.0133 0.0292,-0.005 0.05573,-0.0133 0.08493,-0.02 0.02707,-0.008 0.0552,-0.0147 0.08013,-0.0227 0.02867,-0.009 0.0532,-0.0213 0.07813,-0.032 0.02347,-0.0107 0.0464,-0.02 0.0672,-0.0333 0.0276,-0.012 0.04947,-0.032 0.0724,-0.052 0.01307,-0.0107 0.02867,-0.0213 0.0412,-0.0347 0.024,-0.0253 0.0416,-0.0547 0.05773,-0.0867 0.0043,-0.005 0.01093,-0.012 0.01467,-0.02 -0.0016,0 -0.0032,-10e-4 -0.0032,-10e-4 0.0063,-0.0133 0.01613,-0.024 0.01987,-0.0387 0.05627,-0.20267 0.06347,-0.40134 0.04213,-0.596 0,-0.004 0,-0.005 0,-0.005 0,0 0,-0.004 -0.0011,-0.007 -0.0052,-0.0453 -0.01187,-0.0907 -0.01973,-0.13467 -0.0011,-10e-4 -0.0011,-0.005 -0.0011,-0.005 l -0.0016,-0.005 c 0,0 0,0 -4e-4,0 0.0083,0.005 0.01707,0.0107 0.02547,0.016 0.01093,0.007 0.02187,0.0147 0.03387,0.0213 0.0047,0.003 0.0088,0.007 0.01293,0.008 v 0.003 c 0.07867,0.048 0.182934,0.088 0.295867,0.12267 0.200533,-0.0493 0.400533,-0.0747 0.616667,-0.0587 0.348,0.116 0.4152,-0.0187 0.581866,-0.22266 0.07027,-0.14934 0.231734,-0.568 0.335334,-0.68934 0.3532,-0.668 0.4776,-1.49866 0.801066,-2.196 0.517734,-1.12133 1.021334,-2.04933 1.0104,-3.34266 -0.0079,-0.94667 -0.234933,-1.90134 0.200534,-2.66934 0.0208,-0.0533 0.04693,-0.10933 0.07813,-0.164 0.1328,-0.22533 0.3192,-0.43866 0.408267,-0.696 0.09173,-0.26533 0.0896,-0.49733 -0.01453,-0.688 -0.0021,-0.005 -0.0041,-0.009 -0.0079,-0.0147 -0.03427,-0.0627 -0.0812,-0.11867 -0.140534,-0.17334 -0.0095,-0.009 -0.02133,-0.0187 -0.0308,-0.028 -0.06347,-0.052 -0.1328,-0.1 -0.218133,-0.14 -0.108933,-0.0533 -0.262,-0.0533 -0.3808,-0.0107 0,-0.0307 0,-0.0627 0.0068,-0.1 0.0016,-0.0107 0.0031,-0.0227 0.0057,-0.0333 0.02867,-0.168 0.09013,-0.37333 0.1088,-0.492 0.07453,-0.48266 0.1256,-0.97466 0.155734,-1.47333 l 0.0021,-0.012 v 10e-4 c 0.02187,-0.39066 0.02707,-0.784 0.02027,-1.17733 v 0 -0.003 c -0.0031,-0.25066 -0.01347,-0.49733 -0.0292,-0.74666 -9.34e-4,-0.0253 -0.0025,-0.052 -0.0047,-0.0787 -0.01453,-0.21867 -0.03533,-0.43467 -0.0604,-0.65333 -0.0052,-0.052 -0.0093,-0.104 -0.01613,-0.156 -0.024,-0.192 -0.05307,-0.38267 -0.08493,-0.572 -0.01093,-0.0707 -0.0208,-0.14 -0.03227,-0.208 -0.04627,-0.24934 -0.09733,-0.49734 -0.157334,-0.73867 -0.217066,-0.87333 -0.502,-1.824 -1.014533,-2.576 -0.5172,-0.752 -1.124933,-1.47733 -1.565067,-2.27867 -0.253733,-0.46666 -0.434933,-0.96 -0.676533,-1.43066 -0.199467,-0.37734 -0.388133,-0.84667 -0.658933,-1.17467 -0.128667,-0.148 -0.258267,-0.28267 -0.3932,-0.41467 -0.0688,-0.088 -0.1412,-0.17066 -0.2172,-0.256 -0.390134,-0.41466 -0.668267,-0.91733 -1.043734,-1.34 -0.701066,-0.7826604 -1.395866,-1.5373304 -2.036,-2.3666604 -0.620266,-0.812 -1.2052,-1.628 -1.856666,-2.42 -0.704267,-0.85867 -1.2568,-1.84934 -1.9412,-2.72934 -0.621867,-0.79733 -1.476533,-1.29333 -2.359867,-1.74800005 -0.392666,-0.20133 -0.8016,-0.29333 -1.233866,-0.384 -0.5,-0.10133 -1.009334,-0.252 -1.515067,-0.31066 -0.591733,-0.0613 -1.151067,-0.116 -1.721467,-0.108 -0.354666,-0.0387 -0.711333,-0.0507 -1.073866,0.009 -0.0724,0.012 -0.110934,0.0707 -0.1156,0.13467 v 0 0 c -0.0016,0.0293 0.0036,0.0613 0.0156,0.0893 l -5.34e-4,-0.001 c 5.34e-4,0.001 5.34e-4,0.001 5.34e-4,0.001 0.0016,0.003 0.0041,0.004 0.0052,0.008 0.01347,0.028 0.03333,0.0493 0.05933,0.0653 0.413067,0.23867 0.948933,0.37467 1.3932,0.56667 0.243867,0.10400005 0.462,0.24400005 0.690667,0.38400005 0.317733,0.20267 0.356266,0.296 0.462533,0.652 0.09427,0.32133 0.395867,0.496 0.692667,0.61733 0.588533,0.23867 0.176,0.852 0.536533,1.20934 0.118133,0.116 0.299467,0.20666 0.4588,0.25733 0.322933,0.104 0.3776,0.396 0.5552,0.63067 0.213067,0.28266 0.604133,0.43733 0.931733,0.54133 0.443334,0.14933 0.705734,0.22667 0.7584,0.76 0.01453,0.172 -0.0484,0.32 0.0244,0.48667 0.08333,0.204 0.196934,0.32533 0.359467,0.468 0.2224,0.18933 0.342667,0.44666 0.518133,0.67466 0.0772,0.1 -0.194666,0.38 -0.235333,0.484 -0.0656,0.16667 -0.06467,0.276 -0.0093,0.44667 0.141066,0.476 0.665066,0.67067 0.462933,1.212 -0.0948,0.24667 0.0896,0.5146704 0.2,0.7253304 0.076,0.14134 0.150533,0.23867 0.290133,0.336 0.09213,0.0547 0.296934,0.104 0.122934,0.204 -0.216134,0.12134 -0.166667,0.42934 -0.05933,0.596 0.2004,0.31467 -0.105333,0.61734 0.03373,0.95867 0.07813,0.188 0.176133,0.34267 0.305733,0.48667 0.116667,0.12266 0.174,0.26 0.214133,0.40266 5.34e-4,0.003 0.0016,0.009 0.0016,0.009 0.02187,0.0827 0.03907,0.16666 0.05613,0.24933 -0.4208,-0.10667 -0.839067,-0.352 -1.199467,-0.57067 -0.428533,-0.25066 -0.584267,-0.71066 -0.822933,-1.12 -0.04733,-0.08 -0.109334,-0.144 -0.1776,-0.2 -0.05933,-0.0493 -0.1244,-0.088 -0.192134,-0.12533 -0.0041,-10e-4 -0.0063,-0.003 -0.0088,-0.007 0,0 0,0 -0.0021,0 -0.186,-0.0987 -0.395867,-0.17333 -0.576533,-0.25066 -0.459867,-0.20934 -0.601067,-0.58934 -0.6276,-1.04934 0.0011,-0.004 0.0011,-0.007 0.0011,-0.007 -0.0048,-0.0333 -0.0057,-0.0627 -0.0057,-0.0933 -0.0027,-0.19466 -0.140667,-0.3280004 -0.3172,-0.3880004 -0.1328,-0.0507 -0.266133,-0.0893 -0.398533,-0.132 v 0 c -0.0572,-0.0173 -0.114,-0.0347 -0.169734,-0.0547 -0.257866,-0.0813 -0.233866,-0.244 -0.242133,-0.47334 -0.0057,-0.116 0.02333,-0.30133 0.0077,-0.46533 5.34e-4,0 5.34e-4,0 5.34e-4,0 0,-0.003 -0.0016,-0.003 -0.0016,-0.003 -0.0015,-0.0267 -0.0057,-0.0493 -0.0104,-0.0707 -0.0036,-0.012 -0.0063,-0.0253 -0.0104,-0.0373 -0.0047,-0.016 -0.0099,-0.0347 -0.01667,-0.0507 -0.0073,-0.0147 -0.0156,-0.0267 -0.024,-0.04 -0.0077,-0.012 -0.01453,-0.0253 -0.02333,-0.0347 -0.01933,-0.0213 -0.0428,-0.0453 -0.07147,-0.0587 -0.01707,-0.009 -0.03853,-0.0187 -0.06133,-0.028 -0.0021,0 -0.0053,0 -0.0073,0 -0.260933,-0.10133 -0.759866,-0.13866 -0.712533,-0.44933 0.05053,-0.30267 0.121867,-0.57733 -0.1292,-0.79733 -0.0025,-0.001 -0.0047,-0.008 -0.01147,-0.009 -0.0031,-0.009 -0.0083,-0.0187 -0.0124,-0.0253 v -0.005 c -0.03387,-0.0507 -0.06147,-0.10667 -0.08653,-0.152 -0.105733,-0.21067 -0.268667,-0.38667 -0.381733,-0.59067 -0.166134,-0.28933 -0.297467,-0.592 -0.433867,-0.892 -0.254133,-0.56267 -0.354133,-1.17067 -0.5792,-1.74133 -0.06973,-0.18 -0.223333,-0.436 -0.458267,-0.388 -0.05627,0.0107 -0.102666,0.0347 -0.143733,0.0653 -0.0104,0.008 -0.0204,0.0147 -0.02867,0.0213 -0.180266,0.16 -0.233866,0.47734 -0.293733,0.68934 -0.1636,0.544 -0.1808,1.14266 -0.136533,1.70266 0.04373,0.55867 0.0792,1.05334 0.223466,1.59734 0.1588,0.616 0.392134,1.21866 0.575467,1.82666 0.31,1.0373404 0.705333,2.0146704 1.1756,2.9853404 0.547333,1.11333 1.183333,2.17066 1.624,3.336 0.453067,1.20133 0.7572,2.49866 1.210933,3.71866 0.0067,0.036 0.01507,0.068 0.02547,0.10534 0.0604,0.26266 0.133333,0.52666 0.211467,0.788 0.01147,0.032 0.0208,0.068 0.03067,0.1 0.0672,0.216 0.136,0.42933 0.21,0.644 0.026,0.076 0.05253,0.156 0.0796,0.23466 0.0412,0.11467 0.08187,0.22934 0.124,0.34267 0.04533,0.128 0.0916,0.25733 0.138534,0.38533 -0.0027,-0.004 -0.0031,-0.007 -0.0057,-0.012 0.09213,0.24267 0.1808,0.48934 0.274534,0.732 0.711866,1.896 1.685333,3.608 3.1104,5.05067 0.3812,0.38667 0.893733,0.73733 1.422933,1.00667 v 0 c 9.33e-4,0 9.33e-4,0 9.33e-4,0 0.128667,0.0653 0.255733,0.12533 0.383867,0.17733 0.0292,0.0133 0.05947,0.0253 0.08813,0.036 0.1312,0.052 0.260933,0.10133 0.386933,0.14133 0.394267,0.12 0.863067,0.21867 1.271867,0.25867 0.08493,0.005 0.154667,-0.0187 0.2172,-0.056 -0.119333,0.444 -0.06933,0.98533 -0.0188,1.49733 0.0568,0.57867 0.154133,1.12667 0.502667,1.61467 0,0 0.0011,0 0.0015,0.001 -0.0036,-0.001 -0.0061,-0.001 -0.0093,-0.004 -0.0208,-0.003 -0.0364,0 -0.05253,0.007 -0.138134,-0.036 -0.2824,0.0253 -0.422934,0.0907 -0.416666,0.208 -0.794266,0.46666 -1.253733,0.58266 -0.440533,0.112 -0.924933,-0.004 -1.373867,0.0187 -0.370399,0.0107 -0.706266,0.17067 -1.052133,0.29333 -0.471866,0.17334 -0.997866,0.40534 -1.513466,0.316 -0.338134,-0.06 -0.626667,-0.35333 -0.9688,-0.37733 -0.265067,-0.0173 -0.416134,0.0813 -0.595867,0.27067 -0.1828,0.19066 -0.252533,0.376 -0.503067,0.512 -0.293333,0.15733 -0.536,-0.0733 -0.766133,-0.196 -0.181333,-0.0933 -0.443867,0.001 -0.586,0.11866 -0.155733,0.12534 -0.264533,0.276 -0.3912,0.432 -0.166667,0.19867 -0.403067,0.18 -0.609867,0.092 -0.06293,-0.0267 -0.121333,-0.06 -0.169733,-0.0907 -0.631333,-0.39467 -0.716133,-0.0587 -0.961467,0.496 -0.208933,0.47066 -0.893733,0.57733 -1.335466,0.59866 -0.249467,0.016 -0.505734,0.0413 -0.7296,0.16534 -0.0396,-0.0973 -0.0672,-0.216 -0.07093,-0.376 -0.0031,-0.24134 0.09947,-0.78267 -0.1036,-0.976 -0.226533,-0.21334 -0.492666,-0.104 -0.7708,-0.0587 -0.557333,0.08 -1,0.272 -1.445333,-0.17467 -0.212533,-0.20666 -0.6088,0.0973 -0.796933,0.17467 -0.522933,0.20667 -1.092133,0.009 -1.368133,-0.47067 -0.126134,-0.21466 -0.4188,-0.024 -0.5636,0.028 -0.430134,0.15467 -0.866134,0.2 -1.313467,0.13734 0.292133,-0.476 0.559333,-0.984 0.615067,-1.056 0.026,-0.032 0.0552,-0.0627 0.08227,-0.092 0.214,0.08 0.4516,0.11866 0.6964,0.0893 0.291067,-0.036 0.5572,-0.188 0.759334,-0.40267 0.658266,-0.49733 0.609866,-1.512 -0.06667,-2.028 -0.166133,-0.12666 -0.377067,-0.21466 -0.5984,-0.256 -0.0057,-10e-4 -0.01,-0.003 -0.01573,-0.007 -0.0015,0 -0.0031,0.003 -0.0036,0.003 -0.253067,-0.0453 -0.515067,-0.0253 -0.7344,0.0827 -0.34,0.164 -0.746267,0.504 -0.864534,0.87733 -0.114533,0.35734 -0.074,0.70267 0.076,0.98534 -0.02387,0.39866 -0.403066,1.136 -0.563466,1.58266 -0.145334,-0.0987 -0.280267,-0.208 -0.4448,-0.284 -0.0532,-0.028 -0.117734,-0.0347 -0.174534,0 -0.09373,0.0573 -0.169733,0.11467 -0.244266,0.16667 -0.0073,0.004 -0.014,0.009 -0.02133,0.0147 -0.0776,0.0533 -0.153066,0.10266 -0.242666,0.13866 v 0.003 c -0.0776,0.032 -0.160934,0.0587 -0.269867,0.072 -0.461467,0.0613 -0.864,-0.0147 -1.116667,-0.36533 -0.03907,-0.112 -0.0672,-0.22534 -0.116666,-0.33734 -0.04533,-0.0907 -0.180134,-0.124 -0.263467,-0.0707 -0.5152,0.30933 -0.967733,0.60933 -1.5652,0.73333 -0.453067,0.10133 -1.401467,0.0547 -1.564,-0.49867 -0.036,-0.11733 -0.171867,-0.176 -0.2792,-0.11733 -1.274933,0.71733 -3.122933,0.432 -4.1172,-0.65333 -0.038,-0.044 -0.112933,-0.0653 -0.166666,-0.0453 -0.09213,0.032 -0.126,0.064 -0.175467,0.13867 -0.1224,0.196 -0.238,0.32133 -0.419333,0.464 -0.437467,0.348 -0.960934,0.608 -1.488534,0.77467 -0.1624,0.0493 -0.4588,0.0733 -0.689066,0.0493 -0.0416,-0.016 -0.08067,-0.0293 -0.120267,-0.04 -0.171333,-0.048 -0.236933,-0.0813 -0.316133,-0.21867 -0.03907,-0.064 -0.100534,-0.0827 -0.166667,-0.10266 -0.08333,-0.024 -0.164667,0.02 -0.207867,0.0893 -0.3416,0.528 -0.906266,0.73467 -1.5192,0.73467 -0.157866,0 -0.314133,-0.0387 -0.466666,-0.0933 -0.08333,-0.028 -0.166134,-0.0613 -0.2464,-0.0987 -0.0156,-0.008 -0.03013,-0.0147 -0.0464,-0.0213 -0.1004,-0.048 -0.198934,-0.1 -0.292667,-0.14533 -0.200533,-0.10133 -0.278133,-0.228 -0.4224,-0.38533 -0.06667,-0.0747 -0.1864,-0.0653 -0.257333,0 -0.2572,0.244 -0.321867,0.54266 -0.685867,0.72266 -0.036,0.0147 -0.547867,0.184 -0.6536,0.092 -0.04013,-0.032 -0.07093,-0.13733 -0.11,-0.18266 -0.0552,-0.0547 -0.154667,-0.068 -0.2176,-0.0267 -0.1672,0.1 -0.209467,0.3 -0.337067,0.444 -0.03013,0.0347 -0.064,0.0533 -0.09787,0.0653 -0.138,-0.36666 -0.578667,-1.08266 -0.6256,-1.468 0.116266,-0.25733 0.132933,-0.564 0.01093,-0.87333 -0.1296,-0.32267 -0.506667,-0.604 -0.817067,-0.73067 -0.382933,-0.15466 -0.883333,-0.028 -1.188666,0.23467 -0.572267,0.49733 -0.5588,1.39867 0.05627,1.80267 0.1912,0.18 0.439067,0.296 0.695334,0.31466 0.219866,0.007 0.4292,-0.0373 0.6172,-0.124 0.02133,0.028 0.04893,0.0507 0.07293,0.0827 0.05413,0.0573 0.317733,0.48667 0.6016,0.89067 -0.07133,0.0853 -0.133867,0.16666 -0.214133,0.25866 -0.130667,0.15334 -0.366134,0.16 -0.5468,0.23067 -0.3204,0.13067 -0.681867,0.076 -1.025067,0.10133 -0.212,0.0147 -0.2692,0.068 -0.551067,0.0187 -0.06613,-0.0107 -0.3396,-0.216 -0.412933,-0.264 -0.145867,-0.0987 -0.295866,-0.144 -0.422933,-0.27333 -0.0688,-0.0693 -0.1604,-0.19467 -0.2656,-0.21734 -0.138133,-0.0373 -0.206267,0.0333 -0.274,0.14 -0.150533,0.23467 -0.3016,0.37867 -0.493733,0.48134 -0.2756,0.056 -0.6,0.005 -0.8328,-0.056 -0.328667,-0.0867 -0.605734,-0.25334 -0.9328,-0.0867 -0.2328,0.116 -0.0568,0.64133 -0.05573,0.79867 0.0036,0.34266 -0.430266,0.63866 -0.704666,0.748 -0.0808,0.0347 -0.1688,0.036 -0.252134,0.0573 -0.0308,-0.29067 -0.08747,-0.60133 -0.287466,-0.808 -0.360934,-0.372 -0.794267,-0.25467 -1.228667,-0.46133 -0.409467,-0.19867 -0.866667,-0.51067 -1.2256,-0.78667 -0.266667,-0.2 -0.06813,-0.70667 -0.404667,-0.832 -0.105733,-0.0413 -0.218666,-0.0493 -0.330666,-0.0467 -0.112534,-0.003 -0.231867,0.016 -0.343734,0.0467 -0.140666,0.028 -0.2792,0.0667 -0.4032,0.092 -0.246266,0.0587 -0.432266,-0.004 -0.6052,-0.0893 -0.1484,-0.0973 -0.288533,-0.2 -0.424933,-0.30934 -0.1104,-0.0907 -0.062,-0.22266 -0.06667,-0.352 -0.02667,-0.47866 -0.02293,-0.92533 -0.552133,-1.05333 -0.1984,-0.048 -0.415067,-0.024 -0.617733,0.009 -0.147867,0.0267 -0.290534,0.0547 -0.438534,0.0907 -0.199466,0.0453 -0.4432,-0.15467 -0.612533,-0.24533 -0.144267,-0.0693 -0.148933,-0.6 -0.180667,-0.744 -0.04013,-0.18267 -0.243733,-0.26667 -0.3948,-0.32267 -0.1844,-0.0693 -0.425066,0.0467 -0.602133,0.0853 -0.4968,0.10934 -0.812933,-0.32 -1.121866,-0.648 -0.180667,-0.192 -0.252534,-0.36 -0.286934,-0.56266 0.0192,-0.20934 0.01613,-0.424 -0.02347,-0.628 -0.052,-0.252 -0.192667,-0.53734 -0.4948,-0.53867 -0.05,0 -0.101067,0.007 -0.152,0.007 9.33e-4,0 0.0015,0.003 0.0031,0.004 -0.145333,0.012 -0.2916,0.032 -0.437466,0.0413 -0.352667,0.016 -0.401067,-0.376 -0.525067,-0.62933 -0.08907,-0.18534 -0.228667,-0.51334 -0.477067,-0.5 0.07867,-0.19867 0.114667,-0.44 0.153734,-0.572 0.0828,-0.272 0.06707,-0.59334 -0.0043,-0.90667 -0.1276,-0.384 -0.342133,-0.736 -0.6124,-1.05867 0.038,0.0347 0.07333,0.0733 0.110933,0.10667 0.2124,-0.001 0.423334,-0.0173 0.6328,-0.0387 0.05093,-0.004 0.103067,-0.009 0.154134,-0.016 0.202133,-0.024 0.402533,-0.0507 0.599466,-0.092 0.0063,0 0.01253,0 0.01933,-0.003 0.201466,-0.04 0.401466,-0.092 0.598933,-0.14934 0.04947,-0.0147 0.09947,-0.0293 0.147867,-0.044 0.197466,-0.0613 0.3912,-0.12666 0.582266,-0.204 v 0 c 0.2032,-0.0813 0.403734,-0.17066 0.6016,-0.27066 0.02493,-0.012 0.04787,-0.0227 0.07293,-0.036 0.06307,-0.0307 0.127067,-0.06 0.190134,-0.0947 -0.01147,0.005 -0.024,0.008 -0.036,0.012 0.559333,-0.29733 1.097466,-0.65333 1.607866,-1.06933 0.273867,-0.224 0.536934,-0.46267 0.7948,-0.70534 0.04213,-0.04 0.08427,-0.0813 0.125467,-0.12266 0.225467,-0.21334 0.443733,-0.436 0.656267,-0.664 0.0208,-0.024 0.04267,-0.0467 0.06507,-0.068 -0.0031,0.001 -0.0068,0.005 -0.0099,0.007 0.2312,-0.24933 0.457866,-0.50533 0.676,-0.76666 0.242266,-0.29334 0.483333,-0.588 0.776666,-0.83734 0.494667,-0.56133 1.0296,-1.07333 1.642134,-1.544 0.785466,-0.6 1.688,-1.11333 2.581733,-1.532 0.966133,-0.46133 1.8516,-1.09866 2.8172,-1.56933 0.8136,-0.39867 1.628133,-0.81867 2.404666,-1.29067 0.02973,-0.0173 0.05987,-0.032 0.08853,-0.0507 -0.0067,0.003 -0.014,0.005 -0.02133,0.009 0.112534,-0.0733 0.2292,-0.13867 0.341734,-0.212 0.4312,-0.268 0.952533,-0.44 1.4156,-0.65467 0.491066,-0.228 0.9036,-0.58 1.378666,-0.844 0.825467,-0.456 1.638,-0.90266 2.383867,-1.48933 0.368133,-0.288 0.657733,-0.672 0.959333,-1.0240004 0.222934,-0.26133 0.4484,-0.61867 0.388534,-0.96933 -0.0104,-0.0533 -0.05267,-0.08 -0.1016,-0.0853 -0.0057,0 -0.0104,-0.005 -0.01613,-0.005 -0.283866,-0.012 -0.5724,-0.008 -0.8484,-0.0853 -0.159866,-0.0387 -0.308933,-0.0707 -0.462,-0.092 0.0027,-10e-4 0.0052,-10e-4 0.0084,-10e-4 -0.08867,-0.016 -0.1724,-0.024 -0.266266,-0.0267 -0.177067,0.003 -0.338,0.096 -0.481734,0.18133 -0.335866,0.20533 -0.5948,0.36133 -1.002,0.356 -0.0084,0 -0.01627,0 -0.024,0 0.0031,0 0.0052,0 0.0077,0.001 -0.230667,10e-4 -0.466134,0.0533 -0.664,0.16934 0.0036,-0.005 0.0057,-0.0133 0.0088,-0.016 -0.02707,0.0133 -0.052,0.036 -0.07813,0.056 -0.01613,0.0107 -0.03227,0.0213 -0.04787,0.0347 -0.06453,0.0533 -0.127067,0.11467 -0.174934,0.19067 -0.156266,0.23867 -0.2376,0.5226704 -0.426666,0.7440004 -0.164,0.196 -0.9088,0.0747 -1.152534,0.0293 -0.08133,-0.016 -0.1708,-0.024 -0.262,-0.0293 -0.02547,-0.003 -0.04893,-0.001 -0.074,-0.001 -0.0396,-10e-4 -0.07907,-0.005 -0.118666,-10e-4 0.0052,10e-4 0.0088,0.004 0.01347,0.005 -0.2568,0.0133 -0.514533,0.0707 -0.702533,0.22133 -0.206267,0.16933 -0.402667,0.352 -0.557867,0.568 -0.02867,0.04 -0.05733,0.0813 -0.08547,0.124 v 0 c -0.028,0.0373 -0.0556,0.076 -0.08427,0.116 -0.03187,0.044 -0.06413,0.0853 -0.098,0.12533 -0.02027,0.024 -0.0396,0.0467 -0.0604,0.0693 -0.03693,0.0427 -0.0792,0.0787 -0.120267,0.112 -0.0208,0.0187 -0.04013,0.036 -0.06093,0.0533 -0.06613,0.0453 -0.138,0.084 -0.2204,0.11333 -0.0484,0.016 -0.09947,0.0213 -0.149466,0.0227 -0.01813,0 -0.03693,-0.001 -0.05627,-0.004 -0.03333,-10e-4 -0.0676,-0.005 -0.100933,-0.0133 -0.02093,-0.003 -0.0428,-0.005 -0.062,-0.012 -0.0208,-0.004 -0.04173,-0.0107 -0.06253,-0.0173 -0.0292,-0.008 -0.05933,-0.0173 -0.088,-0.0267 0.0041,0.003 0.0073,0.004 0.0104,0.005 -0.2932,-0.0907 -0.590666,-0.21867 -0.839066,0.004 -0.156267,0.13733 -0.307334,0.268 -0.4688,0.39333 -0.1452,0.0827 -0.288,0.16667 -0.436934,0.23067 -0.0464,0.02 -0.0916,0.0387 -0.138,0.0547 -0.0073,10e-4 -0.0136,0.003 -0.0208,0.005 -0.038,0.012 -0.07613,0.02 -0.1156,0.0293 -0.0152,0.004 -0.03027,0.008 -0.04587,0.012 -0.03227,0.005 -0.0656,0.008 -0.09893,0.009 -0.02093,0 -0.04067,0.004 -0.06093,0.004 -0.0516,0.003 -0.105333,-0.003 -0.160533,-0.008 -0.302,-0.044 -0.588,-0.25067 -0.895734,-0.24934 -0.224,0 -0.422933,0.0853 -0.609466,0.19867 -0.1172,0.0693 -0.3176,0.25867 -0.524934,0.41067 -0.01147,0.008 -0.0224,0.0147 -0.0328,0.0227 -0.03707,0.0267 -0.07453,0.0507 -0.111466,0.0733 -0.01827,0.0107 -0.03493,0.0227 -0.0532,0.0307 -0.03227,0.0173 -0.064,0.032 -0.09573,0.0467 -0.01773,0.007 -0.03493,0.0147 -0.05213,0.02 -0.03333,0.012 -0.06453,0.016 -0.09533,0.0187 -0.014,0.003 -0.02707,0.007 -0.04013,0.007 -0.0416,-0.001 -0.0828,-0.0107 -0.118133,-0.0307 -0.3448,-0.21067 -0.724533,-0.24934 -1.062533,-0.0533 0,0 -0.0011,0 -0.0021,0 -0.06507,0.04 -0.1296,0.0813 -0.192133,0.14 -0.0724,0.0693 -0.1688,0.14134 -0.2208,0.22934 -0.139067,0.23333 -0.419867,-0.0813 -0.506267,-0.15334 -0.06467,-0.0573 -0.1344,-0.10133 -0.2052,-0.144 -0.0021,-10e-4 -0.0047,-0.004 -0.0052,-0.004 0,0 0,0 5.34e-4,0.003 -0.03547,-0.0213 -0.07293,-0.0427 -0.110534,-0.0613 5.34e-4,0 0.0011,0 0.0011,0 -0.0348,-0.0173 -0.07293,-0.0293 -0.111467,-0.0427 0.5604,-0.42133 1.152667,-0.804 1.741734,-1.18267 0.158266,-0.104 0.3172,-0.196 0.473866,-0.29733 -0.0025,0.003 -0.0047,0.004 -0.0061,0.004 0.2228,-0.14 0.446267,-0.28 0.6724,-0.416 0.0484,-0.028 0.0968,-0.056 0.1448,-0.0853 0.2984,-0.17734 0.5968,-0.35467 0.8984,-0.524 0.210933,-0.12 0.423867,-0.23467 0.636933,-0.35067 0.140667,-0.076 0.280267,-0.1560004 0.421867,-0.2320004 0.364667,-0.19333 0.732267,-0.38133 1.105733,-0.56533 1.468267,-0.72134 2.952667,-1.28534 4.521333,-1.748 0.6828,-0.19867 1.325067,-0.50667 2.002134,-0.72267 0.190133,-0.06 0.3828,-0.112 0.576533,-0.15867 0.174533,-0.0427 0.351067,-0.0827 0.528133,-0.116 -0.0025,0 -0.0047,0 -0.0068,0 0.03387,-0.007 0.06773,-0.0147 0.101067,-0.0213 0.275067,-0.0533 0.5604,-0.036 0.824,-0.112 0.0077,0.008 0.01827,0.016 0.0292,0.0253 0.08373,0.0973 0.2604,-0.0347 0.182267,-0.14133 -0.01093,-0.016 -0.02347,-0.0253 -0.036,-0.0373 0.0016,0 0.0021,0 0.0021,0 -0.0041,-0.007 -0.0099,-0.009 -0.01467,-0.0133 -0.0276,-0.0333 -0.05933,-0.064 -0.09107,-0.0907 -0.0036,-0.004 -0.0093,-0.005 -0.0136,-0.009 -0.0364,-0.028 -0.07293,-0.0533 -0.112,-0.0733 -0.0025,-0.003 -0.0052,-0.004 -0.0077,-0.005 -0.1932,-0.104 -0.424,-0.15067 -0.6464,-0.19734 -0.0792,-0.0173 -0.1568,-0.0347 -0.2312,-0.0533 -0.684933,-0.16933 -1.408933,-0.16667 -2.102133,-0.27867 -1.343733,-0.208 -2.714,-0.21733 -4.067733,-0.14533 -1.166667,0.0693 -2.331733,0.28 -3.473333,0.536 -0.05053,-0.0453 -0.1584,-0.036 -0.1724,0.04 -0.1172,0.0267 -0.234934,0.0507 -0.350534,0.0787 -1.354666,0.32133 -2.546933,0.992 -3.763066,1.636 -0.237467,0.12666 -0.486934,0.23333 -0.728667,0.35466 -0.268667,0.14134 -0.477067,0.34267 -0.727067,0.51467 -0.424933,0.296 -0.848933,0.6 -1.274,0.89733 0,-0.003 5.34e-4,-0.004 5.34e-4,-0.004 -0.08387,0.06 -0.165067,0.11734 -0.247867,0.176 -0.294267,0.19467 -0.604667,0.32934 -0.8568,0.5426704 -0.09107,-0.084 -0.112933,-0.192 -0.242667,-0.2680004 -0.0312,-0.0187 -0.0756,-0.02 -0.1032,-0.004 -0.114533,0.084 -0.194266,0.1933304 -0.286933,0.2920004 -0.404133,0.26533 -0.713066,0.60133 -1.070266,0.952 -0.532267,0.52533 -1.018267,1.08933 -1.424,1.71733 -0.762534,1.18667 -1.2448,2.51067 -1.7792,3.8 -0.1088,0.26534 -0.2172,0.52667 -0.333867,0.784 -0.547333,1.21467 -1.066133,2.49867 -2.042667,3.40534 -0.04427,0.0413 -0.08747,0.084 -0.1344,0.124 -0.136933,0.116 -0.278133,0.228 -0.433333,0.328 -0.148933,0.10266 -0.301067,0.20666 -0.4724,0.304 -0.234267,0.13733 -0.6552,0.36133 -0.599467,0.7 0.01413,0.0973 0.05627,0.18 0.105734,0.25733 -0.166667,-0.0627 -0.3364,-0.092 -0.510934,-0.0387 -0.343733,0.1 -0.4552,0.52134 -0.521866,0.83067 -0.04947,0.24933 -0.08853,0.50667 -0.1,0.76133 -0.04533,0.95334 0.05053,1.92267 0.329733,2.84 0.1244,0.41334 0.252533,0.84267 0.457733,1.22667 0.0844,0.15333 0.173467,0.33333 0.313067,0.44667 0.225467,0.192 0.412,0.17066 0.6088,0.0813 -0.04893,0.0773 -0.09267,0.16267 -0.1296,0.25733 -0.148933,0.37867 -0.0672,0.89334 0.0224,1.28 0.102533,0.44267 0.3416,0.88267 0.530133,1.29734 0.252134,0.56 0.541734,1.10933 0.8604,1.63866 0.528134,0.876 1.1412,1.72667 1.751067,2.55067 0.625067,0.84933 1.408933,1.59467 2.099467,2.38533 0.723466,0.82534 1.469866,1.62267 2.303199,2.34267 1.023467,0.88933 2.146267,1.884 3.415067,2.48667 -0.308267,0.24533 -0.619733,0.48533 -0.932267,0.72933 -1.932266,-0.57867 -3.960399,-0.78533 -5.977599,-1.024 -0.126,-0.0147 -0.2532,-0.0307 -0.3808,-0.0453 -0.09053,-0.0107 -0.1828,-0.0213 -0.274934,-0.0347 -0.286933,-0.036 -0.5756,-0.0733 -0.862,-0.11333 -0.436,0.0373 -0.922933,-0.104 -1.304133,-0.20934 -0.419867,-0.116 -0.843733,-0.21466 -1.2808,-0.23066 -0.1416,-0.004 -0.277067,0.0227 -0.404133,0.0613 -0.107867,0.068 -0.229734,0.13733 -0.384934,0.176 -0.04053,0.012 -0.08587,0.0213 -0.127066,0.0347 -0.1072,0.0453 -0.210934,0.0947 -0.319734,0.132 -0.08027,0.028 -0.166133,0.044 -0.25,0.06 -0.03227,0.005 -0.0636,0.0133 -0.09587,0.02 -0.03173,0.005 -0.0688,0.0133 -0.1036,0.0227 -0.0021,-0.0947 -0.01,-0.18266 -0.01827,-0.26933 -0.0031,-0.0227 -0.0079,-0.0453 -0.01613,-0.0667 0,0 -5.34e-4,10e-4 -0.0016,0.003 -0.0041,-0.0133 -0.0063,-0.0267 -0.01253,-0.04 l -5.33e-4,-10e-4 v 0 c -0.0056,-0.0133 -0.01613,-0.0293 -0.0244,-0.0427 -0.0099,-0.0147 -0.01773,-0.0307 -0.0276,-0.0453 l -0.0052,-0.008 c -0.0011,-0.001 -0.0027,-0.001 -0.0027,-0.001 -0.01293,-0.016 -0.02707,-0.0307 -0.0416,-0.0467 -0.0095,-0.0107 -0.0172,-0.0213 -0.02867,-0.032 l -0.0036,-10e-4 c -0.0016,-0.001 -0.0037,-0.003 -0.0048,-0.005 -0.02387,-0.0227 -0.05147,-0.0453 -0.07853,-0.0653 -0.0048,-0.004 -0.0079,-0.009 -0.01253,-0.009 v 0 h -5.33e-4 5.33e-4 c -0.0021,-0.004 -0.0037,-0.005 -0.0073,-0.007 -0.09947,-0.0747 -0.210934,-0.14 -0.308267,-0.19734 -0.05627,-0.0333 -0.108933,-0.0653 -0.150533,-0.092 -0.323467,-0.21733 -0.6876,-0.444 -1.0344,-0.61466 -0.917734,-0.44534 -2.035467,-0.95334 -3.030267,-1.33734 -0.0848,-0.0347 -0.175466,-0.0667 -0.266133,-0.0973 -0.014,-0.007 -0.02907,-0.0107 -0.04373,-0.0147 -0.074,-0.028 -0.150534,-0.0493 -0.226534,-0.072 -0.02453,-0.005 -0.04947,-0.0133 -0.07347,-0.0187 -0.07027,-0.02 -0.140667,-0.036 -0.212534,-0.0507 -0.026,-0.005 -0.05147,-0.0133 -0.07853,-0.0173 -0.08707,-0.0147 -0.175067,-0.0293 -0.262,-0.0373 -0.04067,-0.005 -0.08227,-0.005 -0.1224,-0.007 -0.04947,-0.003 -0.098,-0.005 -0.147467,-0.003 -0.04733,0 -0.09373,0.003 -0.140533,0.007 -0.0448,0.003 -0.08853,0.009 -0.132933,0.016 -0.04627,0.009 -0.09053,0.0147 -0.135334,0.024 -0.0073,10e-4 -0.01467,0.003 -0.02133,0.003 0.01093,-0.04 0.01667,-0.0853 0.01867,-0.13333 0.0011,-0.003 0.0021,-0.009 0.0021,-0.009 5.33e-4,-0.0533 -0.0021,-0.104 -0.012,-0.16 -0.0036,-0.032 -0.014,-0.0653 -0.02493,-0.0907 -0.0052,-0.0173 -0.0152,-0.032 -0.02187,-0.0467 -0.01573,-0.0387 -0.02973,-0.076 -0.05,-0.11066 -0.01627,-0.0267 -0.03293,-0.0507 -0.05053,-0.0747 -0.02187,-0.032 -0.04333,-0.0613 -0.06987,-0.0907 -0.0208,-0.024 -0.0468,-0.0493 -0.0724,-0.0707 -0.02547,-0.024 -0.05,-0.0493 -0.0792,-0.0707 -0.03227,-0.028 -0.06667,-0.0493 -0.101467,-0.0733 -0.02453,-0.016 -0.04747,-0.0333 -0.07187,-0.0493 -0.05053,-0.032 -0.1032,-0.0613 -0.154667,-0.0893 -0.012,-0.005 -0.02147,-0.0107 -0.03187,-0.016 -0.201066,-0.104 -0.411466,-0.19067 -0.587466,-0.276 -1.4088,-0.68533 -2.512534,-1.65867 -3.581254,-2.78 -0.493226,-0.52133 -0.990626,-1.02533 -1.495826,-1.528 -0.543001,-0.53107 -0.924774,-1.19107 -1.4143607,-1.76307 -0.043227,-0.0507 -0.091147,-0.108 -0.1411467,-0.168 -0.017707,-0.02 -0.034893,-0.0413 -0.05312,-0.0627 -0.0224,-0.024 -0.04584,-0.0507 -0.068747,-0.0733 -0.014067,-0.0173 -0.027093,-0.032 -0.04324,-0.0467 -0.023427,-0.0253 -0.04896,-0.048 -0.07396,-0.0707 -0.014053,-0.0133 -0.02968,-0.028 -0.044267,-0.0413 -0.02604,-0.0227 -0.0526,-0.0427 -0.07968,-0.06 -0.015107,-0.0107 -0.031253,-0.024 -0.04688,-0.0333 -0.0276,-0.016 -0.054693,-0.032 -0.084893,-0.0453 -0.016147,-0.009 -0.033853,-0.016 -0.05052,-0.024 -0.029693,-0.009 -0.058333,-0.0173 -0.087507,-0.0253 -0.019267,-0.003 -0.038533,-0.005 -0.057813,-0.008 -0.02916,-0.004 -0.057293,-0.004 -0.088013,0 -0.010427,0 -0.01928,-0.004 -0.029693,-0.003 0.00313,-0.007 0.00781,-0.0147 0.010933,-0.0213 -5.2e-4,0 -0.00156,0 -0.00312,0 0.00521,-0.012 0.00885,-0.024 0.013027,-0.0347 0.0052,-0.0173 0.011973,-0.0293 0.016667,-0.044 0.00468,-0.0133 0.00989,-0.0267 0.014573,-0.04 -0.00104,0.003 -0.00156,0.003 -0.0026,0.005 0,0 0.00104,-0.003 0.00156,-0.005 h 0.00104 c 0.02448,-0.088 0.042187,-0.17733 0.055213,-0.26933 0.00573,-0.036 0.00781,-0.072 0.010933,-0.11067 0.00781,-0.0733 0.013027,-0.15067 0.014587,-0.22933 0.00104,-0.0413 0.00156,-0.0827 0.00104,-0.12267 -0.0026,-0.11467 -0.00781,-0.23333 -0.020827,-0.35333 -0.1020934,-0.96534 -0.3682267,-1.868 -0.77448,-2.74667 -0.29844,-0.644 -0.02448,-1.22933 -0.1822933,-1.88 -0.17032,-0.688 -0.35312,-1.37333 -0.4869867,-2.07067 -0.125,-0.61066 -0.38124,-1.21466 -0.57968,-1.80533 -0.00729,-0.024 -0.018227,-0.0533 -0.030733,-0.0813 v -0.007 c -0.011973,-0.0293 -0.02396,-0.0573 -0.038013,-0.0907 -0.00209,-0.003 -0.00365,-0.004 -0.00521,-0.008 -0.030733,-0.0653 -0.067187,-0.12933 -0.1104133,-0.184 -0.00521,-0.005 -0.00937,-0.012 -0.014587,-0.0173 -0.017187,-0.0173 -0.035933,-0.036 -0.05416,-0.0507 -0.00677,-0.005 -0.013027,-0.012 -0.0198,-0.0173 -0.010933,-0.005 -0.021867,-0.0107 -0.032813,-0.0173 v 0 c -0.00156,0 -0.00364,0 -0.0052,-0.001 -0.011987,-0.005 -0.02292,-0.0107 -0.035427,-0.0147 -0.00208,0 -0.00312,-0.003 -0.00572,-0.003 -0.00209,0 -0.00313,-10e-4 -0.00573,-10e-4 -0.00417,0 -0.00625,0 -0.010413,0 -0.014587,-0.003 -0.030733,-0.003 -0.042707,-0.003 -0.00261,0 -0.00417,0.001 -0.00573,0.001 -0.00781,0 -0.015107,0.003 -0.02292,0.005 -0.00781,0 -0.013533,10e-4 -0.021867,0.005 -0.00209,0 -0.00261,0 -0.00521,0.001 -0.0026,0 -0.00521,0 -0.00781,10e-4 -0.00312,0 -0.00677,0.007 -0.00989,0.003 v 0 c -0.02396,0.012 -0.04896,0.0227 -0.075,0.044 -0.39428,0.29334 -0.50052,0.92267 -0.57084,1.37734 -0.05052,0.33333 -0.2453066,1.172 -0.4343733,1.94533 -0.00364,0.0147 -0.00781,0.0333 -0.011453,0.0493 -0.00989,0.04 -0.0198,0.0773 -0.029173,0.116 -0.1374933,0.55734 -0.2682266,1.056 -0.32968,1.27467 -0.1567733,0.54267 -0.3828133,1.13333 -0.4177066,1.69067 -0.01928,0.288 0.10208,0.612 0.1645733,0.88533 0.061987,0.284 0.1224,0.56933 0.19792,0.852 0.17708,0.656 0.2583333,1.32533 0.37344,1.98933 0.1171867,0.63334 0.2130133,1.26934 0.27812,1.90934 0.033333,0.328 0.45104,0.416 0.7166666,0.42666 0.067707,0.003 0.1338534,0.007 0.1974,0.008 -0.042187,0.084 -0.079173,0.168 -0.1104133,0.25067 -0.00625,0.0133 -0.00885,0.028 -0.013027,0.04 -0.02552,0.0733 -0.045307,0.148 -0.059373,0.22133 -0.00521,0.028 -0.00781,0.052 -0.012493,0.0787 -0.00833,0.0653 -0.011467,0.12933 -0.00991,0.19333 0,0.028 0,0.0507 0.00157,0.0787 0.00833,0.0853 0.022907,0.172 0.05312,0.256 0.30416,0.828 1.10052,1.42267 1.7109333,2.01867 0.067707,0.0627 0.1348934,0.13733 0.19948,0.20266 0.17136,0.22667 0.3552133,0.44267 0.5135467,0.64934 0.4187466,0.53733 0.6942666,1.15066 1.166146,1.66133 0.85156,0.91467 2.05416,1.40667 3.216667,1.80533 0.6318,0.21867 1.289533,0.34667 1.924467,0.54667 0.036,0.012 0.07293,0.0253 0.1104,0.04 -0.0011,0 -0.002,0 -0.002,0 0.182266,0.0627 0.380666,0.14533 0.5796,0.20267 0.0073,0.003 0.01413,0.004 0.0204,0.007 0.052,0.0133 0.102533,0.0267 0.1552,0.0373 0.0093,0 0.0192,0.004 0.0296,0.005 0.0516,0.009 0.1016,0.0147 0.152666,0.0187 0.0088,10e-4 0.01867,0.003 0.02707,0.003 0.05307,0.003 0.106267,0 0.157867,-0.007 0.0061,0 0.01187,0 0.01867,0 0.0584,-0.009 0.115067,-0.02 0.171867,-0.0427 0.146933,-0.0547 0.255733,-0.21333 0.343733,-0.404 0.04747,0.18133 0.09853,0.34933 0.138534,0.48 0.114133,0.37467 0.1584,0.63467 0.5,0.876 0.2776,0.19333 0.645333,0.28 0.9808,0.36267 0.0057,0.0173 0.0093,0.0347 0.0192,0.0467 0.03133,0.0547 0.09067,0.0307 0.117733,-0.009 0.01613,0.001 0.03387,0.007 0.05,0.0107 0.981333,0.27466 1.971333,0.54799 2.978666,0.71599 -0.0025,0 -0.0052,0.003 -0.0083,0.003 0.0296,0.004 0.06453,0.0107 0.0932,0.0147 0.328666,0.0533 0.745866,0.15333 1.076,0.016 0.0079,0.0173 0.01253,0.032 0.02187,0.0507 0.09067,0.15067 0.2328,0.208 0.3776,0.28267 0.2308,0.11467 0.496934,0.20667 0.736534,0.292 0.252533,0.0853 0.504666,0.17467 0.754666,0.268 -0.0021,0 -0.0047,0 -0.0057,0 0.125467,0.048 0.257733,0.096 0.3828,0.14533 1.260933,0.528 2.514533,1.09334 3.8208,1.508 0.649467,0.20267 1.304667,0.40534 1.9448,0.64534 0.2016,0.0733 0.419867,0.10266 0.6412,0.10933 -0.752133,0.552 -1.526667,1.07733 -2.3052,1.588 -0.09947,0.088 -0.1948,0.18267 -0.299067,0.264 -0.6588,0.55067 -1.3624,1.14267 -2.1228,1.54 -0.726133,0.38933 -1.51,0.47467 -2.319866,0.55733 -0.3672,0.0413 -1.570267,-0.048 -1.6312,0.524 -0.0204,0.17734 0.133333,0.29867 0.3552,0.38134 -0.09427,0.032 -0.188534,0.0653 -0.2844,0.0973 -0.2912,0.0973 -0.586,0.18267 -0.890134,0.22267 v -0.001 c -0.153066,-0.16133 -0.314533,-0.312 -0.480133,-0.45866 -0.0276,-0.0227 -0.05467,-0.0467 -0.0824,-0.0693 -0.334267,-0.28266 -0.6952,-0.53066 -1.085867,-0.74533 -0.03747,-0.02 -0.07547,-0.04 -0.1136,-0.0613 -0.1968,-0.10267 -0.398933,-0.2 -0.612399,-0.288 -1.4844,-0.59867 -3.010934,-1.11467 -4.552134,-1.53867 -0.705733,-0.19867 -1.400533,-0.46667 -2.12292,-0.60267 -0.325,-0.0587 -0.936973,-0.22933 -1.107813,0.20667 -0.0042,0.0173 -0.0078,0.0333 -0.01301,0.0547 -0.52708,-0.41467 -1.111987,-0.77467 -1.663547,-1.148 -0.708853,-0.47867 -1.4927064,-0.84934 -2.213013,-1.316 -0.6567733,-0.424 -1.22136,-0.956 -1.84844,-1.41467 -0.5015599,-0.37333 -0.9822933,-0.80667 -1.6499999,-0.76533 -0.07396,0.005 -0.1416667,0.0227 -0.2083333,0.0467 -0.00261,0 -0.00469,0 -0.00781,0 -0.00208,0 -0.00417,-0.004 -0.00469,-0.004 l -0.015107,-0.0147 c -0.0052,-0.003 -0.010413,-0.005 -0.015093,-0.009 -0.00885,-0.008 -0.01824,-0.0147 -0.026573,-0.0213 -0.0078,-0.008 -0.014053,-0.0147 -0.021347,-0.02 -0.00417,-0.003 -0.00573,-0.005 -0.00989,-0.009 -0.06876,-0.0533 -0.1302134,-0.10534 -0.1770934,-0.14267 0.00781,-0.016 0.015107,-0.032 0.02292,-0.048 0.013027,-0.028 0.02656,-0.052 0.038547,-0.084 0.011453,-0.028 0.020827,-0.06 0.02968,-0.0947 0.00677,-0.0227 0.014587,-0.044 0.0198,-0.068 0.00885,-0.0373 0.013013,-0.076 0.019267,-0.116 0.0026,-0.016 0.00677,-0.0347 0.00937,-0.0507 0.00521,-0.0573 0.00521,-0.10934 0.00104,-0.156 -0.060413,-0.63333 -0.4828133,-1.13467 -0.7661467,-1.688 -0.3546799,-0.68533 -0.5369733,-1.45067 -0.8234266,-2.16533 -0.2864667,-0.708 -0.5520933,-1.42534 -0.8838533,-2.10934 -0.02396,-0.052 -0.04844,-0.11066 -0.07396,-0.17333 -0.14636,-0.35467 -0.31824,-0.86133 -0.5812547,-1.19867 -0.0125,-0.016 -0.027084,-0.0293 -0.040625,-0.048 -0.023437,-0.0253 -0.045312,-0.0547 -0.070833,-0.08 -0.015104,-0.0133 -0.032812,-0.0267 -0.0489587,-0.04 -0.0135413,-0.012 -0.028124,-0.0227 -0.0416667,-0.0347 -0.0140627,-0.012 -0.028124,-0.0227 -0.0416667,-0.032 -0.002083,0 -0.002604,-0.003 -0.002604,-0.003 -0.0416667,-0.028 -0.0817707,-0.052 -0.12812533,-0.0667 -0.01302,-0.012 -0.0286453,-0.009 -0.0463533,-0.0133 0.001563,0 0.001563,0.003 0.002604,0.003 -0.14583333,-0.0427 -0.27135466,-0.007 -0.37239599,0.0773 0,0 0,-10e-4 5.2133e-4,-10e-4 -0.006251,0.005 -0.0114587,0.0147 -0.0192707,0.02 -0.0291667,0.028 -0.0578133,0.056 -0.0828133,0.0907 -0.0156253,0.0213 -0.0296867,0.0427 -0.042708,0.064 -0.014584,0.0253 -0.027604,0.048 -0.0411453,0.0733 -0.0135427,0.028 -0.0265632,0.0547 -0.0385423,0.0827 -0.008854,0.0227 -0.01614586,0.0467 -0.0239584,0.0667 -0.0098959,0.0307 -0.02031253,0.0573 -0.02760413,0.0867 -0.0119792,0.0507 -0.02239586,0.1 -0.02760413,0.14533 -0.0807292,0.73733 0.02135413,1.54267 0.07708333,2.28267 0.0614589,0.77866 0.23385359,1.54666 0.32239626,2.32133 0.0968747,0.83467 0.26718666,1.66267 0.40624932,2.49066 0.0989587,0.6 0.16145867,1.47734 0.57291607,1.964 0.4447867,0.52934 0.97604,1.26134 1.6322933,1.65067 0.00625,0.0507 0.011453,0.1 0.02136,0.148 0.00572,0.0253 0.013533,0.048 0.018747,0.0733 0.018227,0.0747 0.041667,0.14667 0.071867,0.212 0.00885,0.0213 0.015627,0.0413 0.02552,0.0613 0.040107,0.0787 0.088547,0.152 0.14584,0.22133 0.016147,0.0173 0.032293,0.036 0.04844,0.0547 0.065107,0.0653 0.1369733,0.13066 0.225,0.184 2.6723865,1.644 5.4416665,3.272 8.4791603,4.11333 0.443226,0.12533 0.9948,0.34533 1.44692,0.192 0.2104,0.37067 0.443733,0.708 0.821866,0.98533 0.5348,0.38534 1.088,0.58267 1.731734,0.73067 0.745866,0.17333 1.503066,0.188 2.2584,0.27733 0.7452,0.084 1.426,0.28 2.151999,0.44934 0.472934,0.112 1.008934,0.13066 1.454134,-0.0147 0.06307,0.0653 0.1276,0.12933 0.201066,0.18133 h -5.33e-4 c 0.0063,0.004 0.01307,0.0107 0.0172,0.0147 0.200533,0.13867 0.4204,0.23067 0.652133,0.29867 0.714,0.20133 1.544267,0.11333 2.245334,0.0893 1.577066,-0.0653 3.106266,-0.36133 4.6724,-0.50267 0.85,-0.0773 1.709866,-0.0493 2.565066,-0.076 0.886934,-0.0267 1.8224,-0.0467 2.689067,0.18667 0.129733,0.0333 0.3292,0.092 0.5312,0.11733 0.148533,0.096 0.2948,0.196 0.440133,0.296 -0.0016,0 -0.0031,0 -0.0047,0 0.374534,0.26 0.7412,0.53334 1.0932,0.81734 0.02453,0.02 0.0464,0.0413 0.06987,0.0587 -0.074,0.0227 -0.147467,0.0453 -0.220933,0.0667 -0.0031,10e-4 -0.0031,10e-4 -0.0067,0.004 -0.1876,0.0587 -0.374,0.12133 -0.560933,0.18267 -0.109467,0.0347 -0.220934,0.0693 -0.331867,0.10266 -0.02653,0.0107 -0.0536,0.0213 -0.0812,0.0307 -0.0052,0.003 -0.01093,0.003 -0.0156,0.004 -0.2704,0.092 -0.5448,0.18933 -0.8136,0.28533 -0.062,0.0213 -0.121867,0.0467 -0.1864,0.0707 -0.0344,0.009 -0.07133,0.0267 -0.11,0.0427 0.0063,-10e-4 0.01307,-10e-4 0.01987,-10e-4 -0.2032,0.076 -0.408934,0.144 -0.611467,0.22134 -1.2,0.468 -2.377066,0.99466 -3.514133,1.57466 -0.938933,0.484 -1.9036,0.96134 -2.964533,1.10934 -0.186934,0.028 -0.941067,-0.12267 -1.054667,0.168 -0.024,0.0627 -0.0312,0.132 -0.03173,0.20933 0,0 0,0.007 0,0.009 0,0.0773 0.0099,0.156 0.02653,0.23867 -0.1136,0.0693 -0.217733,0.15333 -0.324533,0.232 -0.05107,0.04 -0.1072,0.0733 -0.1552,0.11467 -0.09587,0.0773 -0.1844,0.16666 -0.273867,0.25333 -0.062,0.06 -0.126133,0.11333 -0.186,0.176 -0.06253,0.064 -0.120267,0.13733 -0.180667,0.208 -0.07973,0.0907 -0.160533,0.18 -0.234933,0.27333 -0.01933,0.0253 -0.036,0.0507 -0.05373,0.0747 -0.6276,0.81467 -1.130134,1.764 -1.656667,2.58267 -0.710933,1.09866 -1.407867,2.20933 -2.053733,3.356 -0.326,0.576 -0.6432,1.16533 -0.937467,1.76533 -0.0448,0.0867 -0.09267,0.18267 -0.135867,0.28133 -0.151066,0.32267 -0.271466,0.66667 -0.231333,1.01067 v 0.009 0 c -0.08907,-0.0493 -0.164533,-0.008 -0.225467,0.072 -0.0011,10e-4 -0.0016,10e-4 -0.0032,0.003 -0.0192,0.028 -0.03747,0.0547 -0.05467,0.088 -0.0016,0.003 -0.0016,0.005 -0.0036,0.007 -0.0156,0.0307 -0.03027,0.0627 -0.04427,0.096 v 0.003 c -0.01307,0.0307 -0.02293,0.0613 -0.03333,0.0893 -0.0032,0.009 -0.0057,0.0173 -0.0084,0.0267 -0.0077,0.0227 -0.014,0.048 -0.0208,0.0667 -0.0031,0.012 -0.0052,0.0213 -0.0073,0.0293 -0.0057,0.02 -0.0104,0.0373 -0.01347,0.0493 -0.1156,0.51466 -0.1568,1.04266 -0.187467,1.568 -0.05373,0.85466 -0.1844,1.69733 -0.3256,2.53733 -0.06293,0.36267 -0.122933,0.73333 -0.184933,1.10267 -0.2224,1.38666 -0.3968,2.81866 -0.2276,4.20533 -0.014,0.009 -0.02333,0.0267 -0.02133,0.048 0.142266,0.84933 0.381866,1.67867 0.708933,2.47467 0.01973,0.0427 0.0796,0.0307 0.102,-0.005 0.086,0.20534 0.169867,0.40667 0.248,0.61467 0.254666,0.688 0.492133,1.41333 0.8052,2.072 0.0468,0.0987 0.179066,0.16933 0.283866,0.112 0.341067,-0.18667 0.584267,-0.68267 0.739067,-1.104 0.01507,-0.0413 0.0276,-0.0787 0.04,-0.11733 0.0084,-0.0187 0.0152,-0.04 0.02187,-0.0613 0.0204,-0.0573 0.03867,-0.11333 0.05427,-0.168 0.3036,-1.004 0.383867,-2.06133 0.492667,-3.104 0.04693,-0.464 0.131733,-0.924 0.225067,-1.38666 0.157733,-0.744 0.3276,-1.48 0.422266,-2.23734 0.04747,-0.384 0.07667,-0.776 0.07667,-1.164 0.0063,-0.72933 -0.08187,-1.41466 -0.260933,-2.11866 -0.07973,-0.3 -0.149467,-0.67334 -0.376134,-0.904 -0.0348,-0.032 -0.07293,-0.0547 -0.111466,-0.0787 0.693866,-0.112 0.6396,-1.064 0.778666,-1.584 0.0932,-0.364 0.214667,-0.72533 0.364134,-1.068 0.373466,-0.87867 0.890133,-1.692 1.483866,-2.436 1.028134,-1.29067 2.4948,-2.14533 3.484267,-3.46 0.345867,-0.456 0.635467,-0.96133 0.8568,-1.48667 0.133333,-0.31466 0.2052,-0.648 0.310933,-0.97066 0.02707,0.028 0.05267,0.0613 0.08133,0.0827 0.321866,0.32534 0.933866,0.132 1.318133,0.0547 0.569867,-0.11067 1.1412,-0.21467 1.708933,-0.33467 2.512,-0.52 4.852,-1.47066 7.312,-2.172 0.265067,-0.0747 0.6072,-0.128 0.893733,-0.23066 0.08907,0.112 0.1776,0.22133 0.263467,0.33866 0.0027,0.0213 0.0095,0.0427 0.012,0.0653 0.0063,0.0413 0.01307,0.0773 0.01507,0.11466 0.01093,0.0693 0.01667,0.14134 0.02187,0.20934 0,0 0,10e-4 5.34e-4,10e-4 0.0027,0.0293 0.0073,0.0613 0.01,0.0907 0.0031,0.0307 0.0041,0.06 0.0057,0.092 0.0077,0.112 0.01347,0.228 0.01667,0.34266 0,0.0173 9.33e-4,0.0347 9.33e-4,0.052 0.0021,0.12534 0.0032,0.252 0.0021,0.37734 -0.0011,0.012 0,0.0253 -0.0011,0.036 -0.0068,0.44933 -0.0344,0.90266 -0.04733,1.35333 -0.0021,0.0747 -0.0043,0.15067 -0.0063,0.22533 0,0.0573 -0.0021,0.11467 -0.0021,0.172 -0.002,0.16667 0,0.33334 0.0052,0.49867 -0.0083,0.0147 -0.0192,0.028 -0.02907,0.04 -0.062,0.08 -0.1272,0.156 -0.196934,0.228 -0.0156,0.0173 -0.03173,0.0347 -0.04693,0.0493 -0.0864,0.0853 -0.178133,0.16667 -0.278533,0.24 -0.9152,0.68667 -2.119867,0.85334 -3.1876,1.17067 -1.387467,0.41067 -2.680134,1.04933 -3.863467,1.87867 -0.533333,0.36933 -1.063066,0.80133 -1.440666,1.336 -0.03747,0.0547 -0.06973,0.10933 -0.09733,0.16266 -0.0095,0.0173 -0.01573,0.036 -0.0256,0.052 -0.01667,0.04 -0.03333,0.0773 -0.04587,0.116 -0.0057,0.0147 -0.0088,0.028 -0.0124,0.0427 -0.0308,0.10533 -0.04373,0.21067 -0.04067,0.312 -0.0031,-0.003 -0.0073,-0.003 -0.01147,-0.003 -0.0016,0 -0.0031,0 -0.0047,0 -0.04947,-0.009 -0.101067,-0.0133 -0.150534,-0.012 -0.0079,0 -0.01773,0 -0.02493,10e-4 -0.048,0.001 -0.09533,0.0107 -0.1428,0.024 -0.0052,0.003 -0.012,0.004 -0.01773,0.005 -0.05467,0.016 -0.1088,0.0413 -0.161867,0.0773 -0.642267,0.40934 -1.133333,1.29334 -1.332933,2.04667 -0.03173,0.12133 -0.05147,0.24267 -0.06093,0.36133 -0.0093,0.0987 -0.0088,0.196 -0.0041,0.296 0.0021,0.012 0,0.0267 0,0.0387 v 0 c -0.0077,0.0333 -0.01867,0.06 -0.03493,0.092 -0.0015,0.004 -0.0036,0.007 -0.0036,0.007 -0.1312,0.32666 -0.248934,0.65866 -0.353067,0.99466 -0.0037,0.009 -0.0052,0.02 -0.0089,0.028 -0.102,0.33734 -0.193734,0.67734 -0.2708,1.01467 -0.014,0.0627 -0.02973,0.136 -0.0432,0.19733 -0.0208,0.0907 -0.03493,0.18267 -0.05267,0.27334 -0.01093,0.15066 -0.02187,0.304 -0.02547,0.452 -0.0276,1.10666 0.281734,2.14666 0.754134,3.13866 0.1188,0.248 0.252666,0.488 0.3932,0.72267 0.0328,0.0533 0.0636,0.108 0.098,0.16133 0.1348,0.216 0.2796,0.42667 0.4328,0.62934 0.04053,0.0573 0.08333,0.11066 0.125466,0.16666 0.163067,0.208 0.331734,0.412 0.508934,0.608 0.01973,0.0213 0.04,0.0413 0.06093,0.064 0.197333,0.21467 0.402,0.42134 0.615067,0.624 -0.0011,0.004 -0.0011,0.012 -0.0027,0.0173 -0.0083,0.032 -0.014,0.064 -0.0172,0.0973 -0.0036,0.0227 -0.0047,0.0467 -0.0061,0.0733 -5.34e-4,0.032 -0.0011,0.064 0.0015,0.096 0.0021,0.0267 0.0063,0.052 0.01147,0.0773 0.0079,0.0467 0.0156,0.0907 0.02867,0.136 0.01093,0.0387 0.02347,0.0773 0.03693,0.116 0.0089,0.0227 0.01933,0.0453 0.02867,0.0707 0.0156,0.0373 0.03227,0.0747 0.04947,0.112 0.0095,0.0187 0.01773,0.036 0.0272,0.0533 0.02333,0.0493 0.04893,0.096 0.0744,0.14133 0.0041,0.007 0.0073,0.0133 0.0099,0.0187 0.0328,0.056 0.06613,0.112 0.09747,0.16666 0.477066,0.80267 0.980666,1.66267 1.662933,2.32267 0.772,0.54 1.6928,0.876 2.568266,1.18533 0.352667,0.12267 0.704667,0.236 1.057867,0.34267 l 0.002,0.001 c 0.09173,0.0293 0.181333,0.052 0.271867,0.0787 0.161466,0.0453 0.325066,0.088 0.4876,0.12933 0.174933,0.0427 0.351066,0.0827 0.528133,0.11734 0.07813,0.016 0.1572,0.0307 0.235867,0.0453 0.248933,0.044 0.4984,0.0813 0.754133,0.10667 0.371467,0.0333 0.7136,0.001 0.983333,-0.16267 l 0.0011,0.007 c 0.03227,-0.0187 0.06467,-0.0413 0.09427,-0.0627 0.0344,-0.11333 0.06147,-0.232 0.07867,-0.35067 0.133867,-0.904 -0.385866,-1.8 -0.864,-2.524 -0.498,-0.75733 -1.152133,-1.42533 -1.881866,-1.956 -0.299467,-0.22 -0.618134,-0.38266 -0.968667,-0.50266 0.03587,-0.0533 0.0672,-0.108 0.08013,-0.16934 0.0636,-0.28266 -0.06507,-0.60133 -0.1,-0.87466 -0.0328,-0.27067 -0.109866,-0.544 -0.178666,-0.808 -0.161867,-0.608 -0.319734,-1.216 -0.4932,-1.81867 -0.15,-0.52933 -0.350534,-1.06 -0.5792,-1.556 -0.102534,-0.22267 -0.218134,-0.436 -0.342667,-0.64933 -0.04013,-0.064 -0.08533,-0.12667 -0.1276,-0.19334 -0.08907,-0.14133 -0.178133,-0.28133 -0.275467,-0.41733 -0.05627,-0.0747 -0.118266,-0.14933 -0.176133,-0.22267 -0.0932,-0.11733 -0.1848,-0.23466 -0.283733,-0.34933 -0.04013,-0.0453 -0.0824,-0.0893 -0.1224,-0.13467 0.08947,-0.12933 0.1776,-0.25733 0.264533,-0.38 0,0 0,0 0,10e-4 0.038,-0.0573 0.07347,-0.108 0.1104,-0.164 0.0208,-0.032 0.04173,-0.064 0.06413,-0.0947 0.0348,-0.0547 0.07187,-0.112 0.106134,-0.16533 0.06987,-0.11067 0.137066,-0.22134 0.1948,-0.33334 0.0079,-0.0133 0.01413,-0.028 0.02133,-0.0413 0.05373,-0.10267 0.100533,-0.20667 0.1428,-0.312 0.0104,-0.0293 0.02293,-0.06 0.03387,-0.088 0.04373,-0.12267 0.08227,-0.248 0.1088,-0.38 0.0156,-0.076 0.02133,-0.148 0.02507,-0.21867 9.34e-4,-0.0213 0,-0.0453 0,-0.0653 -0.0011,-0.0547 -0.0068,-0.10933 -0.0152,-0.15733 -0.0031,-0.0133 -0.0047,-0.028 -0.0077,-0.0413 -0.0308,-0.13466 -0.09427,-0.25733 -0.188,-0.372 0.01347,0.001 0.026,0 0.03907,0 0.06507,0.001 0.1296,-0.003 0.193733,-0.004 0.164533,-10e-4 0.328133,-0.005 0.492667,-0.016 0.07453,-0.005 0.147333,-0.0107 0.221333,-0.0187 0.170267,-0.0133 0.339067,-0.0347 0.507867,-0.06 0.05573,-0.009 0.110933,-0.016 0.1656,-0.0253 0.226533,-0.0387 0.4536,-0.084 0.674933,-0.144 0.353733,-0.088 0.705733,-0.20933 1.040133,-0.34133 0.7428,-0.3 1.4308,-0.70933 2.055734,-1.208 0.09693,-0.0827 0.715066,-0.64933 1.2964,-1.228 0.350533,-0.35333 0.685866,-0.70533 0.889066,-0.95733 0.02547,0.012 0.05,0.0187 0.0708,0.032 0.02347,0.009 0.04427,0.02 0.06667,0.032 0.02293,0.0107 0.0464,0.0227 0.0688,0.0333 0.03227,0.0147 0.062,0.028 0.09267,0.0387 0.0021,10e-4 0.0031,0.003 0.0052,0.003 0.04173,0.0187 0.0812,0.0333 0.124533,0.056 0.0176,0.004 0.03747,0.0133 0.05773,0.02 0.01933,0.008 0.038,0.016 0.05627,0.0227 0.0312,0.008 0.06453,0.024 0.09533,0.0373 0.01253,0.004 0.02347,0.004 0.03587,0.009 0.0188,0.008 0.03867,0.0107 0.05787,0.0173 0.01453,0.004 0.02867,0.0107 0.04267,0.0133 0.01147,0.005 0.0224,0.009 0.03333,0.012 0.01613,0.007 0.036,0.008 0.04853,0.0173 h 0.0015 c 0.0276,0.004 0.04533,0.008 0.06773,0.0147 0.06667,0.0213 0.136,0.0347 0.203733,0.0507 0.361334,0.076 0.792667,0.0693 1.159867,0.0213 0.760933,-0.104 1.752533,-0.38933 2.280666,-1.01066 1.248934,0.31066 2.5308,0.53466 3.790134,0.74266 0.754133,0.12267 1.530666,0.18134 2.261466,0.40667 0.5344,0.164 1.074534,0.39733 1.6364,0.45733 0.228667,-0.007 0.456267,-0.0107 0.687067,-0.02 1.149467,-0.0493 2.1624,0.005 3.271867,0.33467 0.130133,0.0413 0.259333,0.0693 0.392133,0.1 0.743733,0.009 1.526533,-0.18267 2.2984,-0.516 0.607866,-0.26533 1.2912,-0.52533 1.9652,-0.41733 0.518666,0.0787 0.996266,0.24666 1.521333,0.28 1.2828,0.076 2.530667,-0.47334 3.7412,-0.80267 1.615067,-0.43733 3.341067,-0.67733 5.022266,-0.88133 0.5636,0.37066 1.3224,0.54133 1.931334,0.608 0.2468,0.0253 0.523466,0.0253 0.788533,-0.004 0.02867,-0.003 0.05787,-0.004 0.0864,-0.007 0.0095,-0.003 0.01773,-0.004 0.02667,-0.007 0.08533,-0.0107 0.170266,-0.024 0.25,-0.044 0.0015,-10e-4 0.0036,-10e-4 0.0052,-0.004 9.33e-4,0 0.0015,0 0.0025,0 0.113067,-0.0253 0.2292,-0.064 0.345867,-0.10266 0.01507,-0.005 0.03067,-0.0133 0.0464,-0.0187 h 0.0015 c 0.02973,-0.009 0.05893,-0.02 0.08707,-0.032 0.07333,-0.0293 0.1468,-0.0573 0.2208,-0.0893 0.0172,-0.009 0.03493,-0.0187 0.05307,-0.0267 0.03653,-0.016 0.0724,-0.032 0.11,-0.0507 0.0067,-0.003 0.01293,-0.004 0.01867,-0.009 0.05933,-0.0267 0.118267,-0.06 0.176534,-0.092 0.01613,-0.009 0.0328,-0.0187 0.04907,-0.028 4e-4,0 0.0025,0 0.0025,0 0.0068,0.008 0.01453,0.0173 0.02187,0.0253 v 0 c 0.0016,0.003 0.0037,0.004 0.0047,0.005 0.0396,0.0453 0.08387,0.0947 0.1324,0.14533 0.02853,0.0333 0.05987,0.0653 0.09107,0.0973 0.01453,0.0133 0.02867,0.0307 0.04373,0.0467 0.184933,0.18933 0.4016,0.39867 0.6276,0.612 0.604667,0.56133 1.235467,1.10933 1.3396,1.18267 0.643733,0.472 1.338533,0.86533 2.092267,1.136 0.3416,0.12933 0.694266,0.23333 1.0484,0.312 0.7552,0.16666 1.535333,0.228 2.3088,0.18666 -0.1896,0.23867 -0.2416,0.51067 -0.1604,0.864 0.164533,0.708 0.616666,1.248 1.113066,1.91867 -0.0412,0.048 -0.08227,0.0933 -0.121867,0.144 -0.086,0.10533 -0.1652,0.21333 -0.2448,0.32267 -0.06413,0.088 -0.1328,0.17333 -0.194266,0.26266 -0.08387,0.124 -0.1584,0.25334 -0.234933,0.38134 -0.04787,0.08 -0.101067,0.15866 -0.145867,0.24 -0.1172,0.216 -0.223867,0.43333 -0.318667,0.65733 -0.217733,0.504 -0.396933,1.044 -0.529733,1.57467 -0.152667,0.612 -0.289067,1.22933 -0.4312,1.83466 -0.062,0.26667 -0.126667,0.544 -0.152133,0.81467 -0.02453,0.27733 -0.145867,0.60267 -0.06827,0.88133 0.0156,0.06 0.0464,0.11467 0.08493,0.16534 -0.3448,0.128 -0.660933,0.30133 -0.947866,0.528 -0.716134,0.55866 -1.347467,1.244 -1.821467,2.02133 -0.450933,0.74 -0.936933,1.65333 -0.777067,2.55333 0.02133,0.11867 0.05267,0.23334 0.09013,0.34667 0.0308,0.024 0.06147,0.044 0.0948,0.0613 0,0 5.33e-4,-0.005 5.33e-4,-0.008 0.274933,0.15734 0.6192,0.17734 0.9916,0.12934 0.260533,-0.0333 0.5152,-0.0813 0.7672,-0.13467 0.06147,-0.0133 0.123467,-0.0267 0.183333,-0.0413 0.238534,-0.0547 0.476134,-0.11467 0.708934,-0.184 0.0099,-0.003 0.0192,-0.004 0.02867,-0.007 0.192134,-0.0587 0.381734,-0.11867 0.5708,-0.18267 0.0025,-0.001 0.0063,-0.004 0.0083,-0.007 0.316667,-0.108 0.631867,-0.22134 0.945333,-0.34 -5.33e-4,0 -0.0011,0 -0.0011,0 0.03133,-0.0147 0.06307,-0.0267 0.09427,-0.036 0.866667,-0.34267 1.774,-0.704 2.528667,-1.272 0.660933,-0.68 1.133333,-1.55734 1.584933,-2.37334 0.06253,-0.112 0.124933,-0.23066 0.179733,-0.35333 0.0031,-0.007 0.0063,-0.0133 0.0083,-0.0187 0.0256,-0.056 0.04693,-0.11066 0.06613,-0.168 0.0041,-0.007 0.0068,-0.0133 0.0099,-0.0213 0.0204,-0.0613 0.0376,-0.12133 0.0496,-0.18133 0.0036,-0.016 0.0041,-0.0293 0.0067,-0.0453 0.0063,-0.0413 0.01147,-0.084 0.01413,-0.12533 0.0011,-0.024 0,-0.052 -0.0021,-0.076 -0.0011,-0.032 -0.0052,-0.064 -0.0099,-0.0947 -0.0047,-0.028 -0.0088,-0.0547 -0.01667,-0.0813 -0.0021,-0.008 -0.0021,-0.016 -0.0052,-0.0227 0.0041,-0.005 0.0083,-0.0107 0.01307,-0.0147 0.213467,-0.21734 0.4192,-0.44 0.616667,-0.67334 9.33e-4,-0.001 0.0031,-0.001 0.0052,-0.004 0.19,-0.224 0.3692,-0.456 0.539466,-0.69466 0.01987,-0.0253 0.03867,-0.052 0.05733,-0.0787 0.1636,-0.232 0.317733,-0.46933 0.459866,-0.71733 0.0172,-0.028 0.03387,-0.06 0.05,-0.0893 0.1428,-0.252 0.278134,-0.512 0.394267,-0.78 0.436533,-1.00266 0.71,-2.056 0.6428,-3.15866 -0.0084,-0.15067 -0.02347,-0.30134 -0.03707,-0.452 -0.0224,-0.088 -0.03947,-0.18 -0.06347,-0.26934 -0.01667,-0.0667 -0.03227,-0.13466 -0.04947,-0.19866 -0.1792,-0.67467 -0.409467,-1.36 -0.695333,-2 -0.0036,-0.007 -0.0052,-0.0147 -0.0089,-0.02 -0.01667,-0.0293 -0.0276,-0.0613 -0.03853,-0.0907 0.0063,-0.228 -0.01667,-0.46133 -0.0864,-0.696 -0.2276,-0.748 -0.750533,-1.61467 -1.4036,-2.00533 -0.05107,-0.028 -0.102667,-0.0493 -0.1552,-0.0653 -0.01467,-0.004 -0.03027,-0.007 -0.04427,-0.009 -0.0376,-0.008 -0.07507,-0.0133 -0.112,-0.0147 -0.01667,0 -0.03227,-0.001 -0.04747,0 -0.0448,0 -0.08907,0.007 -0.1328,0.0147 -0.0041,0 -0.0093,0 -0.01507,0.003 -0.0036,0 -0.0068,0 -0.0099,0.001 0,-0.0507 -0.0043,-0.1 -0.01253,-0.152 -0.0016,-0.0133 -0.0052,-0.0267 -0.0073,-0.04 -0.0063,-0.0347 -0.0156,-0.0707 -0.02707,-0.10533 -0.0068,-0.0227 -0.01347,-0.0453 -0.0224,-0.068 -0.01093,-0.028 -0.024,-0.056 -0.03747,-0.084 -0.012,-0.024 -0.02347,-0.0507 -0.03693,-0.0747 -0.02973,-0.0507 -0.06147,-0.1 -0.1,-0.152 -0.3948,-0.52267 -0.9376,-0.93733 -1.481867,-1.288 -1.212533,-0.78933 -2.525999,-1.384 -3.927066,-1.74933 -1.0792,-0.27867 -2.288,-0.40534 -3.2224,-1.06134 -0.1068,-0.0733 -0.204667,-0.15466 -0.2968,-0.23733 -0.0095,-0.0107 -0.01827,-0.02 -0.02867,-0.0293 -0.08853,-0.084 -0.171866,-0.17334 -0.246933,-0.26934 v 0 c 0,0 0,-0.005 0,-0.009 0,-0.16267 -0.0036,-0.324 -0.012,-0.48667 -9.33e-4,-0.056 -0.0041,-0.112 -0.0063,-0.168 -0.0057,-0.0933 -0.01093,-0.18933 -0.0176,-0.28266 -0.0292,-0.43334 -0.06773,-0.868 -0.0912,-1.3 0,0 0,-0.0133 0,-0.0227 0,-0.009 0,-0.0187 0,-0.0307 -0.0052,-0.10533 -0.0083,-0.21066 -0.0093,-0.312 0.06347,-0.10533 0.123867,-0.21333 0.191067,-0.31866 0.0104,-0.0187 0.02133,-0.0373 0.03333,-0.0533 0.169333,-0.26933 0.346933,-0.528 0.529733,-0.788 0.05933,-0.084 0.119734,-0.16666 0.1812,-0.25333 0.01413,-0.02 0.03187,-0.0413 0.04747,-0.0627 0.1536,-0.20933 0.307733,-0.41866 0.4692,-0.62133 0.0396,-0.0507 0.08187,-0.10133 0.121867,-0.152 0.266666,0.18667 0.680266,0.28133 0.9756,0.40133 2.148933,0.86 4.164533,1.936 6.375999,2.644 0.499467,0.15467 1.0052,0.30134 1.509334,0.45734 0.338666,0.10133 0.871466,0.33333 1.189066,0.0707 0.0272,-0.016 0.05427,-0.0427 0.0808,-0.0667 0.0021,0.008 0.0041,0.0173 0.0068,0.0267 l 5.34e-4,0.005 v 0 c 0.06187,0.29066 0.0968,0.58533 0.182266,0.87066 0.150534,0.492 0.366667,0.97467 0.632267,1.41734 0.7656,1.276 2.007867,2.18266 2.812533,3.44266 0.463467,0.724 0.853067,1.50134 1.1104,2.328 0.100534,0.32534 0.178134,0.66 0.2296,0.99334 0.0724,0.48266 -0.06613,1.33866 0.5516,1.50133 -0.03747,0.016 -0.07547,0.0347 -0.109866,0.064 -0.227067,0.18533 -0.323467,0.50933 -0.420267,0.776 -0.230267,0.61467 -0.369333,1.22667 -0.436,1.88 -0.03227,0.35067 -0.04213,0.704 -0.03747,1.05733 0.01613,0.688 0.09947,1.368 0.1692,2.05334 0.04387,0.42266 0.07613,0.84666 0.0792,1.26933 -0.0073,0.944 -0.03173,1.90267 0.150534,2.84 0.07453,0.39467 0.2448,1.048 0.579733,1.33333 0.0052,0.005 0.0093,0.012 0.01453,0.016 0,0 0,0 0.0016,-0.003 0.01293,0.0107 0.02493,0.0253 0.03853,0.0347 0.08853,0.0627 0.214,0.0107 0.262,-0.072 0.346266,-0.56533 0.6276,-1.19733 0.921333,-1.788 0.25,-0.50533 0.5416,-0.97733 0.783867,-1.47066 0.0068,-0.0133 0.012,-0.0267 0.01813,-0.0387 0.05427,-0.11333 0.104267,-0.22667 0.152127,-0.34267 0.0145,-0.036 0.0281,-0.0733 0.0427,-0.10533 0.0511,-0.13467 0.0991,-0.268 0.13853,-0.408 0.37667,-1.336 0.35734,-2.772 0.27867,-4.16533 -0.0187,-0.34 -0.0416,-0.676 -0.0624,-1.008 -0.0496,-0.77334 -0.0917,-1.544 -0.0557,-2.31334 0.0176,-0.48 0.0301,-0.95733 -0.0256,-1.42666 -10e-4,-0.0133 -0.004,-0.0307 -0.007,-0.0493 -0.001,-0.007 -0.003,-0.0133 -0.003,-0.0227 -0.004,-0.02 -0.008,-0.0427 -0.0135,-0.068 -0.002,-0.007 -0.002,-0.0133 -0.004,-0.0187 -0.0416,-0.18533 -0.1276,-0.432 -0.29533,-0.36267 v -0.003 c 0.0709,-0.30667 -0.006,-0.63067 -0.1104,-0.936 -0.0344,-0.0893 -0.06507,-0.17867 -0.09786,-0.26534 -0.2084,-0.56533 -0.439066,-1.12666 -0.6812,-1.676 -0.4756,-1.08933 -0.998,-2.152 -1.534933,-3.21333 -0.3292,-0.648 -0.632267,-1.37867 -1.004667,-2.06 -0.01933,-0.0347 -0.03853,-0.0667 -0.0584,-0.1 -0.0744,-0.13333 -0.1516,-0.268 -0.2328,-0.39733 -0.02707,-0.044 -0.05787,-0.0827 -0.08587,-0.124 -0.07813,-0.11734 -0.156267,-0.23467 -0.240667,-0.34534 -0.03027,-0.0373 -0.06307,-0.072 -0.0932,-0.10666 -0.09013,-0.11067 -0.181333,-0.22134 -0.280267,-0.32134 -0.02707,-0.028 -0.0588,-0.052 -0.08747,-0.0787 -0.1,-0.0947 -0.198,-0.18934 -0.307867,-0.27467 0.0016,-0.009 0.0032,-0.016 0.0052,-0.0227 0.0152,-0.0547 0.0276,-0.10533 0.036,-0.156 0,0 0.0016,-0.009 0.002,-0.0133 0,-0.001 0.0011,-0.004 0.0011,-0.004 0.0016,-0.0187 0.0011,-0.0293 0.0021,-0.0453 0.0016,-0.02 0.0031,-0.0413 0.0031,-0.06 v -10e-4 c 0,-0.04 -0.0072,-0.0733 -0.01347,-0.108 -0.0057,-0.0173 -0.01093,-0.032 -0.0188,-0.048 -0.0016,0.003 -0.002,0.007 -0.0047,0.0107 -0.124533,-0.22667 -0.7536,-0.17467 -0.912533,-0.212 -0.9348,-0.23733 -1.758267,-0.75733 -2.562933,-1.276 -1.368267,-0.88933 -2.821867,-1.68 -4.311467,-2.372 -0.08653,-0.0413 -0.169867,-0.0867 -0.256267,-0.124 -0.298933,-0.13867 -0.600533,-0.26 -0.902133,-0.388 -0.152533,-0.064 -0.3036,-0.132 -0.455733,-0.196 0.0016,0 0.0041,-0.001 0.0052,-0.001 -0.052,-0.02 -0.104667,-0.0413 -0.1572,-0.0613 -0.024,-0.0107 -0.04907,-0.0227 -0.0724,-0.0333 -0.02293,-0.007 -0.03813,-0.016 -0.05213,-0.02 -0.0584,-0.024 -0.117734,-0.048 -0.176534,-0.072 0.139067,-0.13467 0.277067,-0.27067 0.416667,-0.404 0.02493,-0.0227 0.04893,-0.0453 0.0724,-0.068 0.418133,-0.39333 0.843733,-0.77467 1.275466,-1.14933 0.2068,0.02 0.440134,-0.0227 0.576534,-0.0413 0.750533,-0.10666 1.5308,-0.003 2.269333,0.11334 0.710933,0.10533 1.439067,0.164 2.1396,0.316 1.293733,0.27066 2.543733,0.67333 3.8568,0.88133 0.5828,0.092 1.269733,0.248 1.887467,0.148 0.199466,-0.0333 0.388533,-0.092 0.570266,-0.18667 0.0756,-0.0413 0.143734,-0.0853 0.205734,-0.136 0.0027,0 0.0036,10e-4 0.0052,10e-4 0.3568,0.164 0.804666,0.196 1.210933,0.15066 0.619874,-0.0693 1.208404,-0.16666 1.838534,-0.16533 0.6412,0.007 1.27867,0.068 1.9172,-0.004 0.55,-0.0613 1.0328,-0.17067 1.52134,-0.44267 0.34226,-0.19333 0.56933,-0.452 0.78186,-0.74266 0.36094,0.17866 0.84734,0.0427 1.23067,-0.0173 2.62347,-0.40133 5.10267,-1.488 7.49373,-2.59733 0.0808,-0.036 0.14894,-0.084 0.20987,-0.13733 0.0147,-0.009 0.0276,-0.0213 0.0407,-0.0347 0.0573,-0.052 0.1068,-0.10933 0.1484,-0.17333 0.008,-0.0147 0.0147,-0.0267 0.0219,-0.0387 0.0339,-0.0587 0.0641,-0.12133 0.0881,-0.18533 0.007,-0.016 0.0129,-0.032 0.0181,-0.0493 0.0141,-0.04 0.0245,-0.08 0.0344,-0.124 0.58747,-0.26133 1.10573,-0.82 1.53027,-1.22 0.39266,-0.364 0.53173,-1.092 0.67386,-1.58266 0.19587,-0.68 0.41987,-1.35467 0.5844,-2.04134 0.15214,-0.644 0.37347,-1.26666 0.4984,-1.91066 0.12094,-0.612 0.28814,-1.27867 0.29174,-1.90267 0.001,-0.04 -0.004,-0.0827 -0.009,-0.12666" /></svg>
