<?xml version="1.0" encoding="UTF-8" standalone="no"?>
<svg
   viewBox="0 0 127.996 173.81332"
   height="173.81332"
   width="127.996"
   xml:space="preserve"
   id="svg2"
   version="1.1"
   sodipodi:docname="lobster.svg"
   inkscape:version="1.1.2 (b8e25be8, 2022-02-05)"
   xmlns:inkscape="http://www.inkscape.org/namespaces/inkscape"
   xmlns:sodipodi="http://sodipodi.sourceforge.net/DTD/sodipodi-0.dtd"
   xmlns="http://www.w3.org/2000/svg"
   xmlns:svg="http://www.w3.org/2000/svg"
   xmlns:rdf="http://www.w3.org/1999/02/22-rdf-syntax-ns#"
   xmlns:cc="http://creativecommons.org/ns#"
   xmlns:dc="http://purl.org/dc/elements/1.1/"><sodipodi:namedview
     id="namedview836"
     pagecolor="#ffffff"
     bordercolor="#666666"
     borderopacity="1.0"
     inkscape:pageshadow="2"
     inkscape:pageopacity="0.0"
     inkscape:pagecheckerboard="0"
     showgrid="false"
     fit-margin-top="0"
     fit-margin-left="0"
     fit-margin-right="0"
     fit-margin-bottom="0"
     inkscape:zoom="1.6764075"
     inkscape:cx="7.4564209"
     inkscape:cy="221.30657"
     inkscape:window-width="2560"
     inkscape:window-height="1314"
     inkscape:window-x="0"
     inkscape:window-y="25"
     inkscape:window-maximized="1"
     inkscape:current-layer="svg2" /><metadata
     id="metadata8"><rdf:RDF><cc:Work
         rdf:about=""><dc:format>image/svg+xml</dc:format><dc:type
           rdf:resource="http://purl.org/dc/dcmitype/StillImage" /></cc:Work></rdf:RDF></metadata><defs
     id="defs6" /><path
     id="path20"
     style="fill:#2b88d0;fill-opacity:1;fill-rule:nonzero;stroke:none;stroke-width:0.133333"
     d="m 45.634566,104.89733 c 0,0 -0.414133,0.208 -0.454666,0.8 -1.41,0.43467 -5.178134,1.624 -8.7048,2.94667 -0.14,-1.424 -0.234267,-2.84267 -0.295734,-4.25467 2.461467,-0.452 5.64,-0.98533 9.539067,-1.56133 0.174933,0.256 0.447867,0.42533 0.9088,0.48 0.260933,0.032 0.826533,0.032 1.554133,0.0147 0.024,0.236 0.04947,0.46266 0.0756,0.68266 -1.084933,0.29734 -2.040666,0.60667 -2.6224,0.892 z m 7.2244,-59.754664 c 0.0136,0.02 0.0308,0.04267 0.04693,0.06267 1.4984,1.721334 2.385867,3.172 2.944267,4.224 0.076,0.146667 0.147867,0.284 0.212533,0.414667 0.04,0.07733 0.07333,0.148 0.109334,0.221333 0.0052,0.0093 0.0099,0.02 0.014,0.02933 -0.0067,0.004 -0.01507,0.0067 -0.0224,0.012 -0.304667,0.145334 -0.114534,1.077334 0.062,1.730667 -0.147334,0.258667 -0.08333,0.492 -0.08333,0.492 L 57.077234,55.58 v 0 l 0.03227,0.112 c -0.5088,-0.752 -1.302,-1.758667 -1.597866,-1.252 -0.0011,-0.004 -0.0016,-0.008 -0.0032,-0.01067 -0.0104,0.01733 -0.01707,0.04667 -0.02707,0.06933 -0.0099,0.02533 -0.0224,0.048 -0.03067,0.07733 -0.0208,0.07333 -0.03707,0.157333 -0.0464,0.261333 -0.165066,1.834667 0.498934,2.225333 0.355734,4.221333 -0.0968,1.36 -3.068267,3.877333 -4.109334,10.298667 v -0.0013 c 0,0.0027 -0.2156,0.0053 -0.2156,0.0067 -0.219866,0.714667 -0.5428,1.478667 -0.752666,2.292 -0.02347,0.09333 -0.101067,0.188 -0.124,0.281333 -0.07907,0.310667 -0.181734,0.626667 -0.2572,0.950667 -0.0276,0.116 -0.0672,0.228 -0.09373,0.344 -0.0824,0.361333 -0.1688,0.729333 -0.246933,1.109333 -0.0156,0.07067 -0.0344,0.141334 -0.04947,0.214667 -0.09067,0.444 -0.180266,0.902667 -0.266133,1.370666 -0.0027,0.01467 -0.0068,0.028 -0.0089,0.04267 -2.037467,-1.029333 -4.554667,-2.328 -6.836933,-3.578666 -0.355734,-0.268 -1.183867,-1.104 -1.9188,-1.821334 3.4704,-11.481333 7.571999,-19.126666 7.661999,-19.293333 2.837067,-5.267999 4.030267,-6.025333 4.316667,-6.131999 z m 22.230799,0.06267 c 0.01667,-0.02 0.0328,-0.04267 0.04627,-0.06267 0.2876,0.106666 1.480267,0.864 4.316667,6.131999 0.09067,0.166667 4.192266,7.812 7.661999,19.293333 -0.734799,0.717334 -1.561999,1.553334 -1.918133,1.821334 -2.387066,1.308 -5.033333,2.669333 -7.116666,3.719999 -2.080267,-11.594666 -5.808933,-15.290666 -5.935467,-17.050666 -0.142133,-1.996 0.307867,-2.386666 0.142667,-4.221333 -0.0088,-0.1 -0.02493,-0.178667 -0.0448,-0.249333 -0.0063,-0.024 -0.01453,-0.04533 -0.02293,-0.068 -0.0052,-0.016 -0.0088,-0.03467 -0.01613,-0.04933 0,0.004 -9.33e-4,0.008 -0.0025,0.01067 -0.197467,-0.428 -0.6708,-0.024 -1.118267,0.530667 l 0.7708,-2.682667 c 0,0 0.0636,-0.233333 -0.0828,-0.490667 0.176534,-0.652 0.3672,-1.586666 0.06093,-1.732 -0.0067,-0.0053 -0.0156,-0.008 -0.02187,-0.012 0.01827,-0.03867 0.03653,-0.07733 0.05733,-0.116 0.0208,-0.04133 0.03907,-0.08267 0.06253,-0.128 0.0676,-0.134666 0.142666,-0.281333 0.223333,-0.432 0.5584,-1.053333 1.445333,-2.497333 2.937066,-4.213333 z m 4.420267,58.109334 c 0.872933,0.0253 1.562,0.0293 1.859333,-0.007 0.460934,-0.0547 0.733334,-0.224 0.9084,-0.48 3.898934,0.576 7.076533,1.10933 9.539067,1.56133 -0.06147,1.412 -0.156267,2.83067 -0.295867,4.25467 -3.527067,-1.32267 -7.295333,-2.512 -8.705733,-2.94933 -0.04013,-0.58934 -0.4536,-0.79734 -0.4536,-0.79734 -0.635467,-0.31066 -1.713067,-0.64933 -2.9188,-0.97333 0.02347,-0.196 0.0448,-0.4 0.0672,-0.60933 z m 3.095333,-8.006668 c -0.0104,-0.04 -0.02453,-0.07333 -0.03853,-0.109334 -0.02133,-0.05867 -0.0432,-0.114666 -0.07027,-0.16 -0.01773,-0.03067 -0.03547,-0.05733 -0.05427,-0.08533 -0.02907,-0.04133 -0.05933,-0.08 -0.0896,-0.110667 -0.0099,-0.008 -0.0176,-0.024 -0.02653,-0.032 -0.0031,-0.0013 -0.0057,-0.0013 -0.0083,-0.0027 -0.154667,-0.142667 -0.304267,-0.190667 -0.304267,-0.190667 -0.5328,-0.150667 -1.3364,-0.264 -2.256667,-0.353333 -0.01,-0.424 -0.02347,-0.854667 -0.03907,-1.297334 0.706266,-0.09467 1.252533,-0.181333 1.503066,-0.252 0.302134,-0.088 0.5104,-0.209333 0.655734,-0.368 1.7036,0.02267 5.841733,0.178667 9.617733,0.1 0.119733,1.282667 0.216133,2.578667 0.283333,3.888 -2.4052,-0.222666 -5.470266,-0.554666 -9.1724,-1.026666 z M 46.119366,92.346664 c 0.144267,0.158667 0.3532,0.28 0.655733,0.368 0.212534,0.06 0.641734,0.133334 1.199067,0.210667 -0.01667,0.468 -0.0308,0.922667 -0.04173,1.370667 -0.790667,0.084 -1.4776,0.189333 -1.951067,0.321333 0,0 -0.148933,0.048 -0.304133,0.190667 -0.0025,0.0013 -0.0052,0.0013 -0.0083,0.0027 -0.0084,0.008 -0.01667,0.024 -0.02613,0.032 -0.03067,0.03333 -0.05933,0.06933 -0.08907,0.110667 -0.01973,0.028 -0.03693,0.05467 -0.05467,0.08533 -0.026,0.04533 -0.0484,0.1 -0.06973,0.157334 -0.01467,0.03867 -0.02867,0.07067 -0.0396,0.112 -3.702133,0.472 -6.766133,0.804 -9.171866,1.026666 0.0672,-1.309333 0.162933,-2.605333 0.283333,-3.888 3.776533,0.07867 7.913467,-0.07733 9.618133,-0.1 z m 45.771466,8.998666 c -3.7136,-0.74533 -7.693867,-1.32 -9.222933,-1.533332 -0.02813,-0.05067 -0.05573,-0.09733 -0.08653,-0.137334 -0.0104,-0.01467 -0.02133,-0.02933 -0.03227,-0.04267 -0.03173,-0.03733 -0.06453,-0.07067 -0.0964,-0.09867 -0.0093,-0.0093 -0.01667,0.068 -0.026,0.06133 -0.03227,-0.028 -0.0656,0.01467 -0.09533,0.01467 0,0 0,0 -0.0011,0 -0.08333,0 -0.145734,-0.157333 -0.145734,-0.157333 -0.338533,-0.104 -0.790133,-0.233334 -1.309866,-0.313334 v 0 c -0.0021,-0.0013 -0.0063,-0.02267 -0.0084,-0.02267 -0.340667,-0.05067 -0.709867,-0.110667 -1.100534,-0.153334 0.0027,-0.08533 0.0041,-0.178666 0.0052,-0.264 0.0016,-0.02533 0.0021,-0.05333 0.0027,-0.08133 0.702,0.0053 1.249467,-0.0093 1.504133,-0.04533 0.312,-0.04267 0.5364,-0.138667 0.7016,-0.276 1.733867,0.236 6.030133,0.792 9.902533,1.054666 0.01093,0.662671 0.01253,1.326671 0.0089,1.994671 z m -11.4376,-15.986665 c 1.686,-0.181334 5.4104,-1.368 9.602666,-2.930667 0.413467,2.152 0.774934,4.368 1.066134,6.641333 -2.383334,0.102667 -5.3984,0.210667 -9.031733,0.248 -0.02093,-0.05067 -0.0428,-0.12 -0.0672,-0.12 -0.0021,0 -0.0037,0 -0.0057,0 -0.2396,0 -0.6068,-0.2 -0.6068,-0.2 -0.343733,-0.04667 -0.792133,0.2 -1.3036,0.2 v 0 c -0.0016,0 -0.0032,0 -0.0043,0 -0.1968,0 -0.4004,-0.278667 -0.613467,-0.272 -0.0672,-0.989333 -0.145867,-2.154666 -0.237467,-3.212 0.716667,-0.096 1.201467,-0.354666 1.201467,-0.354666 z m -32.910933,0 c 0,0 0.3552,0.08667 0.901067,0.172 -0.0932,1.069333 -0.172933,2.385333 -0.240667,3.386666 -0.106133,-0.0027 -0.2088,0.28 -0.309866,0.28 -0.0011,0 -0.002,0 -0.0036,0 v 0 c -0.512,0 -0.9604,-0.265333 -1.3036,-0.221333 0,0 -0.367733,-0.084 -0.607333,0.321333 -0.0016,0.004 -0.0041,-0.068 -0.0057,-0.06667 -0.02507,0.04 -0.0464,0.052 -0.0672,0.102667 -3.632266,-0.03867 -6.6484,-0.141333 -9.0312,-0.248 0.289467,-2.269333 0.652,-4.498666 1.0672,-6.649333 4.1916,1.562667 7.9156,2.741333 9.600933,2.922667 z m 0.170934,13.209333 c -0.201067,0 -0.395334,0 -0.580267,0 -0.0036,0 -0.0083,0 -0.01253,0 v 0 c -0.518667,0 -1.100533,0.612 -1.440533,0.713333 l -0.276134,0.408 v 0.05467 c 0,0 0.06933,-0.109334 0.03547,-0.08267 -0.0093,0.0067 0.0468,-0.05733 0.03693,-0.05067 -0.03067,0.028 -0.0292,0.02133 -0.0604,0.06 -0.012,0.01467 -0.0073,0.0093 -0.0188,0.02533 -0.03013,0.04 -0.04893,0.07467 -0.07707,0.125333 -1.528534,0.213336 -5.505734,0.783996 -9.218134,1.529336 -0.0048,-0.668 -5.33e-4,-1.336 0.01147,-2.000003 3.8724,-0.262666 8.168133,-0.817333 9.902533,-1.054666 0.1656,0.138666 0.390134,0.233333 0.702133,0.276 0.216667,0.03067 0.645334,0.044 1.198934,0.04533 0.0031,0.124 0.0047,0.02533 0.0079,0.148 -0.0688,0.0067 -0.136,-0.197333 -0.203733,-0.197333 -0.0031,0 -0.0057,0 -0.0077,0 z M 121.20483,58.882665 c 0.10733,-0.157333 0.212,-0.329333 0.3188,-0.5 0.102,-0.162666 0.20573,-0.325333 0.3088,-0.497333 0.11453,-0.194667 0.22706,-0.398667 0.3412,-0.605333 0.0599,-0.106667 0.12026,-0.206667 0.17906,-0.317334 -0.006,0.0067 -0.0119,0.01333 -0.0176,0.02 6.16974,-11.511999 10.23534,-39.314665 -3.92866,-54.8919983 0,0 -0.0704,-0.094667 -0.19014,-0.24 -0.008,-0.010667 -0.0156,-0.018667 -0.024,-0.030667 -0.0135,-0.017333 -0.0291,-0.036 -0.0448,-0.053333 -0.0135,-0.018667 -0.0276,-0.032 -0.0432,-0.050667 -0.0125,-0.016 -0.0271,-0.032 -0.0416,-0.048 -0.0188,-0.022667 -0.0376,-0.048 -0.0595,-0.070667 -0.0124,-0.016 -0.0255,-0.030667 -0.0396,-0.044 -0.0233,-0.028 -0.0468,-0.052 -0.0703,-0.081333 -0.0161,-0.018667 -0.0323,-0.036 -0.0484,-0.053333 -0.0229,-0.024 -0.0464,-0.052 -0.0699,-0.077333 -0.0181,-0.018667 -0.0359,-0.037333 -0.0547,-0.057333 -0.0249,-0.028 -0.0505,-0.053333 -0.0771,-0.08 -0.0183,-0.018667 -0.0353,-0.038667 -0.0557,-0.057333 -0.026,-0.026667 -0.0547,-0.057333 -0.0833,-0.082667 -0.0183,-0.018667 -0.0369,-0.036 -0.0563,-0.056 -0.0291,-0.028 -0.0583,-0.056 -0.0885,-0.0853333 -0.0192,-0.0173333 -0.0396,-0.036 -0.0588,-0.0546667 -0.0313,-0.028 -0.0641,-0.0573333 -0.0948,-0.084 -0.0188,-0.0186667 -0.038,-0.0346667 -0.0568,-0.0506667 -0.0328,-0.0293333 -0.0683,-0.0573333 -0.10213,-0.0853333 -0.0187,-0.016 -0.0369,-0.032 -0.0556,-0.0453333 -0.0355,-0.0306667 -0.0724,-0.0573333 -0.10893,-0.0853333 -0.0161,-0.012 -0.0339,-0.0253333 -0.0516,-0.0413333 -0.0395,-0.028 -0.0796,-0.056 -0.1208,-0.0826667 -0.0145,-0.012 -0.0276,-0.0213333 -0.0416,-0.0293333 -0.0511,-0.0333333 -0.0995,-0.0653333 -0.15054,-0.0946667 -0.005,-0.004 -0.01,-0.006667 -0.0147,-0.0106667 -0.11094,-0.064 -0.2224,-0.11866667 -0.33387,-0.16266667 -0.0109,-0.004 -0.0224,-0.0066667 -0.0343,-0.0093333 -0.0417,-0.016 -0.0844,-0.032 -0.12706,-0.04133333 -0.0163,-0.0066667 -0.0329,-0.0093333 -0.0496,-0.01333333 -0.0369,-0.008 -0.0733,-0.016 -0.10987,-0.02 -0.0177,-0.00266667 -0.0359,-0.00533334 -0.0547,-0.00666667 C 115.75979,0.00400077 115.72599,7.7e-7 115.69419,7.7e-7 c -0.0197,0 -0.0401,0.004 -0.0588,0.004 -0.0313,0.00133333 -0.0615,0.00533333 -0.0923,0.01066666 -0.0203,0.0053333 -0.0391,0.0093333 -0.0588,0.01466667 -0.0292,0.008 -0.0579,0.01733333 -0.0865,0.028 -0.0192,0.008 -0.038,0.01733333 -0.0572,0.02533333 -0.0267,0.01333333 -0.0548,0.02933333 -0.0803,0.04533333 -0.0188,0.012 -0.0375,0.0253333 -0.0557,0.0386667 -0.0255,0.02 -0.0505,0.0413333 -0.0745,0.064 -0.0187,0.016 -0.0348,0.0346667 -0.0531,0.0533333 -0.0235,0.0253333 -0.0464,0.056 -0.0688,0.084 -0.0171,0.0226667 -0.0333,0.0426667 -0.0495,0.0666667 -0.0213,0.0333333 -0.0421,0.0706667 -0.0629,0.10666667 -0.0152,0.028 -0.0297,0.0533333 -0.0443,0.0813333 -0.0193,0.0426667 -0.0381,0.088 -0.0573,0.13199999 -0.0125,0.0333333 -0.026,0.0613333 -0.038,0.096 -0.0193,0.0506667 -0.0355,0.10666667 -0.0516,0.16133328 -0.0104,0.037333 -0.0224,0.069333 -0.0312,0.108 -0.0172,0.065333 -0.0328,0.136 -0.048,0.2093334 -0.007,0.034667 -0.0156,0.065333 -0.0219,0.1 -0.0208,0.112 -0.0396,0.2306666 -0.0552,0.3586666 -0.52493,4.1906666 0.8948,3.9013332 -0.10307,5.1559999 -0.0912,0.1146666 -0.17293,0.4333333 -0.24746,0.9146666 0.0459,0.2426667 0.0885,0.488 0.0995,0.74 0.0229,0.568 -0.17186,1.12 -0.30053,1.6653338 -0.28693,1.224 0.71573,1.709333 0.13293,2.848 -0.17146,0.334666 -0.28293,0.678666 -0.35893,1.030666 -0.0448,1.016 0.39533,1.998667 -0.0208,2.994667 -0.2812,0.672 -0.0615,1.273333 0.0249,1.937333 0.0584,0.462667 -0.28373,0.922667 -0.4776,1.309334 -0.0713,0.144 -0.0552,0.324 -0.005,0.517333 0.01,0.03467 0.0193,0.06933 0.0276,0.106667 0.11467,0.365333 0.32707,0.762666 0.3464,1.057333 0.0161,0.258666 -0.15306,0.497333 -0.27813,0.709333 -0.3292,0.550667 -0.28227,1.045333 -0.22027,1.525333 0.0844,0.154667 0.18014,0.321334 0.26974,0.514667 0.10786,0.229333 0.0245,0.633333 -0.10734,0.828 -0.21813,0.32 -0.47853,0.566667 -0.67493,0.822667 -0.0547,0.44 -0.11147,0.870666 -0.16973,1.290666 0.004,0.01467 0.004,0.02133 0.009,0.036 0.5224,1.28 0.0749,2.916 -0.7792,4.092 -0.30413,1.2 -0.6568,2.158667 -1.0672,2.777334 -0.2656,-0.408 -0.7536,-0.970667 -0.7656,-1.482667 -0.0177,-0.844 0.388,-1.508 -0.14893,-2.344 -0.30214,-0.462667 -0.3308,-0.937333 -0.2516,-1.476 0.10786,-0.74 -0.007,-1.382667 -0.0869,-2.112 -0.0937,-0.852 0.22654,-1.666667 -0.0443,-2.5 -0.17454,-0.534667 -0.3328,-1.089333 -0.24014,-1.656 0.0943,-0.582667 0.20254,-1.146666 0.12814,-1.742666 -0.0469,-0.377334 -0.2084,-0.730667 -0.21307,-1.114667 -0.008,-0.668 0.22613,-1.209333 0.44893,-1.830667 0.24587,-0.685333 -0.3916,-1.609333 -0.4208,-2.332 -0.004,-0.157333 0.0552,-0.328 0.12454,-0.469333 0.39586,-0.812 0.3172,-1.36 0.13693,-2.176 -0.14067,-0.637333 -0.112,-1.22 0.0792,-1.838667 0.42547,-1.389333 -0.1844,-2.6133331 0.17493,-4.0413331 0.18707,-0.7466666 -0.18426,-1.4053333 -0.1948,-2.1386666 -0.0115,-0.952 0.0683,-1.7546666 -0.16666,-2.6013333 -0.0547,-0.033333 -0.2952,-0.058667 -0.2952,-0.08 0,0.004 0,0.00667 0,0.00933 0,-0.012 -0.5324,-0.026667 -0.56667,-0.032 -0.002,-0.00267 -0.47453,-0.004 -0.47453,-0.004 0,0 0,0.00133 0,0.00133 0,-0.013333 0.42493,-0.018667 0.33333,-0.00667 -0.162,0.024 -0.30787,0.112 -0.49213,0.256 -1.53854,1.1826667 -5.04694,6.2573332 -6.08854,12.513333 0,0 0,-0.0027 0,-0.0067 0,0.04533 0.23854,0.08933 0.2244,0.134666 -0.19266,0.584 -0.25,1.178667 -0.4328,1.781334 -0.0203,0.06533 0.0265,0.126666 0.007,0.190666 -0.18654,0.616 -0.33334,1.241334 -0.50894,1.870667 -0.0307,0.112 -0.0448,0.221333 -0.0749,0.333333 -0.1704,0.624 -0.32613,1.248 -0.48133,1.881334 -0.0271,0.104 -0.0463,0.206666 -0.0719,0.312 -0.1588,0.655999 -0.310928,1.311999 -0.451462,1.973333 -0.0057,0.02667 -0.0104,0.056 -0.01613,0.08267 -0.1396,0.653334 -0.2672,1.305334 -0.385467,1.956 -0.01453,0.07867 -0.0292,0.157334 -0.04267,0.234667 -0.114667,0.64 -0.215734,1.276 -0.3084,1.909333 -0.0156,0.110667 -0.03067,0.218667 -0.0464,0.329334 -0.088,0.626666 -0.163467,1.249333 -0.224934,1.862666 -0.0099,0.09333 -0.01773,0.184 -0.026,0.276 -0.06093,0.64 -0.112,1.274667 -0.141733,1.893334 -0.198933,4.039999 -0.131733,6.914666 0.04947,8.963999 -2.446267,7.932 -0.114534,13.86 3.111456,18.789333 0.003,0.0053 0.006,0.0093 0.008,0.01467 -0.26413,-0.06533 -1.1412,-0.42 -1.38333,-0.108 -0.29427,0.376 -0.20267,0.808 -0.39373,1.221333 -0.35213,0.765334 -1.313063,1.028 -1.947463,1.508 -0.6416,0.486667 -1.355733,0.96 -2.114,1.233333 -0.448,0.16 -0.724,0.334667 -0.844267,0.834667 -0.2016,0.849333 -0.471866,1.696 -0.682933,2.553333 -0.1104,-0.564 -0.206133,-0.884 -0.371867,-0.977333 -0.0276,-0.258667 -0.130666,-0.422667 -0.3588,-0.408 -0.604666,0.04133 -1.068266,0.977333 -1.454666,1.341333 -0.414667,0.389334 -0.8172,0.790667 -1.2256,1.188 0.184933,-0.369333 0.0448,-1.234666 -0.03373,-1.178666 -0.7188,0.508 -1.2136,1.413333 -1.776666,2.085333 -0.295734,0.353333 -0.6156,0.72 -0.943734,1.077333 -0.01613,-0.05333 -0.03173,-0.108 -0.04787,-0.16 0.117733,-0.414666 0.186933,-1.032 0.1036,-0.981333 -0.0792,0.048 -0.192134,0.137333 -0.322934,0.250667 -3.472933,-11.32 -7.497333,-18.814667 -7.587466,-18.978667 -3.3208,-6.169333 -4.6948,-6.797333 -5.451067,-6.726666 -0.375466,0.032 -0.646266,0.268 -0.7776,0.517333 -2.046266,2.361334 -3.019733,4.112 -3.484399,5.190667 -0.230667,-0.01467 -0.428134,0.04133 -0.530667,0.237333 -0.154667,0.297333 -0.396933,0.745333 -0.574,1.072 -0.0916,0.01867 -0.180667,0.052 -0.2692,0.09467 -0.0079,0.0027 -0.0152,0.008 -0.0224,0.012 -0.08547,0.04267 -0.169333,0.1 -0.250533,0.168 -0.0027,0.004 -0.0057,0.0053 -0.0089,0.0067 -0.07907,0.07067 -0.1552,0.154667 -0.2276,0.253334 -0.014,0.01733 -0.02813,0.03867 -0.04213,0.05733 -0.07133,0.104 -0.140667,0.217333 -0.204133,0.352 -0.171334,0.362667 -0.395867,0.754667 -0.639067,1.264 -0.302667,-0.277333 -0.740133,-0.486667 -1.048533,-0.486667 v 0 c -0.0067,0 -0.01187,0 -0.0192,0 -0.04173,0 -0.08027,0.0053 -0.1156,0.0013 -0.01253,0 -0.02133,-0.0013 -0.03333,-0.0013 -0.03027,0 -0.05787,0 -0.08133,0 -0.0083,0 -0.0156,0 -0.0228,0 -0.0256,0 -0.0444,0 -0.05947,0 -0.0031,0 -0.0057,0 -0.0083,0 -0.01467,0 -0.024,0 -0.024,0 l -0.06667,0.08933 c 0.0041,-0.06133 0.01253,-0.084 0.0156,-0.145334 0.01307,-0.273333 0.02453,-0.530666 0.0224,-0.809333 0,-0.14 -0.0063,-0.273333 -0.01867,-0.418667 -0.0079,-0.076 -0.01827,-0.152 -0.04533,-0.245333 -0.04013,-0.06133 -0.0032,-0.112 -0.185467,-0.228 -0.06147,-0.04133 -0.202133,-0.024 -0.2692,0.02 -0.03187,0.02267 -0.062,0.05067 -0.0896,0.08 -0.07613,0.09333 -0.107333,0.162667 -0.140666,0.233333 l -0.08853,0.172 -0.187466,0.361334 c -0.02707,0.06267 -0.0604,0.113333 -0.09227,0.157333 l -0.05253,-1.86 -0.05627,-1.198667 c -0.01307,-0.201333 -0.026,-0.399999 -0.048,-0.607999 l -0.02187,-0.161334 -0.01813,-0.092 c -0.0057,-0.02 -0.0084,-0.03467 -0.0204,-0.06667 -0.0041,-0.012 -0.0072,-0.024 -0.0296,-0.05867 -0.0136,-0.02133 -0.0079,-0.01867 -0.03907,-0.05467 -0.04427,-0.044 -0.1052,-0.07467 -0.169866,-0.08 -0.07493,-0.01867 -0.202534,0.05333 -0.212,0.072 -0.01613,0.01867 -0.03067,0.03733 -0.0452,0.05867 -0.0073,0.012 -0.0084,0.01733 -0.01147,0.02267 -0.0328,-0.222667 -0.0636,-0.445334 -0.1052,-0.669334 l -0.287067,-1.670666 0.0032,0.02 -0.11,-0.638667 -0.104133,-0.341333 -0.0276,-0.08533 -0.014,-0.04267 -0.0344,-0.06133 c -0.0156,-0.02133 0.0057,0 -0.04013,-0.05467 -0.03493,-0.04133 -0.0792,-0.08 -0.126,-0.105334 -0.05267,-0.02267 -0.121867,-0.032 -0.179734,-0.028 -0.05987,-0.01067 -0.1468,0 -0.209333,0.02667 -0.08493,0.04667 -0.152133,0.125333 -0.165067,0.157333 -0.0188,0.03333 -0.01573,0.016 -0.0496,0.09467 l -0.01093,0.03733 -0.0228,0.07333 -0.09013,0.301333 -0.119334,0.666667 0.0032,-0.02 -0.286533,1.670666 c -0.0416,0.221334 -0.07293,0.444 -0.104667,0.666667 -0.0041,-0.0053 -0.0047,-0.008 -0.01253,-0.02133 -0.01293,-0.02133 -0.02813,-0.03867 -0.0448,-0.05733 -0.0093,-0.01867 -0.137467,-0.092 -0.211467,-0.07467 -0.064,0.0067 -0.126533,0.03867 -0.170266,0.08267 -0.03173,0.036 -0.026,0.03333 -0.04013,0.05467 -0.02027,0.03467 -0.02493,0.04667 -0.03013,0.05867 -0.01093,0.032 -0.0136,0.04667 -0.0188,0.06667 l -0.01867,0.092 -0.02093,0.161334 c -0.0224,0.208 -0.03587,0.406666 -0.04947,0.607999 l -0.05467,1.198667 -0.05253,1.86 c -0.036,-0.05067 -0.07093,-0.102667 -0.098,-0.166667 l -0.1776,-0.344 -0.0948,-0.184 c -0.0244,-0.05333 -0.05773,-0.130666 -0.139066,-0.229333 -0.0276,-0.02933 -0.05773,-0.05467 -0.08853,-0.07867 -0.06827,-0.04133 -0.209333,-0.06 -0.270266,-0.01867 -0.1828,0.117333 -0.145867,0.169333 -0.185467,0.230666 -0.02653,0.092 -0.03693,0.172 -0.04587,0.248 -0.01347,0.146667 -0.01867,0.289334 -0.01867,0.429334 -0.0021,0.28 0.0093,0.553333 0.02347,0.826666 0.0036,0.06267 0.01187,0.121334 0.01507,0.184 -0.236533,0.02533 -0.538533,0.092 -0.804133,0.245334 -0.2136,-0.448 -0.410533,-0.864 -0.563067,-1.186667 -0.06307,-0.134667 -0.132266,-0.246667 -0.2036,-0.349333 -0.01467,-0.02133 -0.02867,-0.04267 -0.04333,-0.06133 -0.0724,-0.09733 -0.147333,-0.181333 -0.225467,-0.250666 -0.0047,-0.004 -0.0093,-0.008 -0.0136,-0.0093 -0.07907,-0.06667 -0.161466,-0.12 -0.2448,-0.165333 -0.0083,-0.0053 -0.01707,-0.01067 -0.02653,-0.01333 -0.08693,-0.04267 -0.176,-0.076 -0.267733,-0.09467 -0.177067,-0.326667 -0.419734,-0.774667 -0.573867,-1.072 -0.102133,-0.193333 -0.3,-0.252 -0.530267,-0.237333 -0.04107,-0.09733 -0.09013,-0.201334 -0.140133,-0.309334 -0.0047,-0.0093 -0.0077,-0.016 -0.0124,-0.028 -0.06253,-0.132 -0.1328,-0.273333 -0.2104,-0.422666 -0.0048,-0.008 -0.0073,-0.016 -0.01253,-0.024 h -5.34e-4 c -0.557333,-1.074667 -1.5016,-2.550667 -3.109333,-4.406667 -0.1308,-0.249333 -0.401067,-0.485333 -0.776667,-0.517333 -0.7572,-0.07067 -2.130666,0.557333 -5.452533,6.726666 -0.0896,0.164 -4.114133,7.658667 -7.585466,18.978667 -0.131734,-0.113334 -0.245334,-0.202667 -0.323867,-0.250667 -0.08387,-0.05067 -0.0136,0.568 0.1036,0.981333 -0.0156,0.052 -0.03227,0.106667 -0.0484,0.16 -0.328133,-0.357333 -0.6464,-0.724 -0.943333,-1.077333 -0.561867,-0.672 -1.0588,-1.577333 -1.775467,-2.085333 -0.07867,-0.056 -0.219333,0.809333 -0.03547,1.178666 -0.407733,-0.397333 -0.810933,-0.798666 -1.2244,-1.188 -0.3876,-0.364 -0.850533,-1.3 -1.454666,-1.341333 -0.228667,-0.01467 -0.331867,0.149333 -0.360534,0.408 -0.162933,0.09333 -0.260933,0.413333 -0.3708,0.978667 -0.2104,-0.858667 -0.480666,-1.705334 -0.683333,-2.554667 -0.118666,-0.5 -0.396266,-0.674667 -0.842666,-0.834667 -0.759334,-0.273333 -1.471867,-0.746666 -2.114534,-1.233333 -0.633333,-0.48 -1.595866,-0.742666 -1.948,-1.508 -0.190666,-0.413333 -0.1,-0.845333 -0.392666,-1.221333 -0.2432,-0.312 -1.119867,0.04267 -1.384934,0.108 0.0027,-0.0053 0.0057,-0.0093 0.0093,-0.01467 3.2272,-4.929333 5.216666,-10.857333 2.769333,-18.789333 0.0536,-0.601333 -0.215067,-1.273333 -0.215067,-2.028 0,-0.0027 0,-0.0053 0,-0.0093 0,-0.210667 0.3572,-0.429333 0.362934,-0.654667 5.33e-4,-0.024 0.171866,-0.048 0.1724,-0.072 0.0052,-0.212 0.09533,-0.430666 0.09853,-0.656 0,-0.04 -0.3188,-0.08267 -0.318267,-0.125333 0.0025,-0.214667 -0.3156,-0.430667 -0.3156,-0.657333 0,-0.05733 0,-0.116 0,-0.174667 0,-0.217333 0.362,-0.44 0.359867,-0.670667 0,-0.06667 -0.174533,-0.137333 -0.176,-0.204 -0.0027,-0.229333 -0.183867,-0.461333 -0.183867,-0.698666 0,-0.01867 0,0.609333 0,0.609333 h -0.098 c 0,-1.041333 0.353734,-2.222666 0.299467,-3.292 -0.0296,-0.618666 0.121467,-1.416 0.06093,-2.054666 -0.0088,-0.09467 0.08493,-0.269334 0.07507,-0.366667 -0.06253,-0.610667 -0.08693,-1.270667 -0.174,-1.894667 -0.01507,-0.114666 -0.0068,-0.248 -0.0224,-0.362666 -0.09267,-0.630667 -0.180133,-1.276 -0.294267,-1.913334 -0.01507,-0.07733 -0.02387,-0.161333 -0.03907,-0.242666 -0.118667,-0.648 -0.242667,-1.301334 -0.380667,-1.952 -0.0068,-0.028 -0.0099,-0.06 -0.0172,-0.08667 -0.1412,-0.662667 -0.293733,-1.321333 -0.4536,-1.98 -0.024,-0.101333 -0.048,-0.202666 -0.0724,-0.302666 -0.1568,-0.633334 -0.321467,-1.262667 -0.491733,-1.889334 -0.03013,-0.108 -0.0604,-0.214666 -0.09067,-0.325333 -0.174933,-0.632 -0.355733,-1.258667 -0.542667,-1.877333 -0.01827,-0.06133 -0.03747,-0.121334 -0.0568,-0.182667 -0.1844,-0.601333 -0.480133,-1.192 -0.6724,-1.772 -0.0156,-0.05067 -0.1536,-0.101333 -0.1536,-0.149333 0,0.004 0,0.0067 0,0.0093 C 23.5403,9.2066665 21.1507,4.132 19.612167,2.9493333 c -0.184933,-0.144 -1.130267,-0.232 -1.291733,-0.256 -0.0916,-0.012 -1.027067,-0.00667 -1.027067,0.00667 0,0 0,-0.00133 0,-0.00133 0,0 0.8188,0.00133 0.816133,0.004 -0.0344,0.00533 0.345867,0.02 0.314134,0.032 -5.34e-4,-0.00267 0.204133,-0.00533 0.204133,-0.00933 -0.0584,0.021333 -0.01307,0.046667 -0.06773,0.08 -0.235334,0.8466667 0.0208,1.6493333 0.0079,2.6013333 -0.0104,0.7333333 -0.354266,1.392 -0.167733,2.1386666 0.359333,1.428 -0.238533,2.6519998 0.188533,4.0413328 0.1896,0.618667 0.226,1.201334 0.08547,1.838667 -0.179733,0.816 -0.255733,1.364 0.14,2.176 0.06827,0.141333 0.130267,0.312 0.124,0.469333 -0.0292,0.722667 -0.664533,1.646667 -0.417733,2.332 0.224,0.621334 0.457333,1.162667 0.448933,1.830667 -0.0036,0.384 -0.1656,0.737333 -0.212933,1.114667 -0.074,0.596 0.0328,1.159999 0.128133,1.742666 0.09213,0.566667 -0.06667,1.121333 -0.239067,1.656 -0.271866,0.833333 0.04893,1.648 -0.04533,2.5 -0.07973,0.729333 -0.1948,1.372 -0.08653,2.112 0.07973,0.538667 0.05,1.013333 -0.250934,1.476 -0.5376,0.836 -0.133333,1.5 -0.150533,2.344 -0.01093,0.512 -0.498933,1.074667 -0.764133,1.482667 -0.410934,-0.618667 -0.763467,-1.577334 -1.067734,-2.777334 -0.8552,-1.176 -1.302,-2.812 -0.778533,-4.092 0.0052,-0.01467 0.0052,-0.02133 0.0099,-0.036 -0.05933,-0.42 -0.116134,-0.850666 -0.170267,-1.290666 -0.1964,-0.256 -0.457333,-0.502667 -0.676667,-0.822667 -0.1312,-0.194667 -0.214533,-0.598667 -0.106266,-0.828 0.0896,-0.193333 0.1844,-0.36 0.270933,-0.514667 0.06093,-0.48 0.1072,-0.974666 -0.221333,-1.525333 -0.126134,-0.212 -0.295867,-0.450667 -0.278667,-0.709333 0.01973,-0.294667 0.231733,-0.692 0.345333,-1.057333 0.0104,-0.03733 0.01973,-0.072 0.028,-0.106667 0.05,-0.193333 0.0672,-0.373333 -0.0057,-0.517333 -0.192245,-0.386677 -0.535445,-0.846677 -0.476645,-1.309344 0.08653,-0.664 0.306266,-1.265333 0.0256,-1.937333 -0.416667,-0.996 0.0224,-1.978667 -0.02187,-2.994667 -0.07613,-0.352 -0.1876,-0.696 -0.358933,-1.030666 -0.581227,-1.138667 0.4208,-1.624 0.1328,-2.848 -0.128134,-0.5453335 -0.321867,-1.0973335 -0.297867,-1.6653335 0.0083,-0.252 0.05253,-0.4973333 0.09733,-0.74 -0.0744,-0.4813333 -0.156666,-0.8 -0.2468,-0.9146666 C 12.551714,5.6893332 13.970967,5.9786666 13.448567,1.788 13.432437,1.66 13.413637,1.54 13.392837,1.4293334 c -0.0068,-0.032 -0.01293,-0.061333 -0.02027,-0.092 -0.0156,-0.076 -0.03227,-0.152 -0.05001,-0.22 -0.0083,-0.033333 -0.01875,-0.062667 -0.02865,-0.096 -0.01771,-0.06 -0.03489,-0.1186667 -0.0552,-0.17333337 -0.01095,-0.0306667 -0.02344,-0.0586667 -0.03437,-0.0866667 -0.0198,-0.0493333 -0.04011,-0.096 -0.06147,-0.14 -0.01301,-0.0266667 -0.02708,-0.0506667 -0.04115,-0.076 -0.02187,-0.0386667 -0.04323,-0.0773333 -0.06615,-0.112 -0.01509,-0.0226667 -0.0302,-0.0426667 -0.04583,-0.0626667 -0.02396,-0.0306667 -0.0474,-0.0613333 -0.07292,-0.0893333 -0.01563,-0.016 -0.03177,-0.032 -0.04948,-0.0493333 -0.025,-0.024 -0.05104,-0.0453333 -0.07812,-0.0666667 -0.01667,-0.0133333 -0.03385,-0.0253333 -0.05208,-0.036 -0.02709,-0.0173333 -0.05521,-0.03333334 -0.08387,-0.048 -0.01771,-0.0093333 -0.03593,-0.016 -0.0552,-0.02266667 -0.02865,-0.012 -0.05781,-0.02133333 -0.08855,-0.02933333 -0.01823,-0.0053333 -0.03697,-0.0093333 -0.05625,-0.01466667 C 12.422024,0.00933333 12.390774,0.00533333 12.359514,0.004 12.340764,0.004 12.321504,0 12.301704,0 c -0.03229,0 -0.06563,0.004 -0.09844,0.00533333 -0.01927,0.00133333 -0.03801,0.004 -0.05728,0.00666667 -0.03491,0.0026667 -0.06928,0.012 -0.104174,0.01866666 -0.01875,0.0053333 -0.03749,0.008 -0.05625,0.01466667 -0.03645,0.008 -0.075,0.02133333 -0.113013,0.03466666 -0.01667,0.0066667 -0.03281,0.012 -0.04948,0.01866667 -0.04688,0.01733333 -0.09219,0.03866667 -0.139587,0.06133333 -0.0073,0.002667 -0.01511,0.006667 -0.02448,0.0106667 -0.05364,0.0266667 -0.107813,0.056 -0.162493,0.088 -0.02344,0.0133333 -0.04636,0.0266667 -0.0698,0.0426667 -0.03072,0.0186667 -0.06249,0.0386667 -0.09323,0.0586667 -0.02864,0.0186667 -0.05573,0.04 -0.08437,0.056 -0.02552,0.02 -0.05156,0.0373333 -0.0776,0.056 -0.02969,0.0213333 -0.06043,0.0453333 -0.09063,0.0693333 -0.02136,0.0186667 -0.0448,0.0333333 -0.06615,0.0506667 -0.03177,0.028 -0.06303,0.0546667 -0.09584,0.08 -0.01927,0.016 -0.03957,0.0333333 -0.05937,0.0506667 -0.03385,0.028 -0.06563,0.056 -0.09792,0.0866667 -0.01719,0.0146667 -0.03333,0.028 -0.04895,0.0426667 -0.03543,0.032 -0.0698,0.0653333 -0.104173,0.096 -0.01249,0.0133333 -0.02552,0.0253333 -0.03855,0.0386667 -0.03593,0.0346667 -0.07135,0.0693333 -0.10624,0.10266671 -0.0089,0.00933 -0.01823,0.018667 -0.02709,0.028 -0.03905,0.038667 -0.07604,0.077333 -0.111973,0.116 -0.0031,0.00267 -0.0073,0.00533 -0.01093,0.010667 C 9.8845272,1.692 9.5881805,2.0906667 9.5881805,2.0906667 -4.5743258,17.668 -0.50869924,45.471999 5.6616073,56.983999 c -0.00676,-0.008 -0.013013,-0.01333 -0.018747,-0.02133 0.060413,0.114667 0.12396,0.216 0.1843734,0.326667 0.1114666,0.201333 0.2223999,0.402667 0.3338533,0.592 0.1046933,0.176 0.2104266,0.341333 0.3151066,0.510667 0.1041734,0.166666 0.2088534,0.333333 0.3145867,0.489333 0.12604,0.189333 0.25364,0.362667 0.3812533,0.534667 0.085933,0.116 0.1703067,0.242666 0.25624,0.352 0.2145867,0.274666 0.4307333,0.532 0.64584,0.762666 1.27864,1.372 2.6692664,2.306667 3.9979204,2.953333 -0.0047,-0.0027 -0.0099,-0.004 -0.01563,-0.004 0.03177,0.01467 0.06249,0.02933 0.09375,0.04267 0.115106,0.05467 0.2276,0.106667 0.341666,0.157333 0.132294,0.06 0.263547,0.114667 0.394787,0.168 0.107813,0.04533 0.214587,0.09067 0.32084,0.129334 0.188587,0.07333 0.37392,0.138666 0.556187,0.201333 0.1016,0.513333 0.0824,1.029333 -0.103067,1.58 -0.209867,0.624 0.614533,1.165333 1.063067,1.325333 1.350533,0.481334 1.9948,1.713334 2.701066,2.921334 0.361867,0.618666 0.845734,1.153333 1.204667,1.777333 0.25,0.434667 0.159867,0.789333 0.571333,1.133333 0.176534,0.146667 0.704667,0.08933 0.928667,0.125334 0.1676,0.02533 0.331733,0.06133 0.495333,0.102666 0.102,0.1 0.203067,0.192 0.304133,0.288 -0.6016,-0.004 -1.015199,0.02133 -1.122933,0.092 -1.195866,0.797334 8.616133,5.290667 17.086933,8.512 -0.4396,2.257333 -0.821867,4.589333 -1.124933,6.981333 -3.6204,-0.18 -5.532267,-0.388 -5.7344,-0.476 -0.09427,-0.04267 -0.188533,-0.02267 -0.278667,0.02533 -1.4036,-0.930667 -7.239066,-4.716 -8.1364,-5.4 C 21.1007,82.773334 20.4163,82.453334 20.4163,82.353334 c 0,-0.0027 0,-0.0053 0,-0.008 0,-0.09733 0.202667,-0.193333 0.211467,-0.292 0.02493,-0.256 0.155733,-0.518666 0.143733,-0.776 0.012,-0.04667 -0.07187,-0.136 -0.0932,-0.09067 -0.09267,0.184 -0.1136,0.414666 -0.141733,0.617333 -9.34e-4,0.0053 0.0095,0.012 0.0089,0.01733 -0.01147,-0.122666 -0.0208,-0.246666 -0.03187,-0.350666 -0.03227,-0.344 -0.06133,-0.441334 -0.1124,-0.78 -0.0052,-0.03333 -0.0948,0.178666 -0.1104,0.178666 -0.0016,0 -0.0016,0 -0.0027,0 H 19.94223 c -0.002,0 -0.5672,0 -0.5672,0 0,0 0,-0.476 0,-0.474666 0,0.208 0.379734,0.452 0.3896,0.685333 -0.01347,-0.03867 0.1964,-0.07467 0.180267,-0.113333 0.01507,-0.161334 0.118666,-0.329334 0.113466,-0.486667 -0.0061,-0.262667 0.0095,-0.532 -0.0468,-0.788 -0.0063,-0.032 -0.08333,-0.105333 -0.08547,-0.05733 -0.0099,0.205333 0.0084,0.408 0.01147,0.612 -0.01347,-0.092 -0.02133,-0.176 -0.0312,-0.242667 -0.03387,-0.278667 -0.0204,-0.694667 -0.187067,-0.932 -0.0061,-0.01333 -0.0744,-0.064 -0.0796,-0.02533 -0.03133,0.208 -0.0224,0.418666 -0.0099,0.632 -0.0032,-0.0053 -0.0052,-0.01067 -0.0079,-0.01867 -0.01507,-0.413333 -0.107334,-0.850667 -0.1844,-1.214667 -0.0057,-0.03067 -0.0828,-0.07733 -0.09893,-0.056 -0.0021,0 -0.0052,-0.0013 -0.0063,-0.0027 -0.064,0.144 -0.06667,0.316 -0.05627,0.488 -0.01973,-0.04133 -0.0396,-0.084 -0.05987,-0.126667 -0.0073,-0.08 -0.01773,-0.161333 -0.024,-0.24 -0.02133,-0.224 -0.0296,-0.454667 -0.0864,-0.676 -0.0073,-0.02133 -0.09227,-0.08933 -0.09747,-0.04533 -0.014,0.118666 -0.02187,0.238666 -0.02813,0.364 -0.0244,-0.116 -0.0556,-0.229334 -0.08587,-0.34 -0.0412,-0.142667 -0.07133,-0.290667 -0.114134,-0.430667 -0.01507,-0.05067 -0.110933,-0.250667 -0.09627,-0.305333 0,-0.0027 -0.0037,-0.008 -0.0037,-0.01067 0,-0.0053 -4e-4,-0.01067 -0.0052,-0.01733 -0.0041,-0.0067 -0.01093,-0.012 -0.01707,-0.01867 -0.0037,-0.0027 -0.0095,-0.0067 -0.01307,-0.01067 -0.0079,-0.0053 -0.01413,-0.0093 -0.0224,-0.012 -0.0063,-0.004 -0.01253,-0.0067 -0.0188,-0.008 -0.0077,0 -0.012,0.0013 -0.01613,0.004 -0.0047,0 -0.0099,0 -0.01453,0.0027 -0.05467,0.052 0.0077,0.366667 0.04107,0.526667 -0.388,-0.708 -0.7744,-1.256 -1.116667,-1.409334 -1.104666,-0.506666 2.347467,7.372 2.347467,7.372 0.0031,0.0027 0.0077,0.0027 0.012,0.0053 0.323333,1.534666 7.035866,5.790666 9.317733,7.197333 0.01187,0.07867 0.0228,0.161333 0.03747,0.230666 0.153066,0.173334 0.3536,0.369334 0.3968,0.408 0.333333,0.278667 0.692266,0.489334 1.099066,0.636 1.164534,0.248 2.845733,0.378667 4.686933,0.445334 -0.123466,1.325333 -0.220266,2.665333 -0.286933,4.018666 -3.485466,0.302667 -5.3376,0.353334 -5.545333,0.294667 -0.186,-0.05333 -0.348533,0.1 -0.465733,0.266667 -0.0276,-0.004 -0.05307,-0.0093 -0.08333,-0.0093 -1.1864,-0.03733 -8.951466,-0.409333 -10.131199,-0.524 -0.6468,-0.064 -1.051067,-0.192 -1.294267,-0.158666 -0.0021,0 -0.0025,-0.0027 -0.0052,-0.0053 -0.0412,-0.08667 -0.08387,-0.177333 -0.1276,-0.262666 -0.115067,-0.233334 -0.217733,-0.476 -0.3636,-0.689334 -0.01187,-0.04533 -0.169733,-0.05333 -0.165067,-0.0053 0.0188,0.206667 0.102134,0.425333 0.184934,0.612 0.0016,0.0053 0.0036,0.01067 0.0068,0.016 -0.07293,-0.09733 -0.152134,-0.194667 -0.2172,-0.28 -0.206267,-0.273333 -0.412534,-0.266667 -0.6328,-0.529333 -0.02187,-0.02667 -0.126134,0.284 -0.1292,0.284 -0.0016,0 -0.0021,0 -0.0036,0 0,0 0,-0.273334 0.002,-0.272 -5.34e-4,0 -0.002,-0.137334 -0.002,-0.137334 0.0015,0.0027 0.002,-0.068 0.0036,-0.06667 0.038,0.218666 0.171866,0.390666 0.302533,0.58 -0.03227,-0.02267 -0.06453,-0.06267 -0.09787,-0.088 -0.07347,-0.146667 -0.1708,-0.289334 -0.255733,-0.421334 -0.1448,-0.22 -0.320267,-0.434666 -0.503067,-0.622666 -0.02093,-0.024 -0.15,-0.03467 -0.126666,0.01067 0.1,0.178667 0.21,0.349334 0.318266,0.521334 -0.0588,-0.072 -0.116133,-0.136 -0.157733,-0.188 -0.1756,-0.22 -0.386533,-0.578667 -0.6516,-0.693334 -0.01253,-0.008 -0.098,-0.01467 -0.08333,0.02 0.08227,0.193334 0.200533,0.369334 0.322933,0.542667 -0.0063,-0.0027 -0.01253,-0.0067 -0.0188,-0.01067 -0.2276,-0.344 -0.536933,-0.308 -0.792667,-0.578666 -0.0208,-0.02533 -0.1104,0.364 -0.114133,0.364 -0.0025,0 -0.0052,0 -0.0063,0 0.02147,0 0.107867,-0.05333 0.2068,0.08667 -0.03853,-0.024 -0.07653,-0.229333 -0.115066,-0.256 -0.04947,-0.06267 -0.101067,-0.217333 -0.147467,-0.28 -0.1364,-0.18 -0.264533,-0.42 -0.428,-0.577333 -0.01667,-0.01467 -0.126667,-0.05067 -0.107333,-0.0093 0.0516,0.106666 0.107333,0.206666 0.1672,0.313333 -0.08187,-0.08533 -0.1672,-0.172 -0.251067,-0.249333 -0.110933,-0.1 -0.212533,-0.214667 -0.323973,-0.310667 -0.03801,-0.036 -0.22448,-0.156 -0.240627,-0.210667 -0.0026,-0.0027 -0.0078,-0.0053 -0.0094,-0.008 -0.0036,-0.004 -0.0057,-0.0093 -0.01405,-0.012 -0.0068,-0.004 -0.01511,-0.0067 -0.02292,-0.0067 -0.0063,0 -0.01251,-0.0027 -0.01771,-0.0027 -0.01095,0 -0.01667,0 -0.025,0.0027 -0.0078,0 -0.01459,0 -0.02084,0.0027 -0.0052,0.0027 -0.0078,0.0053 -0.01301,0.01067 -0.0026,0.004 -0.0078,0.0053 -0.0099,0.0093 -0.01875,0.072 0.20052,0.310667 0.310946,0.428 -0.70052,-0.398666 -1.318226,-0.262666 -1.689066,-0.216 -1.205734,0.148 5.863533,5.449334 5.863533,5.449334 0.0021,0 0.0036,0 0.0047,0 1.236533,2.082676 12.010933,1.088 12.010933,1.088 0.0308,-0.01067 0.0584,-0.224 0.08707,-0.238667 1.046267,0.312 3.135867,0.225333 5.516667,0.09733 -0.01147,0.717333 -0.01253,1.389333 -0.0052,2.108003 -2.917733,0.62533 -5.4792,1.13066 -6.269867,1.84266 -1.222933,0.5 -9.886933,5.51467 -10.481199,5.51467 -0.0021,0 -0.0037,0 -0.0063,0 0,0 -4.781333,7.33867 -3.604667,7.03333 0.362,-0.0893 0.839067,-0.468 1.346267,-1.09733 -0.0604,0.15333 -0.1776,0.5 -0.1328,0.56133 0.0043,0.005 0.0084,-0.128 0.01307,-0.12533 0.0052,0.004 0.0088,-0.12533 0.01613,-0.12533 0.0068,0 0.01253,0 0.01933,0 0.0088,0 0.01453,0.148 0.02387,0.14533 0.0057,-0.004 0.0104,0.0693 0.01613,0.0667 0.0063,-0.005 0.0136,-0.0907 0.0188,-0.096 0.0063,-0.007 0.0073,-0.116 0.0099,-0.116 h 0.0047 c -0.0047,0 0.125066,-0.11334 0.148,-0.15867 0.06773,-0.132 0.122933,-0.212 0.187466,-0.34267 0.05,-0.104 0.1,-0.17733 0.1448,-0.28933 -0.01667,0.12267 -0.0276,0.26133 -0.03653,0.37733 -0.0031,0.0467 0.09333,0.003 0.103733,-0.0173 0.09627,-0.20667 0.1432,-0.432 0.2036,-0.648 0.0208,-0.0747 0.04427,-0.152 0.0672,-0.22933 0.026,-0.0387 0.05267,-0.0747 0.07973,-0.11334 -0.03907,0.16667 -0.0672,0.33734 -0.03027,0.49067 0.0021,-0.001 0.0036,0 0.0079,-0.003 0.01293,0.0267 0.09533,-0.007 0.106266,-0.036 0.139067,-0.344 0.308267,-0.75866 0.395734,-1.164 0.0032,-0.004 0.0068,-0.0107 0.01093,-0.016 -0.05,0.20667 -0.09427,0.41467 -0.100933,0.624 0,0.0387 0.07653,0 0.08693,-0.009 0.202533,-0.20667 0.2688,-0.61733 0.350533,-0.88533 0.02027,-0.0627 0.04947,-0.144 0.08013,-0.23334 -0.03907,0.20134 -0.07907,0.4 -0.106134,0.60267 -0.0063,0.0507 0.110934,-0.005 0.1228,-0.0333 0.101067,-0.244 0.189067,-0.50134 0.240667,-0.75867 0.03173,-0.156 0.07187,-0.31733 0.08653,-0.48 0.02227,-0.0373 0.04467,-0.0667 0.06507,-0.10267 -0.05,0.22667 -0.101067,0.27334 -0.0552,0.49067 -0.0016,10e-4 -0.202133,-0.18933 -0.202133,-0.18933 h -0.639067 c 0,0 0,0.39333 0,0.396 0,-0.003 0.4224,-0.003 0.424533,-0.003 0.01147,0.024 0.322934,-0.009 0.333334,-0.0413 0.1072,-0.32667 -0.372934,-0.65334 -0.2828,-0.984 0.03013,-0.104 -0.475067,-0.22 -0.475067,-0.34134 0,0.007 0,0.012 0,0.0173 0,0.20666 0.674533,0.44 0.732267,0.63733 0.01253,0.048 0.495866,-0.0173 0.4928,-0.064 0.05627,-0.25333 0.2328,-0.51733 0.254133,-0.77333 0.0088,-0.0987 0.1016,-0.196 0.106267,-0.29334 0.0011,-10e-4 0.04427,-0.004 0.04587,-0.008 0.238534,-0.056 0.586934,-0.324 1.166133,-0.62 1.0552,-0.54133 8.155734,-3.73333 9.2468,-4.2 0.03133,-0.0133 0.06147,-0.032 0.0896,-0.048 0.113067,0.0547 0.232267,0.0787 0.337467,0.0133 0.181867,-0.112 1.951067,-0.55467 5.314666,-1.19467 0.06667,1.47867 0.173334,2.964 0.3244,4.45733 -2.873466,1.116 -5.394266,2.28134 -6.052533,3.13334 0,0 -0.0047,0.0213 -0.0095,0.0533 -1.393734,1.07867 -9.058267,7.09733 -9.0088,8.804 -0.0364,0.028 -0.07493,0.0493 -0.1088,0.0853 0,0 -1.020933,9.24134 -0.04227,8.36667 0.3016,-0.27067 0.523467,-0.96133 0.695333,-1.81733 0.01773,0.17466 0.05627,0.52133 0.130267,0.55733 0.0031,0.003 0.0093,0 0.01293,-0.001 0.0057,0 0.01093,0.001 0.0188,-0.004 0.0063,-0.003 0.01147,-0.005 0.0172,-0.0133 0.0063,-0.005 0.01147,-0.009 0.01827,-0.0173 0.0047,-0.008 0.0077,-0.0107 0.01133,-0.0187 0.0048,-0.008 -0.331733,-0.0133 -0.3312,-0.0213 0.0032,-0.009 -0.338533,-0.016 -0.338533,-0.0227 0,-0.003 0,-0.008 0,-0.0107 0,-0.052 0.343733,-0.28934 0.341733,-0.34534 0,-0.16133 0.151467,-0.32133 0.147334,-0.48266 -0.0027,-0.124 0.07813,-0.25067 0.064,-0.37867 0.04747,0.128 0.1396,0.25067 0.1912,0.36933 0.01827,0.0427 0.107866,-0.056 0.1068,-0.0813 -0.012,-0.24533 -0.06933,-0.48533 -0.1188,-0.72533 -0.01773,-0.0827 -0.0292,-0.168 -0.04587,-0.256 0.0057,-0.0493 0.0136,-0.1 0.02093,-0.148 0.04573,0.17866 0.106667,0.35866 0.2192,0.48666 0.0011,-0.004 0.0032,-0.005 0.0041,-0.007 0.02667,0.0187 0.0896,-0.0573 0.08653,-0.0893 -0.03853,-0.4 -0.08333,-0.884 -0.202133,-1.31333 0.0011,-0.007 0.0011,-0.016 0.0027,-0.0213 0.0552,0.224 0.1172,0.444 0.214534,0.64666 0.01773,0.04 0.074,-0.036 0.07813,-0.0507 0.09267,-0.29867 -0.04893,-0.724 -0.1052,-1.02534 -0.01253,-0.0707 -0.02453,-0.16133 -0.03853,-0.26133 0.06253,0.212 0.1224,0.42267 0.1984,0.62933 0.0188,0.052 0.1032,-0.0613 0.1,-0.092 -0.02387,-0.28266 -0.06773,-0.576 -0.145734,-0.84933 -0.04693,-0.164 -0.09013,-0.34 -0.1568,-0.50267 0.0036,-0.0453 -0.6224,-0.0853 -0.6188,-0.13066 0.06413,0.24266 -0.343733,0.49733 -0.343733,0.68533 0,0.003 0,0.412 0,0.412 h 1.264 c 0,0 0.0021,-0.19733 0.0043,-0.196 0,-0.001 0,-0.10667 0.002,-0.10667 0.02453,0.016 0.103733,-0.116 0.09693,-0.15333 -0.0584,-0.36533 -0.133333,-0.75067 -0.2088,-1.11467 -0.02347,-0.112 -0.04693,-0.25733 -0.0756,-0.38933 0.0027,0.007 0.0041,0.004 0.0079,0.0107 0.09573,0.2 0.214,0.42133 0.368133,0.58133 0.03813,0.04 0.140667,-0.096 0.115733,-0.13733 -0.0724,-0.27067 -0.769866,-0.528 -0.8772,-0.78667 -0.04107,-0.0973 -0.697333,-0.196 -0.697333,-0.292 0,-0.004 0,-0.007 0,-0.012 0,-0.17333 1.022933,-0.48533 1.435467,-0.86667 0.924933,-0.84933 7.555733,-6.108 8.538533,-6.892 0.06813,-0.0547 0.2672,-0.11466 0.314533,-0.176 0.437467,-0.236 2.1464,-0.924 5,-1.968 0.4536,3.172 1.1552,6.35467 2.074,9.52267 0.07133,0.24 0.309333,0.39733 0.550533,0.39733 0.05,0 0.112,-0.007 0.163467,-0.0227 0.294267,-0.084 0.467733,-0.392 0.381867,-0.68534 -0.926667,-3.192 -1.589067,-6.40133 -2.036534,-9.596 2.429734,-0.87333 5.5964,-1.952 9.514534,-3.2 0.186,0.10134 0.422399,0.152 0.731866,0.13734 0.3448,-0.016 1.189067,-0.168 2.230133,-0.37867 0.0021,0.003 0.0032,0.005 0.0047,0.008 0,0 0.03493,0.0827 0.108933,0.172 -0.147466,0.66267 -0.3636,1.992 -0.2104,3.612 0.2172,2.336 0.764534,6.66533 1.8568,6.75333 0.05413,0.004 0.118667,-0.001 0.187467,-0.0107 l -0.1172,0.22933 c 0,0 -0.481733,1.77867 -0.288533,4.176 0.189066,2.36267 0.768666,5.81467 1.708266,6.00133 -0.002,0.001 -0.0057,0.004 -0.0072,0.005 0,0 -0.506266,0.49466 -0.360933,2.116 0.128533,1.45333 0.7448,4.52 1.7348,5.33866 -0.02293,0.27467 -0.026,0.60267 0.0032,1.00267 0.115067,1.50667 0.740533,4.63867 1.588,5.40133 -0.01613,0.016 -0.03653,0.0333 -0.05213,0.052 0,0 -0.377067,0.42934 -0.268667,1.84667 0.1072,1.41333 0.730667,4.47867 1.555733,4.828 0.07187,0.028 0.156667,0.064 0.249467,0.096 0.01613,0.007 0.03227,0.012 0.04947,0.0187 0.01613,0.005 0.03173,0.0107 0.05,0.0187 -0.08653,0.0813 -0.166667,0.164 -0.236534,0.248 0,0 -0.313466,0.35734 -0.2244,1.536 0.06973,0.91067 0.395867,2.63734 0.8568,3.51067 -0.03813,0.003 -0.0772,0.004 -0.114666,0.007 -0.0244,0.003 -0.04893,0.004 -0.07293,0.005 -0.1396,0.009 -0.281733,0.0173 -0.429066,0.028 -0.0048,10e-4 -0.0089,0.716 -0.01307,0.716 -0.619867,0.0427 -1.299467,-1.19867 -2.007867,0.884 0.0016,0 0.0037,0 0.0047,0 -3.0676,0 -6.632267,0.20267 -7.816667,1.388 0,0 -2.743733,0.1 -3.331733,3.30267 -0.505733,2.75333 2.369334,5.8 4.514667,6.072 -0.199067,0.496 -0.3876,0.93333 -0.558934,1.49066 l 1.054667,-1.616 c 0.0104,0 0.01987,-0.0227 0.0292,-0.0253 0.03907,0.11067 0.08333,0.20933 0.1344,0.31733 -0.286,0.67734 -0.576,1.39867 -0.698,1.81867 -0.1604,0.54667 0.462533,-0.39333 1.010533,-1.27333 0.0796,0.12 0.1676,0.236 0.261867,0.352 l -0.544267,1.77733 0.9448,-1.34267 c 0.062,0.0613 0.125067,0.12267 0.1912,0.18267 l -0.6036,1.70667 0.976534,-1.392 c 0.05,0.0387 0.102,0.0773 0.1536,0.116 l -0.645867,1.588 1.0896,-1.27867 c 0.08027,0.0533 0.162,0.10267 0.244267,0.15333 l -0.616134,1.28267 1.014134,-1.05733 c 0.09427,0.0507 0.188,0.10133 0.2844,0.14933 -0.506267,0.748 -0.922,1.39867 -0.5808,1.05333 0.197466,-0.2 0.466133,-0.56133 0.749466,-0.97466 0.06467,0.0307 0.129734,0.0613 0.194267,0.092 l -0.657333,1.24533 c 0.3464,-0.364 0.6724,-0.73467 0.981866,-1.10933 0.1344,0.056 0.2692,0.108 0.406267,0.15866 -0.02667,0.40267 -0.04747,0.816 -0.05573,1.23867 l 0.353066,-1.13467 c 0.120267,0.0387 0.2396,0.076 0.360934,0.11067 -0.06147,0.488 -0.105734,0.944 -0.108267,1.24 -0.0037,0.49067 0.166667,-0.28133 0.338533,-1.176 0.101067,0.0267 0.202,0.0533 0.3036,0.0787 l -0.03173,1.50133 0.493733,-1.40667 c 0.0932,0.0187 0.187467,0.0333 0.279734,0.0467 l -0.113067,1.74133 0.588,-1.68 c 0.05627,0.005 0.112,0.0107 0.1672,0.0173 l -0.204133,1.832 0.831733,-1.81067 c 0.06973,0 0.140133,0 0.2088,-0.003 l -0.306667,1.76934 0.9744,-1.83334 c 0.08333,-0.0107 0.166667,-0.0227 0.246934,-0.04 -0.3636,1.064 -0.783334,2.35067 -0.4912,1.81867 0.228666,-0.41733 0.666133,-1.244 1.0568,-1.984 0.158266,-0.0573 0.308266,-0.12533 0.445866,-0.20133 l -0.3568,1.36666 c 0.324934,-0.61333 0.599467,-1.19066 0.839067,-1.732 0.0077,-0.009 0.01827,-0.0147 0.026,-0.0253 0.145333,-0.148 -0.231733,-0.33333 -0.08853,-0.54667 0.1432,0.59734 0.128666,1.264 0.128666,1.99467 v -1.65386 c 0,0.0547 0.595334,0.11467 0.636,0.16667 0,0 0.3572,0.10533 0.538533,0.252 0.2948,0.72533 0.810934,1.66667 1.004134,2.10667 0.213466,0.488 0.153066,-0.67467 0.0328,-1.588 0.102133,0.0493 0.242666,0.096 0.359333,0.14266 l 0.6932,1.63734 0.2068,-1.368 c 0.109867,0.0253 0.214133,0.0547 0.331867,0.076 l 0.458266,1.47466 0.346934,-0.66266 c 0.0083,0 0.0176,0.71466 0.02547,0.71466 h 0.119334 c 0.04427,0 0.0796,-0.724 0.1228,-0.72666 l 0.193866,1.01066 0.486934,-1.628 c 0.1244,-0.024 0.2328,-0.14133 0.3468,-0.168 l 0.199066,1.32134 0.677067,-1.65867 c 0.1172,-0.0467 0.2244,-0.104 0.325467,-0.152 -0.120267,0.91333 -0.245867,2.06533 -0.0312,1.58133 0.192666,-0.44 0.578133,-1.38266 0.873466,-2.10666 0.183734,-0.148 -0.2448,-0.25734 -0.2448,-0.25734 0.03907,-0.052 -0.414666,-0.11066 -0.414666,-0.164 v 1.65067 c 0,-1.00667 1.180266,-1.89867 1.314666,-2.65067 0.3156,0.83067 0.9952,1.78134 1.552,2.83067 l -0.290535,-1.61467 c 0.1296,0.12934 0.346267,0.24267 0.509867,0.34134 0.401466,0.76 0.901466,1.644 1.141066,2.08 0.289067,0.52666 -0.109866,-0.748 -0.468666,-1.79734 0.08533,0.028 0.180133,0.0533 0.270266,0.076 l 0.947867,1.77734 -0.285867,-1.66 c 0.07813,0.009 0.1604,0.0147 0.240667,0.02 l 0.773867,1.68133 -0.185334,-1.66667 c 0.06613,-0.001 0.133867,-0.008 0.200934,-0.0107 l 0.528666,1.51066 -0.100533,-1.54266 c 0.108933,-0.0107 0.218267,-0.0227 0.328133,-0.0387 l 0.423467,1.20533 -0.02653,-1.26933 c 0.112533,-0.02 0.225466,-0.044 0.339066,-0.0667 0.152533,0.77867 0.2932,1.37867 0.290133,0.93734 -0.0027,-0.244 -0.0328,-0.59734 -0.07813,-0.98934 0.1344,-0.0307 0.267733,-0.0653 0.403067,-0.10533 l 0.274,0.88 c -0.0063,-0.32267 -0.0208,-0.63867 -0.038,-0.95067 0.193733,-0.06 0.386933,-0.12533 0.579066,-0.196 0.246934,0.29067 0.502667,0.58 0.7724,0.86267 l -0.510939,-0.96657 c 0.0792,-0.0307 0.157867,-0.0613 0.233867,-0.096 0.211466,0.29867 0.4084,0.55067 0.559466,0.70667 0.2968,0.29867 0.01613,-0.16267 -0.3964,-0.78 0.115067,-0.052 0.230267,-0.104 0.342667,-0.15867 l 0.7636,0.79467 -0.459333,-0.956 c 0.110933,-0.06 0.219733,-0.12133 0.326533,-0.18667 l 0.840533,0.98667 -0.489066,-1.20533 c 0.07667,-0.0507 0.1548,-0.1 0.229733,-0.15467 l 0.737467,1.052 -0.449467,-1.26933 c 0.101067,-0.0787 0.197467,-0.15734 0.292267,-0.24 l 0.682266,0.97066 -0.381733,-1.252 c 0.135333,-0.13466 0.2624,-0.272 0.3796,-0.41333 0.449467,0.69867 0.852667,1.26267 0.7208,0.81333 -0.08427,-0.29066 -0.248933,-0.72666 -0.438,-1.19333 0.09227,-0.13867 0.176667,-0.27867 0.249467,-0.424 l 0.702666,1.04667 c -0.159866,-0.52 -0.336,-1.01334 -0.519333,-1.48134 0.06093,-0.17733 0.106267,-0.36 0.137067,-0.544 0.238,0.156 0.494266,0.29867 0.772933,0.42134 2.0916,0.91333 6.077067,-2.94134 5.488533,-6.14267 -0.5876,-3.20133 -3.331866,-3.65867 -3.331866,-3.65867 -1.818134,-1.816 -9.230133,-2.27733 -11.8656,-2.38666 0.436,-0.892 0.719333,-2.56267 0.784933,-3.43734 0.0896,-1.17866 -0.223466,-1.536 -0.223466,-1.536 -0.07653,-0.0933 -0.162534,-0.18266 -0.2588,-0.27066 0.0468,-0.012 0.08907,-0.0267 0.1312,-0.04 0.088,-0.0267 0.167733,-0.0507 0.239066,-0.0707 0.869867,-0.248 1.4484,-3.41467 1.557334,-4.828 0.106266,-1.41733 -0.2688,-1.84667 -0.2688,-1.84667 -0.01093,-0.012 -0.02547,-0.0253 -0.03693,-0.0387 0.878134,-0.69067 1.4568,-3.912 1.571333,-5.41467 0.02867,-0.388 0.02547,-0.708 0.0047,-0.976 1.000533,-0.76267 1.6052,-3.912 1.734933,-5.36533 0.108267,-1.21734 -0.149466,-1.79734 -0.284933,-2.012 0.02133,0.001 0.0484,0.001 0.06827,0.004 0.0744,0.003 0.1396,0 0.194266,-0.007 0.964534,-0.0867 1.1692,-3.71067 1.362,-6.108 0.193734,-2.39733 -0.288533,-4.176 -0.288533,-4.176 l -0.136573,-0.26227 c 0.03707,0.008 0.06827,0.012 0.102133,0.0173 0.02493,0.005 0.0552,0.0133 0.0792,0.016 0.07853,0.0107 0.15,0.0147 0.2104,0.0107 1.092133,-0.088 1.638,-4.41733 1.8572,-6.75333 0.170933,-1.82533 -0.1244,-3.27733 -0.261467,-3.828 0.0032,-0.005 0.0068,-0.0133 0.01107,-0.0213 1.164,0.24266 2.128,0.42 2.501467,0.436 0.310933,0.0147 0.545866,-0.036 0.732266,-0.13734 3.918267,1.248 7.083867,2.32667 9.514133,3.2 -0.447866,3.19467 -1.1136,6.404 -2.0396,9.596 -0.086,0.29334 0.08333,0.60134 0.3776,0.68534 0.05213,0.016 0.104134,0.0227 0.154667,0.0227 0.240667,0 0.462533,-0.15733 0.5328,-0.39733 0.9188,-3.168 1.585467,-6.35067 2.0396,-9.52267 2.848933,1.04267 4.486,1.72934 4.925067,1.96534 0.0484,0.064 0.104133,0.124 0.173333,0.17866 0.982933,0.784 7.003192,6.04267 7.928122,6.892 0.41414,0.38134 0.54174,0.696 0.54174,0.86667 0,0.005 0,0.008 0,0.012 0,0.096 0.23906,0.19467 0.1984,0.292 -0.10827,0.25733 -0.0719,0.51333 -0.14374,0.784 -0.0271,0.0413 0.1584,0.17733 0.19534,0.13733 0.1552,-0.16266 0.31346,-0.384 0.4104,-0.58533 5.3e-4,-0.005 0.0255,-0.0107 0.0271,-0.016 -0.0292,0.13067 -0.0407,0.26267 -0.0651,0.37467 -0.0765,0.364 -0.14694,0.72533 -0.20467,1.09066 -0.006,0.0373 0.0739,0.11867 0.0995,0.1 0.001,0.003 0.002,0.20934 0.004,0.21067 10e-4,-0.001 0.004,0.196 0.005,0.196 h -0.526 v -0.31474 c 0,-0.18666 0.48746,-0.48933 0.55053,-0.73333 0.004,0.0427 0.14107,0.0613 0.1448,0.10667 -0.0667,0.16266 -0.0432,0.32666 -0.0896,0.48933 -0.0797,0.27333 -0.0901,0.55867 -0.1136,0.84267 -0.005,0.032 0.0975,0.14133 0.11667,0.0893 0.0751,-0.20667 0.14426,-0.41867 0.20626,-0.62933 -0.0145,0.0987 -0.0213,0.19066 -0.0349,0.25866 -0.0541,0.30134 -0.19573,0.72667 -0.10307,1.02534 0.005,0.0147 -0.42546,0.0907 -0.40733,0.0533 0.0991,-0.20533 -0.26973,-0.42533 -0.26973,-0.64933 0,0.005 0,0.0147 0,0.0213 0,0.42933 0.3244,0.91333 0.28586,1.31333 -0.002,0.032 0.30374,0.108 0.32867,0.0893 0.002,0.001 0.12507,0.003 0.12707,0.007 0.112,-0.128 0.23186,-0.308 0.2776,-0.48666 0.006,0.048 0.0428,0.0987 0.05,0.148 -0.0171,0.088 -0.0187,0.17333 -0.0364,0.256 -0.0511,0.24 -0.11094,0.48 -0.12187,0.72533 -0.002,0.0253 0.0703,0.124 0.0901,0.0813 0.0505,-0.11866 0.10147,-0.24133 0.1468,-0.36933 -0.012,0.128 -0.0156,0.25467 -0.0181,0.37867 -0.005,0.16133 -0.5756,0.32133 -0.5772,0.48266 -9.3e-4,0.056 -0.55253,0.29334 -0.55253,0.34534 0,0.003 0,0.008 0,0.0107 0,0.007 0.5516,0.0133 0.55626,0.0227 0.001,0.008 0.2812,0.0133 0.2864,0.0213 0.004,0.008 0.1464,0.0107 0.15,0.0187 0.007,0.008 0.0803,0.012 0.088,0.0173 0.005,0.008 0.0464,0.0107 0.0516,0.0133 0.008,0.005 0.0303,0.004 0.0365,0.004 0.005,0.001 0.0187,0.004 0.0228,0.001 0.0729,-0.036 0.1152,-0.38267 0.13333,-0.55733 0.17147,0.856 0.3964,1.54666 0.69747,1.81733 0.97866,0.87467 -0.0423,-8.36667 -0.0423,-8.36667 -0.0333,-0.036 -0.0697,-0.0573 -0.10613,-0.0853 0.0489,-1.70667 -7.6136,-7.72267 -9.009462,-8.804 -0.0036,-0.032 -0.0083,-0.0533 -0.0083,-0.0533 -0.659466,-0.852 -3.179733,-2.01734 -6.054133,-3.13334 0.150933,-1.492 0.257733,-2.97866 0.3228,-4.45733 3.364133,0.64 5.1324,1.08267 5.314133,1.19467 0.1052,0.0653 0.221867,0.0413 0.3344,-0.0133 0.02907,0.016 0.0536,0.0347 0.08587,0.048 1.090667,0.46667 8.179192,3.65867 9.234392,4.2 0.57813,0.296 0.90733,0.56267 1.14587,0.62 0.002,0.004 0.002,0.007 0.003,0.008 0.005,0.0973 0.0125,0.19467 0.0219,0.29334 0.0213,0.256 0.0287,0.52 0.0844,0.77333 -0.004,0.0467 -0.5964,0.112 -0.58227,0.064 0.0577,-0.19733 -0.68386,-0.43067 -0.68386,-0.63733 0,-0.005 0,-0.0107 0,-0.0173 0,0.12134 0.8052,0.23734 0.83493,0.34134 0.0905,0.33066 0.55107,0.65733 0.65933,0.984 0.0115,0.032 -0.1776,0.0653 -0.16666,0.0413 0.002,0 -0.2864,0 -0.2864,0.003 0,-0.003 0,-0.396 0,-0.396 h 0.51706 c 0,0 0.21667,0.19066 0.21574,0.18933 0.0453,-0.21733 0.102,-0.36133 0.0515,-0.58667 0.0209,0.0347 0.098,0.11467 0.11987,0.14934 0.0135,0.16266 0.0817,0.34933 0.11253,0.50533 0.0525,0.25867 0.1536,0.52667 0.25467,0.77067 0.012,0.0293 0.1348,0.0893 0.13013,0.04 -0.0281,-0.20267 -0.0645,-0.39867 -0.10253,-0.59867 0.0301,0.0893 0.0609,0.17067 0.0817,0.23333 0.0808,0.26667 0.14787,0.68 0.35054,0.88667 0.01,0.009 0.0891,0.048 0.0875,0.009 -0.006,-0.20933 -0.0516,-0.41733 -0.0995,-0.624 0.002,0.005 0.007,0.012 0.0109,0.016 0.0869,0.40534 0.2552,0.82 0.3948,1.164 0.0115,0.0293 0.0937,0.0627 0.1068,0.036 0.004,0.003 0.004,0.003 0.007,0.003 0.0369,-0.152 0.0104,-0.324 -0.0297,-0.49067 0.026,0.0387 0.0525,0.076 0.0792,0.116 0.0219,0.0773 0.0457,0.156 0.0667,0.23067 0.0609,0.216 0.1088,0.44533 0.20466,0.65067 0.009,0.0213 0.10627,0.0733 0.10254,0.0267 -0.008,-0.116 -0.0192,-0.23866 -0.0353,-0.36266 0.0448,0.11066 0.0948,0.21733 0.14427,0.32 0.0645,0.13333 0.12027,0.27333 0.18747,0.40533 0.024,0.0453 0.1536,0.22533 0.1484,0.28267 0,0.004 0.004,0.007 0.005,0.009 0.002,0.005 0.003,0.0107 0.008,0.0173 0.006,0.004 0.0125,0.009 0.0197,0.0147 0.005,0.004 0.0104,0.005 0.0156,0.009 0.009,0.004 0.0157,0.005 0.024,0.007 0.007,0.001 0.0131,0.004 0.0188,0.004 0.008,0 0.0115,-0.004 0.0177,-0.005 0.004,-0.001 0.008,-0.001 0.0129,-0.005 0.0437,-0.0613 -0.0724,-0.36133 -0.1328,-0.512 0.50573,0.628 0.9828,0.91067 1.34533,1 1.17653,0.30534 -3.60413,-7.03333 -3.60413,-7.03333 -0.003,0 -0.004,0 -0.005,0 -0.5948,0 -9.26,-5.03733 -10.482795,-5.53867 -0.790667,-0.71466 -3.3516,-1.33866 -6.2688,-1.964 0.0057,-0.72266 0.0057,-1.392 -0.0057,-2.109332 2.380667,0.128 4.469734,0.133333 5.516667,-0.176 0.02813,0.01333 0.05573,0.442666 0.0864,0.450666 0,0 10.774528,1.008006 12.010928,-1.074666 0.001,0 0.003,0 0.004,0 0,0 7.06973,-5.301334 5.86453,-5.449334 -0.37133,-0.04667 -0.98906,0.01733 -1.69013,0.416 0.112,-0.118666 0.33027,-0.456 0.31147,-0.528 -0.002,-0.0053 -0.007,-0.056 -0.0104,-0.06 -0.004,-0.0027 -0.006,-0.03333 -0.0125,-0.036 -0.007,-0.0027 -0.0129,-0.296 -0.0192,-0.3 -0.01,0 -0.0156,-0.289333 -0.026,-0.289333 -0.006,0 -0.0111,0 -0.0183,0 -0.007,0 -0.0172,0.282667 -0.0229,0.289333 -0.008,0.0013 -0.0109,0.146667 -0.0141,0.152 -0.001,0.0027 -0.008,0.07333 -0.009,0.07733 -0.0156,0.052 -0.20307,0.208 -0.24013,0.244 -0.1124,0.096 -0.214,0.225333 -0.3244,0.325333 -0.0839,0.076 -0.16987,0.166667 -0.2516,0.250667 0.0593,-0.106667 0.11613,-0.212 0.1672,-0.32 0.0183,-0.04133 -0.0907,-0.024 -0.10787,-0.0093 -0.16347,0.158667 -0.29107,0.353334 -0.4276,0.532 -0.0468,0.06267 -0.0979,0.129334 -0.1468,0.193334 -0.038,0.02533 -0.0776,0.410666 -0.11613,0.434666 0.0989,-0.14 0.1864,-0.08667 0.20773,-0.08667 -0.002,0 -0.004,0 -0.006,0 -0.005,0 -0.0932,-0.389334 -0.11507,-0.364 -0.25627,0.270666 -0.56507,0.414666 -0.7932,0.756 -0.006,0.008 -0.0109,-0.07867 -0.0177,-0.07733 0.1224,-0.172 0.23906,-0.394666 0.32293,-0.586666 0.0151,-0.036 -0.0708,-0.052 -0.0839,-0.044 -0.26466,0.114666 -0.47706,0.462666 -0.6516,0.684 -0.0416,0.04933 -0.0984,0.108 -0.1588,0.178666 0.10934,-0.170666 0.2192,-0.345333 0.3192,-0.522666 0.0229,-0.044 -0.10573,-0.036 -0.12546,-0.01467 -0.18387,0.190667 -0.35987,0.394667 -0.50414,0.616 -0.0849,0.133333 -0.1824,0.266667 -0.25626,0.414667 -0.0328,0.024 -0.0652,0.318666 -0.0985,0.342666 0.13187,-0.192 0.26627,-0.342666 0.30374,-0.342666 5.3e-4,0 0.003,0 0.004,0 0,0 -10e-4,0.004 -0.003,0.004 0.003,-0.004 0.003,-0.004 0.004,-0.004 -0.002,0 -0.003,0 -0.005,0 -0.002,0 -0.10734,-0.310667 -0.12867,-0.284 -0.2208,0.262666 -0.42707,0.394666 -0.63387,0.669333 -0.0651,0.084 -0.14213,0.109333 -0.21613,0.209333 0.002,-0.0067 0.005,-0.04267 0.006,-0.04933 0.0833,-0.188 0.1656,-0.424 0.18533,-0.629333 0.005,-0.05067 -0.1536,-0.052 -0.16707,-0.004 -0.1448,0.213333 -0.24693,0.452 -0.36093,0.684 -0.0453,0.08667 -0.0881,0.173333 -0.12813,0.261333 -0.004,0.0027 -0.004,0.0027 -0.006,0.0053 -0.24386,-0.032 -0.64746,0.092 -1.29426,0.156 -1.17867,0.117334 -8.9448,0.486667 -10.131335,0.524 -0.0292,0 -0.05467,0.0053 -0.08333,0.0093 -0.1172,-0.166667 -0.2792,-0.32 -0.466133,-0.266667 -0.2068,0.05867 -2.0588,0.008 -5.5432,-0.294667 -0.06827,-1.353333 -0.165067,-2.693333 -0.288,-4.018666 1.841066,-0.06667 3.5208,-0.197334 4.685866,-0.445334 0.407334,-0.146666 0.7656,-0.357333 1.098934,-0.636 0.04427,-0.03867 0.244266,-0.234666 0.398,-0.408 0.01347,-0.06933 0.02493,-0.152 0.0364,-0.230666 2.282798,-1.406667 8.995328,-5.662667 9.318798,-7.197333 0.004,-0.0027 0.008,-0.0027 0.0115,-0.0053 0,0 3.45254,-7.878666 2.34734,-7.372 -0.3416,0.153334 -0.72814,0.701334 -1.1156,1.409334 0.0333,-0.16 0.0943,-0.474667 0.0396,-0.526667 -0.003,-0.0027 -0.009,-0.0027 -0.0125,-0.0027 -0.006,-0.0027 -0.0115,-0.004 -0.0177,-0.004 -0.007,0.0013 -0.0119,0.004 -0.0181,0.008 -0.009,0.0027 -0.0147,0.0067 -0.0224,0.012 -0.005,0.004 -0.0104,0.008 -0.0136,0.01067 -0.007,0.0067 -0.0129,0.012 -0.0167,0.01867 -0.004,0.0067 -0.005,0.012 -0.006,0.01733 0,0.0027 -0.003,0.008 -0.003,0.01067 0.0145,0.05467 -0.0813,0.254666 -0.0959,0.305333 -0.0437,0.14 -0.0724,0.288 -0.114,0.430667 -0.0319,0.110666 -0.0625,0.224 -0.0865,0.34 -0.006,-0.125334 -0.014,-0.245334 -0.0287,-0.364 -0.005,-0.044 -0.0911,0.024 -0.0963,0.04533 -0.0579,0.221333 -0.0656,0.452 -0.0865,0.676 -0.007,0.07867 -0.0177,0.16 -0.0249,0.24 -0.0193,0.04267 -0.0391,0.08533 -0.0579,0.126667 0.009,-0.172 0.007,-0.344 -0.0577,-0.488 -0.002,0.0013 -0.004,0.0027 -0.005,0.0027 -0.0177,-0.02133 -0.0939,0.02533 -0.10054,0.056 -0.0756,0.364 -0.16933,0.801334 -0.1828,1.214667 -0.003,0.008 -0.006,0.01333 -0.01,0.01867 0.0131,-0.213334 0.0209,-0.424 -0.009,-0.632 -0.006,-0.03867 -0.0771,0.012 -0.0828,0.02533 -0.16613,0.237333 -0.1584,0.653333 -0.1912,0.932 -0.009,0.06667 -0.0239,0.150667 -0.0369,0.242667 0.003,-0.204 0.007,-0.406667 -0.003,-0.612 -0.001,-0.048 -0.1068,0.02533 -0.11307,0.05733 -0.0589,0.256 -0.0989,0.525333 -0.10573,0.788 -0.003,0.157333 -0.0151,0.325333 5.3e-4,0.486667 -0.0161,0.03867 0.0468,0.07467 0.0328,0.113333 0.009,-0.233333 0.0161,-0.477333 0.0161,-0.685333 0,-0.0013 0,0.474666 0,0.474666 0,0 -0.45,0 -0.45214,0 h 0.14374 c -0.002,0 0.0704,0 0.0688,0 -0.0156,0 -0.0708,-0.212 -0.0755,-0.178666 -0.0516,0.338666 -0.0661,0.557333 -0.0989,0.9 -0.0105,0.105333 -0.0167,0.169333 -0.0281,0.290666 -0.001,-0.0053 0.004,-0.04267 0.001,-0.04533 -0.0276,-0.206667 -0.0692,-0.449333 -0.16093,-0.634667 -0.0213,-0.044 -0.15054,0.03733 -0.1364,0.08267 -0.0141,0.258667 0.0271,0.517333 0.0511,0.773333 0.008,0.09867 0.0187,0.193334 0.0307,0.289334 -5.3e-4,0.004 -5.3e-4,0.0053 -0.003,0.0067 -0.224,0.1 -0.50107,0.421334 -1.01827,0.813334 -0.898,0.684 -6.549995,4.469333 -7.954128,5.4 -0.08853,-0.048 -0.1844,-0.068 -0.278667,-0.02533 -0.200533,0.088 -2.114133,0.296 -5.733333,0.476 -0.304134,-2.392 -0.687067,-4.724 -1.126134,-6.981333 8.472,-3.221333 18.282932,-7.714666 17.087062,-8.512 -0.1084,-0.07067 -0.52133,-0.096 -1.1224,-0.092 0.1016,-0.096 0.20107,-0.188 0.30467,-0.288 0.162,-0.04133 0.326,-0.07733 0.4948,-0.102666 0.22453,-0.036 0.7516,0.02133 0.92866,-0.125334 0.4104,-0.344 0.32187,-0.698666 0.57187,-1.133333 0.35773,-0.624 0.84107,-1.158667 1.20467,-1.777333 0.70413,-1.208 1.34786,-2.44 2.70053,-2.921334 0.4484,-0.16 1.27293,-0.701333 1.06253,-1.325333 -0.186,-0.550667 -0.20626,-1.064 -0.1032,-1.58 0.1828,-0.06267 0.36987,-0.128 0.55987,-0.201333 0.1016,-0.03867 0.2048,-0.08267 0.3084,-0.124 0.1364,-0.05733 0.274,-0.113334 0.412,-0.176 0.10827,-0.04933 0.21667,-0.1 0.326,-0.150667 0.0344,-0.016 0.0677,-0.02933 0.1016,-0.04667 -0.005,0 -0.0109,0.0013 -0.0161,0.004 1.32866,-0.646666 2.71973,-1.581333 3.99786,-2.953333 0.21454,-0.230666 0.43027,-0.488 0.64587,-0.762666 0.0864,-0.110667 0.1724,-0.236 0.2588,-0.354667 0.12653,-0.172 0.2532,-0.342667 0.37867,-0.530667" /></svg>
