<?xml version="1.0" encoding="UTF-8" standalone="no"?>
<svg
   width="1063"
   height="502"
   viewBox="0 0 1063 502"
   version="1.1"
   id="svg826"
   sodipodi:docname="scombridae.svg"
   inkscape:version="1.1.2 (b8e25be8, 2022-02-05)"
   xmlns:inkscape="http://www.inkscape.org/namespaces/inkscape"
   xmlns:sodipodi="http://sodipodi.sourceforge.net/DTD/sodipodi-0.dtd"
   xmlns="http://www.w3.org/2000/svg"
   xmlns:svg="http://www.w3.org/2000/svg">
  <defs
     id="defs830" />
  <sodipodi:namedview
     id="namedview828"
     pagecolor="#ffffff"
     bordercolor="#666666"
     borderopacity="1.0"
     inkscape:pageshadow="2"
     inkscape:pageopacity="0.0"
     inkscape:pagecheckerboard="0"
     showgrid="false"
     inkscape:zoom="1.0752587"
     inkscape:cx="253.42738"
     inkscape:cy="261.79746"
     inkscape:window-width="1312"
     inkscape:window-height="969"
     inkscape:window-x="0"
     inkscape:window-y="25"
     inkscape:window-maximized="0"
     inkscape:current-layer="svg826" />
  <path
     d="M 721 2.390 C 716.875 3.630, 708.100 6.801, 701.500 9.437 C 694.900 12.074, 684.325 16.858, 678 20.070 C 671.675 23.281, 661.178 29.071, 654.673 32.937 C 648.169 36.802, 637.594 43.459, 631.173 47.728 C 624.753 51.998, 611.625 61.408, 602 68.640 C 592.375 75.871, 577.767 87.492, 569.538 94.464 C 561.308 101.436, 546.594 114.483, 536.838 123.457 C 526.864 132.632, 517.103 140.740, 514.534 141.984 C 512.022 143.200, 508.182 144.434, 506.002 144.727 C 503.822 145.019, 500.701 144.705, 499.068 144.028 C 497.434 143.351, 495.443 141.798, 494.642 140.577 C 493.842 139.355, 492.624 136.475, 491.935 134.178 C 490.980 130.990, 490.184 130, 488.574 130 C 487.414 130, 484.681 128.788, 482.502 127.307 C 480.322 125.826, 477.047 124.462, 475.224 124.275 C 473.400 124.088, 469.662 123.049, 466.917 121.967 C 464.172 120.885, 460.894 120, 459.632 120 C 458.371 120, 455.125 118.877, 452.419 117.504 C 449.481 116.013, 445.793 115.007, 443.261 115.004 C 440.929 115.002, 436.654 114.100, 433.761 113.001 C 430.867 111.901, 427.023 111.001, 425.218 111.001 C 423.413 111, 420.488 110.395, 418.718 109.655 C 416.948 108.915, 414.882 107.565, 414.128 106.655 C 413.373 105.745, 411.446 105, 409.845 105 C 408.245 105, 405.263 104.287, 403.218 103.416 C 401.173 102.544, 398.375 101.626, 397 101.376 C 395.625 101.126, 392.700 99.572, 390.500 97.924 C 388.300 96.275, 384.700 94.093, 382.500 93.074 C 380.300 92.055, 376.925 89.562, 375 87.533 C 373.075 85.504, 370.044 83.229, 368.264 82.479 C 366.326 81.661, 363.830 79.225, 362.041 76.404 C 360.398 73.813, 358.574 70.240, 357.988 68.464 C 357.199 66.073, 356.170 65.084, 354.025 64.655 C 351.969 64.244, 350.395 62.823, 348.597 59.756 C 347.205 57.380, 345.533 53.129, 344.882 50.310 C 344.043 46.675, 343.052 44.889, 341.477 44.172 C 340.255 43.615, 337.510 40.468, 335.378 37.178 C 333.245 33.888, 330.464 30.701, 329.198 30.096 C 327.932 29.491, 326.244 27.436, 325.448 25.530 C 324.652 23.624, 324 20.475, 324 18.532 C 324 16.589, 323.622 15, 323.159 15 C 322.696 15, 321.170 17.138, 319.766 19.750 C 318.363 22.363, 316.007 27.875, 314.530 32 C 313.054 36.125, 310.106 46.475, 307.979 55 C 305.852 63.525, 302.536 78.600, 300.610 88.500 C 298.684 98.400, 295.913 114.150, 294.452 123.500 C 292.991 132.850, 291.635 141.049, 291.440 141.720 C 291.245 142.391, 290.054 143.132, 288.793 143.366 C 287.532 143.601, 279.525 145.215, 271 146.953 C 262.475 148.692, 244.475 152.828, 231 156.145 C 217.525 159.461, 197.275 165.238, 186 168.982 C 174.725 172.726, 157.625 178.816, 148 182.514 C 138.375 186.213, 119.475 193.948, 106 199.704 C 92.525 205.460, 72.950 214.327, 62.500 219.408 C 52.050 224.489, 37.875 231.898, 31 235.873 C 23.999 239.921, 16.601 245.063, 14.185 247.561 C 10.898 250.958, 9.944 252.662, 10.185 254.707 C 10.457 257.031, 11.271 257.621, 16.224 259.086 C 19.372 260.017, 23.884 261.914, 26.251 263.301 C 28.618 264.689, 34.255 269.678, 38.777 274.388 C 43.300 279.099, 47 283.341, 47 283.816 C 47 284.291, 45.912 285.175, 44.582 285.781 C 43.253 286.386, 39.315 287.402, 35.832 288.038 C 32.350 288.674, 23.786 289.509, 16.803 289.894 C 6.488 290.463, 3.720 290.943, 2.053 292.452 C 0.787 293.598, 0 295.552, 0 297.551 C -0 300.044, 0.866 301.554, 3.750 304.089 C 5.812 305.903, 17.850 312.423, 30.500 318.579 C 43.150 324.735, 61.715 333.428, 71.756 337.896 C 81.796 342.364, 94.621 347.860, 100.256 350.108 C 105.890 352.355, 117.700 356.644, 126.500 359.637 C 135.300 362.630, 146.550 366.137, 151.500 367.430 C 156.450 368.724, 164.775 371.166, 170 372.858 C 175.225 374.550, 184 377.049, 189.500 378.412 C 195 379.775, 204.225 381.788, 210 382.886 C 215.775 383.983, 236.597 387.158, 256.271 389.941 C 275.944 392.723, 293.167 395, 294.542 395 C 296.213 395, 297.329 395.747, 297.906 397.250 C 298.381 398.488, 300.150 404.747, 301.838 411.161 C 303.525 417.574, 306.280 426.384, 307.959 430.738 C 309.639 435.093, 313.372 442.618, 316.256 447.460 C 319.140 452.303, 323.187 458.005, 325.249 460.132 C 328.164 463.140, 329.759 464, 332.422 464 C 334.597 464, 336.909 463.106, 338.757 461.551 C 340.357 460.205, 343.046 456.492, 344.732 453.301 C 346.418 450.111, 350.372 441.200, 353.518 433.500 C 356.961 425.072, 359.290 417.850, 359.369 415.355 C 359.455 412.621, 358.887 410.534, 357.700 409.221 C 356.709 408.127, 353.293 406.281, 350.108 405.120 C 346.923 403.958, 343.501 402.106, 342.504 401.004 C 340.697 399.008, 340.744 399, 354.595 398.990 C 362.243 398.985, 375.025 398.534, 383 397.988 C 390.975 397.442, 404.925 396.296, 414 395.441 C 423.075 394.585, 441.075 392.559, 454 390.937 C 466.925 389.316, 490.574 385.961, 506.552 383.481 C 534.139 379.201, 536.098 379.025, 545.381 379.988 C 550.758 380.545, 556.360 381.288, 557.829 381.639 C 559.298 381.989, 563.200 384.196, 566.500 386.544 C 569.800 388.891, 580.150 397.739, 589.500 406.206 C 598.850 414.673, 614.493 427.983, 624.261 435.785 C 634.030 443.586, 650.680 456.435, 661.261 464.338 C 671.843 472.241, 685.675 482.172, 692 486.407 C 698.325 490.642, 706.671 495.681, 710.546 497.604 C 714.936 499.784, 719.741 501.324, 723.296 501.691 C 726.656 502.038, 729 501.888, 729 501.327 C 729 500.803, 727.763 499.237, 726.250 497.848 C 724.737 496.459, 721.925 494.257, 720 492.956 C 718.075 491.654, 714.565 488.994, 712.200 487.045 C 709.834 485.095, 701.063 476.075, 692.708 467 C 684.353 457.925, 672.774 445.550, 666.977 439.500 C 661.179 433.450, 654.384 425.575, 651.875 422 C 649.367 418.425, 645.899 412.978, 644.168 409.896 C 642.437 406.814, 639.838 401.189, 638.392 397.396 C 636.583 392.650, 635.743 388.474, 635.698 384 C 635.651 379.323, 636.259 376.098, 637.866 372.500 C 639.094 369.750, 641.764 365.789, 643.799 363.697 C 645.835 361.605, 649.525 358.603, 652 357.024 C 654.475 355.445, 658.300 353.855, 660.500 353.490 C 662.700 353.124, 665.288 352.609, 666.250 352.345 C 667.212 352.081, 668 351.461, 668 350.967 C 668 350.473, 665.260 348.141, 661.910 345.784 L 655.820 341.500 660.543 341.190 C 664.514 340.929, 666.183 341.446, 671.033 344.440 C 674.206 346.398, 677.674 348, 678.741 348 C 679.941 348, 683.235 344.949, 687.378 340 C 691.061 335.600, 694.532 332, 695.092 332 C 695.652 332, 699.347 333.378, 703.304 335.061 L 710.498 338.123 712.499 335.680 C 713.599 334.336, 716.425 330.690, 718.777 327.577 C 721.129 324.463, 723.700 321.669, 724.489 321.366 C 725.278 321.063, 728.388 322.021, 731.400 323.495 C 734.870 325.193, 737.632 325.934, 738.939 325.519 C 740.074 325.159, 741.511 323.914, 742.132 322.753 C 742.754 321.592, 743.541 318.360, 743.881 315.571 C 744.499 310.512, 744.509 310.499, 748.435 310.179 C 751.055 309.965, 754.483 310.755, 758.693 312.544 C 764.128 314.855, 765.249 315.040, 766.673 313.866 C 767.585 313.115, 769.858 310.118, 771.725 307.206 C 773.777 304.004, 776.470 301.267, 778.537 300.281 C 781.632 298.805, 782.124 298.798, 783.728 300.205 C 784.703 301.059, 786.940 302.488, 788.700 303.379 C 790.461 304.271, 792.993 305, 794.329 305 C 796.141 305, 797.702 303.627, 800.488 299.582 C 802.540 296.602, 803.927 293.690, 803.569 293.111 C 803.204 292.520, 804.041 291.777, 805.478 291.416 C 806.885 291.063, 809.041 290.987, 810.268 291.248 C 811.496 291.509, 815.502 292.545, 819.171 293.549 C 824.712 295.067, 826.109 295.154, 827.421 294.066 C 828.317 293.322, 829 291.220, 829 289.206 C 829 287.254, 828.255 284.835, 827.345 283.829 C 825.757 282.074, 825.972 282, 832.695 282 C 838.891 282, 840.178 282.346, 843.841 285 C 846.223 286.725, 849.241 288, 850.943 288 C 853.322 288, 854.506 287.125, 856.969 283.544 C 858.655 281.094, 860.968 278.435, 862.109 277.636 C 863.956 276.343, 864.381 276.381, 865.988 277.988 C 866.980 278.980, 870.966 280.514, 874.844 281.396 C 878.722 282.278, 882.664 283, 883.603 283 C 884.543 283, 886.786 281.875, 888.589 280.500 C 890.392 279.125, 892.327 278, 892.889 278 C 893.451 278, 911.368 295.496, 932.705 316.880 C 954.042 338.263, 975.613 359.133, 980.641 363.257 C 985.668 367.381, 994.218 373.884, 999.641 377.709 C 1005.063 381.534, 1014 387.407, 1019.500 390.760 C 1025 394.114, 1034.780 399.430, 1041.233 402.574 C 1049.080 406.397, 1054.628 408.450, 1057.983 408.772 C 1062.445 409.201, 1063 409.040, 1063 407.317 C 1063 406.252, 1060.974 403.007, 1058.498 400.106 C 1056.021 397.205, 1045.478 385.982, 1035.069 375.166 C 1024.660 364.349, 1013.562 352.350, 1010.408 348.500 C 1007.253 344.650, 1001.806 337.141, 998.302 331.812 C 994.799 326.484, 989.943 317.926, 987.513 312.795 C 985.082 307.663, 981.763 299.394, 980.136 294.417 C 978.510 289.441, 976.199 280.583, 975.001 274.732 C 973.170 265.791, 972.880 261.574, 973.180 248.297 C 973.521 233.247, 973.684 232.162, 976.624 225.364 C 978.321 221.440, 985.246 208.390, 992.012 196.364 C 998.779 184.339, 1008.142 167.975, 1012.821 160 C 1017.499 152.025, 1025.917 138.518, 1031.527 129.984 C 1037.137 121.450, 1044.038 111.413, 1046.863 107.681 C 1049.688 103.948, 1052 100.693, 1052 100.447 C 1052 100.201, 1050.977 100, 1049.727 100 C 1048.477 100, 1042.514 102.736, 1036.477 106.081 C 1030.440 109.426, 1020.550 115.453, 1014.500 119.476 C 1008.450 123.499, 998.550 131.255, 992.500 136.712 C 986.450 142.169, 975.768 152.806, 968.762 160.350 C 961.756 167.895, 950.910 180.014, 944.659 187.283 C 938.408 194.553, 929.784 205, 925.496 210.500 C 921.207 216, 915.284 224.240, 912.332 228.811 C 909.381 233.381, 904.888 239.344, 902.347 242.061 C 898.850 245.799, 897.016 247, 894.804 247 C 893.197 247, 888.163 245.200, 883.618 243 C 879.073 240.800, 874.552 239, 873.571 239 C 872.590 239, 870.083 240.350, 868 242 C 865.917 243.650, 863.275 245, 862.130 245 C 860.985 245, 858.575 243.381, 856.774 241.402 C 854.973 239.422, 852.611 237.327, 851.524 236.745 C 850.436 236.163, 848.027 235.344, 846.168 234.925 C 843.973 234.430, 841.381 234.660, 838.769 235.582 C 836.558 236.362, 833.905 237, 832.874 237 C 831.843 237, 831 236.403, 831 235.674 C 831 234.945, 829.958 233.370, 828.686 232.174 C 827.413 230.978, 825.234 230, 823.844 230 C 822.455 230, 819.109 230.670, 816.409 231.489 C 813.709 232.308, 811.217 232.983, 810.871 232.989 C 810.526 232.995, 809.702 231.694, 809.041 230.099 C 808.380 228.503, 806.730 226.156, 805.375 224.882 C 803.321 222.953, 802.626 222.773, 801.205 223.804 C 800.267 224.484, 798.150 225.652, 796.500 226.400 C 794.850 227.148, 792.487 228.070, 791.250 228.448 C 789.390 229.016, 789 228.753, 789 226.935 C 789 225.726, 788.063 223.220, 786.917 221.366 C 785.772 219.513, 783.775 217.731, 782.479 217.405 C 780.944 217.020, 777.923 217.867, 773.812 219.836 C 770.340 221.498, 766.547 223.126, 765.382 223.454 C 763.552 223.970, 763.181 223.532, 762.652 220.228 C 762.316 218.125, 760.638 214.286, 758.923 211.697 C 757.153 209.025, 754.765 206.728, 753.402 206.386 C 752.081 206.054, 749.984 206.038, 748.742 206.350 C 747.500 206.662, 743.241 208.992, 739.277 211.528 C 733.508 215.218, 731.714 215.931, 730.285 215.100 C 728.607 214.123, 728.605 214.059, 730.250 214.030 C 731.419 214.010, 732 213.208, 732 211.614 C 732 210.302, 730.162 206.476, 727.916 203.112 C 725.657 199.729, 722.863 196.753, 721.665 196.452 C 720.416 196.139, 716.369 197.198, 712.111 198.954 C 708.049 200.629, 704.337 202, 703.862 202 C 703.388 202, 702.996 201.213, 702.990 200.250 C 702.985 199.287, 701.919 196.250, 700.623 193.500 C 699.326 190.750, 697.132 187.458, 695.748 186.184 L 693.231 183.869 681.207 189.896 C 671.458 194.783, 668.972 195.671, 668.074 194.589 C 667.464 193.854, 667.234 192.554, 667.562 191.700 C 667.890 190.845, 667.198 187.975, 666.025 185.323 C 664.852 182.670, 662.708 179.262, 661.259 177.750 C 659.811 176.237, 658.123 175, 657.508 175 C 656.894 175, 651.337 177.055, 645.161 179.567 C 638.984 182.078, 633.240 183.991, 632.398 183.817 C 631.555 183.642, 634.576 181.475, 639.111 179 C 643.646 176.525, 647.535 173.947, 647.754 173.270 C 647.974 172.594, 646.656 171.367, 644.827 170.545 C 642.997 169.722, 637.749 167.640, 633.164 165.919 C 628.580 164.197, 623.266 161.416, 621.356 159.739 C 619.445 158.062, 616.949 154.860, 615.808 152.623 C 614.667 150.387, 613.329 147.194, 612.835 145.528 C 612.342 143.863, 611.532 139.369, 611.036 135.542 C 610.499 131.395, 610.502 125.366, 611.043 120.619 C 611.543 116.239, 612.890 109.834, 614.038 106.387 C 615.185 102.940, 617.821 97.505, 619.896 94.310 C 621.970 91.114, 627.680 84.512, 632.584 79.639 C 637.488 74.765, 646.450 66.603, 652.500 61.502 C 658.550 56.401, 670.925 46.658, 680 39.851 C 689.075 33.043, 703.250 23.034, 711.500 17.608 C 719.750 12.183, 727.962 6.363, 729.750 4.675 C 731.538 2.988, 733 1.246, 733 0.804 C 733 0.362, 731.987 0.031, 730.750 0.068 C 729.513 0.105, 725.125 1.150, 721 2.390"
     stroke="none"
     fill="#040404"
     fill-rule="evenodd"
     id="path824"
     style="fill:#6f42c1;fill-opacity:1" />
</svg>
