<?xml version="1.0" encoding="UTF-8" standalone="no"?>
<!-- Created with Inkscape (http://www.inkscape.org/) -->

<svg
   width="113.42229mm"
   height="41.665359mm"
   viewBox="0 0 113.42229 41.665359"
   version="1.1"
   id="svg5"
   xml:space="preserve"
   xmlns:inkscape="http://www.inkscape.org/namespaces/inkscape"
   xmlns:sodipodi="http://sodipodi.sourceforge.net/DTD/sodipodi-0.dtd"
   xmlns="http://www.w3.org/2000/svg"
   xmlns:svg="http://www.w3.org/2000/svg"><sodipodi:namedview
     id="namedview7"
     pagecolor="#ffffff"
     bordercolor="#000000"
     borderopacity="0.25"
     inkscape:showpageshadow="2"
     inkscape:pageopacity="0.0"
     inkscape:pagecheckerboard="0"
     inkscape:deskcolor="#d1d1d1"
     inkscape:document-units="mm"
     showgrid="false" /><defs
     id="defs2" /><g
     inkscape:label="Layer 1"
     inkscape:groupmode="layer"
     id="layer1"
     transform="translate(-35.676801,-206.65388)"><path
       style="fill:#6f42c1;stroke-width:3.62857"
       d="m 107.64141,244.74498 c 0,-4.76943 -3.4639,-6.07537 -16.114419,-6.07537 -8.862939,0 -17.123589,-1.63286 -18.35701,-3.62857 -3.117936,-5.04493 -21.213706,-4.54915 -26.488572,0.72571 -3.386667,3.38667 -4.354286,2.33841 -4.354286,-4.71714 0,-4.98929 -1.959429,-11.03086 -4.354286,-13.42572 -6.2763,-6.2763 1.303164,-5.36035 10.823545,1.30798 11.074856,7.75714 38.854259,3.64564 46.196839,-6.83737 4.77355,-6.8152 5.771599,-6.99962 9.886029,-1.82674 2.51705,3.16456 12.46793,6.75475 22.11308,7.9782 9.64514,1.22345 19.25467,3.28626 21.3545,4.58403 4.19814,2.59459 -10.16005,11.87166 -18.70013,12.08247 -2.86494,0.0707 -8.98816,3.67892 -13.60714,8.01823 -7.13122,6.69943 -8.39815,6.97313 -8.39815,1.81429 z"
       id="path316" /></g></svg>
