<?xml version="1.0" encoding="UTF-8" standalone="no"?>
<!-- Created with Inkscape (http://www.inkscape.org/) -->

<svg
   width="127.54133mm"
   height="127.54132mm"
   viewBox="0 0 127.54133 127.54132"
   version="1.1"
   id="svg5"
   xml:space="preserve"
   xmlns:inkscape="http://www.inkscape.org/namespaces/inkscape"
   xmlns:sodipodi="http://sodipodi.sourceforge.net/DTD/sodipodi-0.dtd"
   xmlns="http://www.w3.org/2000/svg"
   xmlns:svg="http://www.w3.org/2000/svg"><sodipodi:namedview
     id="namedview7"
     pagecolor="#ffffff"
     bordercolor="#000000"
     borderopacity="0.25"
     inkscape:showpageshadow="2"
     inkscape:pageopacity="0.0"
     inkscape:pagecheckerboard="0"
     inkscape:deskcolor="#d1d1d1"
     inkscape:document-units="mm"
     showgrid="false" /><defs
     id="defs2" /><g
     inkscape:label="Layer 1"
     inkscape:groupmode="layer"
     id="layer1"
     transform="translate(-34.930993,-3.1133842)"><circle
       style="fill:#0277d4;fill-opacity:1;stroke-width:0.625213;-inkscape-stroke:none;stop-color:#000000"
       id="path265"
       cx="98.70166"
       cy="66.884048"
       r="63.770664" /><circle
       style="fill:#ffffff;fill-opacity:1;stroke-width:0.933478;-inkscape-stroke:none;stop-color:#000000"
       id="path1709"
       cx="98.70166"
       cy="66.884048"
       r="56.4226" /><path
       d="m 81.038982,59.340487 1.65999,0.82356 c 0.75923,0.38604 1.59566,0.57907 2.45783,0.57907 3.02402,0 5.48184,-2.45782 5.48184,-5.48184 v -2.75379 c 0,-4.54247 -3.69317,-8.23563 -8.23563,-8.23563 h -8.23563 c -4.54247,0 -8.23563,3.69316 -8.23563,8.23563 v 2.75379 c 0,3.02402 2.45782,5.48184 5.48184,5.48184 0.8493,0 1.68573,-0.19303 2.45782,-0.57907 l 1.65999,-0.82356 1.08093,-0.54047 -1.54418,-1.01658 c -0.57907,-0.38605 -0.91364,-1.02946 -0.91364,-1.71147 v -0.47612 c 0,-1.71147 1.37689,-3.08836 3.08836,-3.08836 h 2.05891 c 1.71146,0 3.08836,1.37689 3.08836,3.08836 v 0.47612 c 0,0.68201 -0.34744,1.32542 -0.91364,1.71147 l -1.51845,1.01658 z m -1.10666,6.35688 -1.66,-0.83644 -1.65999,0.82357 c -1.62139,0.81069 -3.41007,1.23534 -5.21161,1.23534 -0.46325,0 -0.91364,-0.0257 -1.36403,-0.0772 v 0.0772 c 0,4.54246 3.69317,8.23563 8.23563,8.23563 h 8.23563 c 2.27767,0 4.11782,1.84015 4.11782,4.11781 0,2.27767 -1.84015,4.11782 -4.11782,4.11782 h 20.589068 v -6.17673 -2.0589 c 0,-3.04976 1.66,-5.71347 4.11782,-7.12897 1.20961,-0.69488 2.61224,-1.10666 4.11781,-1.10666 v -2.05891 c 0,-3.41006 2.76666,-6.17672 6.17672,-6.17672 1.13241,0 2.05891,0.92651 2.05891,2.05891 v 4.11781 2.05891 6.17672 c 0,1.1324 0.92651,2.05891 2.05891,2.05891 1.1324,0 2.05891,-0.92651 2.05891,-2.05891 v -12.82956 c 0,-6.20246 -3.9634,-11.71004 -9.85702,-13.67887 l -1.0938,-0.36031 c -1.02945,-0.34744 -1.62139,-1.42837 -1.33829,-2.48356 0.28311,-1.05519 1.32542,-1.6986 2.39348,-1.4927 l 2.56077,0.51472 c 11.45267,2.29054 19.6883,12.34058 19.6883,24.01201 v 0.14155 c 0,0 0,0 0,0 0,15.91792 -12.90678,28.8247 -28.8247,28.8247 h -0.14155 -20.447518 -0.0772 c -15.87932,0 -28.74749,-12.86817 -28.74749,-28.74749 v -0.0772 -5.04432 c -1.29969,-1.87876 -2.05891,-4.15642 -2.05891,-6.61424 v -2.75379 -0.18016 c -1.19674,-0.42465 -2.05891,-1.55704 -2.05891,-2.9082 0,-1.71147 1.3769,-3.08836 3.08836,-3.08836 h 0.36031 c 2.31627,-4.86417 7.27052,-8.23563 13.02259,-8.23563 h 8.23563 c 5.75207,0 10.70632,3.37146 13.022591,8.23563 h 0.36031 c 1.71146,0 3.08836,1.37689 3.08836,3.08836 0,1.35116 -0.86217,2.48355 -2.05891,2.9082 v 0.18016 2.75379 c 0,0.18015 0,0.36031 -0.0129,0.55333 1.54418,-0.79783 3.307117,-1.23534 5.160137,-1.23534 h 1.02945 c 2.27767,0 4.11781,1.84014 4.11781,4.11781 0,2.27767 -1.84014,4.11781 -4.11781,4.11781 h -1.02945 c -1.71147,0 -3.088357,1.3769 -3.088357,3.08836 v 1.02946 h 7.257647 c -1.95597,2.18759 -3.13984,5.07006 -3.13984,8.23563 h -4.117807 c -5.443241,0 -10.062911,-3.52588 -11.710041,-8.40292 -0.65627,0.11581 -1.32542,0.16729 -2.00743,0.16729 -1.81441,0 -3.59022,-0.42465 -5.21161,-1.23534 z m -9.89563,-15.24879 a 2.05891,2.05891 0 1 1 0,4.11782 2.05891,2.05891 0 1 1 0,-4.11782 z m 14.41236,2.05891 a 2.0589074,2.0589074 0 1 1 4.11781,0 2.0589074,2.0589074 0 1 1 -4.11781,0 z"
       id="path1727"
       style="fill:#0277d4;fill-opacity:1;stroke-width:0.128682" /></g></svg>
