<?xml version="1.0" encoding="UTF-8" standalone="no"?>
<!-- Created with Inkscape (http://www.inkscape.org/) -->

<svg
   width="135.42786mm"
   height="135.51862mm"
   viewBox="0 0 135.42786 135.51862"
   version="1.1"
   id="svg5"
   xml:space="preserve"
   xmlns:inkscape="http://www.inkscape.org/namespaces/inkscape"
   xmlns:sodipodi="http://sodipodi.sourceforge.net/DTD/sodipodi-0.dtd"
   xmlns="http://www.w3.org/2000/svg"
   xmlns:svg="http://www.w3.org/2000/svg"><sodipodi:namedview
     id="namedview7"
     pagecolor="#ffffff"
     bordercolor="#000000"
     borderopacity="0.25"
     inkscape:showpageshadow="2"
     inkscape:pageopacity="0.0"
     inkscape:pagecheckerboard="0"
     inkscape:deskcolor="#d1d1d1"
     inkscape:document-units="mm"
     showgrid="false" /><defs
     id="defs2" /><g
     inkscape:label="Layer 1"
     inkscape:groupmode="layer"
     id="layer1"
     transform="translate(-35.424966,-25.370239)"><path
       style="fill:#ffffff;stroke-width:0.264583"
       d="m 71.174177,160.10126 c -0.93296,-0.93297 -1.00856,-1.8823 -0.35958,-4.51557 0.94857,-3.84882 3.13633,-7.55378 6.12569,-10.37378 l 1.85746,-1.75224 13.32306,-0.14638 c 9.354873,-0.10279 13.973203,-0.25357 15.505873,-0.50624 2.51295,-0.41427 2.41721,-0.52233 1.76552,1.99262 -1.62976,6.28947 -6.47433,11.74084 -12.621353,14.20223 -3.13316,1.25458 -5.70604,1.53576 -15.74094,1.72024 l -9.06813,0.16671 z m 94.499863,-14.58457 c -5.96067,-1.59784 -11.11825,-5.91099 -13.62501,-11.39423 -1.7178,-3.75751 -1.82509,-4.52084 -1.95448,-13.90614 l -0.11715,-8.49726 0.95406,-2.54724 c 1.8463,-4.92948 3.06345,-11.467304 3.06345,-16.455124 0,-1.375 0.047,-2.49999 0.10442,-2.49999 0.0574,0 0.92064,0.25187 1.91823,0.55972 7.01508,2.1648 12.2475,7.5826 14.29495,14.801424 0.44743,1.57751 0.48344,3.08863 0.48344,20.28534 v 18.58086 l -0.67568,0.67579 c -0.91158,0.91172 -2.12236,1.01979 -4.44623,0.39685 z M 62.263487,135.22522 c -1.53782,-0.97149 -1.66649,-1.54144 -1.66649,-7.38178 0,-2.89413 0.0779,-7.93976 0.17318,-11.21253 l 0.17317,-5.95047 9.0211,-3.35015 9.02109,-3.35015 6.69105,6.68914 6.69104,6.68914 -3.61646,8.85258 c -1.98905,4.86892 -3.69033,8.93047 -3.78063,9.02566 -0.0903,0.0952 -5.04573,0.25196 -11.01208,0.34838 -10.58936,0.17111 -10.86811,0.16253 -11.69497,-0.35982 z m 31.51045,-0.20487 c 0.23477,-0.73968 6.20738,-15.22642 6.301193,-15.28372 0.0424,-0.0259 4.27893,-1.16268 9.41452,-2.52619 8.03268,-2.1327 9.38717,-2.4265 9.69332,-2.10257 0.78256,0.82799 8.91692,11.14494 8.83661,11.20762 -2.06973,1.61524 -6.57575,4.0974 -9.8988,5.4528 -5.76244,2.35038 -10.94755,3.32632 -19.114533,3.59775 -5.30505,0.17632 -5.39608,0.17031 -5.23231,-0.34569 z m -57.55727,-10.14118 -0.7917,-0.79171 0.16899,-8.93173 c 0.093,-4.91245 0.28171,-9.81746 0.41948,-10.90001 1.04861,-8.239594 7.45233,-15.502794 15.50894,-17.590474 2.51472,-0.65163 2.40666,-0.74731 1.99401,1.76552 -0.24564,1.49587 -0.41606,6.34611 -0.54152,15.411984 -0.2085,15.06675 0.0516,13.52996 -2.73425,16.15296 -2.75649,2.59534 -5.68161,4.20658 -9.33125,5.13994 -2.93347,0.75021 -3.72951,0.7067 -4.6927,-0.25648 z m 93.332233,-9.57833 c -2.45847,-3.08414 -4.52031,-5.80015 -4.58187,-6.03557 -0.14127,-0.54023 4.62114,-18.315664 4.96391,-18.527504 0.13928,-0.0861 3.43776,-0.36391 7.32996,-0.6174 3.89219,-0.25349 7.48222,-0.53083 7.97783,-0.61633 l 0.90111,-0.15544 -0.16455,4.07208 c -0.32296,7.992474 -2.57679,15.021794 -6.88334,21.468014 -1.51104,2.26178 -4.56214,6.01968 -4.88749,6.01968 -0.1021,0 -2.1971,-2.52338 -4.65556,-5.60753 z m -38.176143,-10.33361 -6.92362,-6.945314 2.4821,-9.23557 c 1.36516,-5.07957 2.57663,-9.3176 2.69216,-9.41786 0.11553,-0.10027 4.36261,-1.28667 9.43794,-2.63646 l 9.227883,-2.45415 6.94488,6.97723 6.94489,6.97722 -2.50341,9.26042 c -1.37687,5.093234 -2.55155,9.308914 -2.6104,9.368194 -0.10065,0.10138 -18.346643,5.04583 -18.634643,5.04977 -0.0738,0.001 -3.24979,-3.12356 -7.05778,-6.94348 z m -30.50844,-6.085424 c 0.008,-9.02592 1.46605,-16.21508 4.65634,-22.9526 1.11686,-2.35867 3.06867,-5.73516 4.0904,-7.07611 l 0.45245,-0.59381 5.82878,4.62861 5.82878,4.62861 -0.23318,0.85999 c -0.12824,0.473 -1.25514,4.66943 -2.5042,9.3254 -1.24906,4.65596 -2.35494,8.53825 -2.4575,8.62731 -0.18349,0.15932 -15.29569,5.793754 -15.53952,5.793754 -0.0688,0 -0.12386,-1.45852 -0.12235,-3.241154 z m 60.096413,-23.3015 -7.23731,-7.25012 0.92506,-8.122436 c 0.50878,-4.467341 0.98975,-8.187145 1.06884,-8.266229 0.28219,-0.282195 3.8053,1.046218 7.18905,2.710686 8.02911,3.94953 14.42657,10.210693 18.49603,18.101999 1.62037,3.14215 3.53073,8.38758 3.17114,8.70729 -0.12975,0.11537 -3.33155,0.40922 -7.11509,0.65301 -3.78354,0.24378 -7.41495,0.5046 -8.06979,0.57959 l -1.19062,0.13634 z m -39.589593,-8.50411 c -3.19907,-2.538061 -5.85448,-4.728621 -5.9009,-4.86791 -0.24553,-0.736577 6.29337,-5.470009 10.42621,-7.547414 5.35165,-2.690053 10.91145,-4.059828 17.496903,-4.310731 4.10584,-0.15643 4.29903,-0.141191 4.28952,0.338358 -0.0266,1.342473 -1.76839,15.730177 -1.92302,15.884807 -0.0977,0.0977 -4.31641,1.28702 -9.374933,2.64296 -5.05851,1.35593 -9.19729,2.46741 -9.19729,2.46996 0,0.003 -2.61742,-2.07197 -5.81649,-4.61003 z m 64.834673,-2.003468 c -3.13722,-5.08269 -8.54399,-10.583383 -14.17132,-14.417471 -1.23692,-0.842761 -2.21378,-1.648821 -2.1708,-1.791245 0.043,-0.142424 0.77393,-1.04641 1.62432,-2.008858 2.37164,-2.684142 5.79672,-7.520757 8.10076,-11.439188 2.64256,-4.494169 4.64499,-6.578295 7.82788,-8.147263 4.88928,-2.410115 9.74893,-2.44934 14.51576,-0.117165 2.75605,1.3484 5.88939,4.481632 7.23834,7.238087 2.57078,5.253155 2.17539,11.332082 -1.05292,16.188146 -1.58613,2.385883 -3.43511,3.980072 -6.92384,5.969707 -3.61159,2.059712 -7.97332,5.098489 -10.8658,7.570118 -3.39475,2.90081 -2.98066,2.80486 -4.12238,0.955132 z M 67.873037,46.000434 c -8.01398,-1.165688 -14.88012,-7.227929 -17.04837,-15.052316 -0.78779,-2.842826 -0.73086,-3.570714 0.36494,-4.666519 l 0.91136,-0.91136 18.46937,0.08204 18.46937,0.08204 1.85208,0.621326 c 5.98651,2.008319 10.543663,6.050175 13.238153,11.741263 0.49911,1.054173 1.07128,2.464655 1.27149,3.134404 l 0.36403,1.217726 -3.60038,0.163383 c -5.355803,0.243044 -10.903463,1.366241 -15.222763,3.082049 l -2.01743,0.801407 -7.73217,-0.03226 c -4.2527,-0.01774 -8.44655,-0.136174 -9.31968,-0.263176 z"
       id="path314" /></g></svg>
